<?xml version="1.0" encoding="utf-8"?>
<!-- Generator: Adobe Illustrator 24.0.0, SVG Export Plug-In . SVG Version: 6.00 Build 0)  -->
<svg version="1.1" id="Layer_1" xmlns="http://www.w3.org/2000/svg" xmlns:xlink="http://www.w3.org/1999/xlink" x="0px" y="0px"
	 viewBox="0 0 200 200" style="enable-background:new 0 0 200 200;" xml:space="preserve">
<g>
	<path d="M176.12,139.16c-51.08,0-102.3,0-154.06,0c0,4.89,0.05,9.52-0.01,14.14c-0.07,5.28-3.42,8.9-8.07,8.86
		c-4.66-0.04-7.89-3.62-7.91-8.99c-0.04-13.66,0.23-27.33-0.13-40.98c-0.16-6.24,2.38-10.5,7.15-13.89
		c9.28-6.59,19.98-9.72,30.86-12.12c29.22-6.45,58.83-7.26,88.39-3.73c13.42,1.61,26.59,5.55,39.75,8.9
		c4.09,1.04,7.91,3.43,11.64,5.58c6.38,3.67,9.69,8.87,9.37,16.77c-0.52,12.81-0.12,25.65-0.15,38.48c-0.02,6.19-3.1,9.95-8.04,9.98
		c-4.9,0.03-7.97-3.75-8.03-9.89c-0.04-4-0.08-7.99-0.15-11.99C176.73,139.99,176.43,139.7,176.12,139.16z"/>
	<path d="M19.58,84.27c0-15.1-0.14-25.55,0.08-40c0.07-4.78,2.98-7.18,7.8-7.19c47.98-0.04,95.96-0.03,143.94,0
		c4.82,0,7.74,2.52,7.79,7.12c0.15,14.48,0.05,24.96,0.05,39.88c-5.03-1.73-9.73-3.15-14.23-5.06c-1-0.43-1.74-2.57-1.79-3.95
		c-0.2-5.49-0.03-10.99-0.1-16.49c-0.08-5.47-1.68-7.2-6.95-6.37c-14.27,2.24-28.47,2.41-42.74,0.01c-5.04-0.85-6.78,0.84-6.94,5.91
		c-0.14,4.48-0.03,8.97-0.03,13.85c-4.7,0-9.1,0-14.19,0c0-4.62,0.08-9.24-0.02-13.84c-0.12-5.23-1.59-6.75-6.81-5.92
		c-14.27,2.25-28.47,2.39-42.74,0.01c-5.14-0.86-6.72,0.75-6.83,5.92c-0.11,5.66-0.13,11.33,0.01,16.99
		c0.06,2.58-0.76,3.76-3.4,4.47C28.37,80.7,24.41,82.48,19.58,84.27z"/>
</g>
</svg>
