<svg xmlns="http://www.w3.org/2000/svg" width="41.557" height="41.51" viewBox="0 0 41.557 41.51">
  <g id="Group_2236" data-name="Group 2236" transform="translate(-243.4 -171.172)">
    <path id="Path_2606" data-name="Path 2606" d="M243.4,414.63a9.385,9.385,0,0,1,.775-1.748,3.64,3.64,0,0,1,3.164-1.5q10.745,0,21.49,0a4.649,4.649,0,0,1,.606.041,3.682,3.682,0,0,1,3.312,3.471c.01.121.01.243.01.365,0,1.959,0,3.917,0,5.935H243.4Z" transform="translate(0 -215.816)" fill="#fff"/>
    <path id="Path_2607" data-name="Path 2607" d="M243.4,531.957h29.292c.4,2.406-.771,4.369-3.072,4.8a1.338,1.338,0,0,0-.188.064H246.725a.691.691,0,0,0-.146-.058,3.754,3.754,0,0,1-2.3-1.28,4.32,4.32,0,0,1-.876-1.906Z" transform="translate(0 -324.141)" fill="#fff"/>
    <path id="Path_2609" data-name="Path 2609" d="M310.247,209.323l-2.619-1.186a6.092,6.092,0,1,0-11.82,0l-2.617,1.185A3.368,3.368,0,0,1,292,206.827c-.026-2.5-.045-5,0-7.5a3.586,3.586,0,0,1,3.658-3.611q6.06-.043,12.121,0a3.6,3.6,0,0,1,3.662,3.65c.034,2.459.018,4.919,0,7.378A3.475,3.475,0,0,1,310.247,209.323Z" transform="translate(-43.64 -22.033)" fill="#fff"/>
    <path id="Path_2610" data-name="Path 2610" d="M512.944,185.839c-1.041,0-2.081,0-3.122,0a1.234,1.234,0,0,1-1.2-1.9c.215-.45.429-.9.668-1.34a.631.631,0,0,0-.011-.674,6.775,6.775,0,0,1-.855-3.418,7.328,7.328,0,0,1,7.654-7.325,7.331,7.331,0,0,1-.375,14.651C514.782,185.849,513.863,185.839,512.944,185.839Zm3.394-6.082-.046-.11c.122-.106.251-.206.366-.32q1.148-1.144,2.29-2.294a1.2,1.2,0,0,0,.328-1.367,1.14,1.14,0,0,0-1.1-.764c-1.648-.016-3.3-.02-4.943,0a1.19,1.19,0,0,0-1.161,1.217,1.209,1.209,0,0,0,1.184,1.2c.526.02,1.053,0,1.58.008.095,0,.189.02.356.038-.919.913-1.78,1.771-2.643,2.626a1.233,1.233,0,0,0-.368,1.464,1.257,1.257,0,0,0,1.282.739c1.513-.007,3.025,0,4.538,0a1.223,1.223,0,1,0,.018-2.431C517.462,179.753,516.9,179.757,516.338,179.757Z" transform="translate(-238.101 0)" fill="#fff"/>
    <path id="Path_2611" data-name="Path 2611" d="M303.028,275c1.107,0,2.215-.028,3.321.005a6.076,6.076,0,0,1,5.615,4.536c.022.09.031.183.05.3H292.772a14.257,14.257,0,0,1,.691-1.669,5.917,5.917,0,0,1,5.17-3.165c1.074-.045,2.152-.008,3.228-.026A3.674,3.674,0,0,1,298.822,271a3.634,3.634,0,0,1,7.245.108A3.76,3.76,0,0,1,303.028,275Z" transform="translate(-44.357 -86.725)" fill="#fff"/>
  </g>
</svg>
