<svg xmlns="http://www.w3.org/2000/svg" width="113.566" height="30.667" viewBox="0 0 113.566 30.667">
  <g id="Group_1634" data-name="Group 1634" transform="translate(-32.315 -113.024)">
    <g id="Group_1633" data-name="Group 1633" transform="translate(32.315 113.024)">
      <g id="Group_1632" data-name="Group 1632" transform="translate(21.123 8.331)">
        <path id="Path_2050" data-name="Path 2050" d="M81.542,147.127a4.034,4.034,0,0,1-1.629-.292,2.758,2.758,0,0,1-1.078-.82,3.385,3.385,0,0,1-.607-1.258,6.424,6.424,0,0,1-.191-1.629v-6.354H76.465v-2.043h1.656v-4.292h0a2.522,2.522,0,0,1,2.522,2.522v1.769h2.808a2.045,2.045,0,0,1-2.045,2.044h-.764v6.354q0,1.933,1.55,1.932a2.712,2.712,0,0,0,.6-.068,9.427,9.427,0,0,0,1-.2v.931A1.3,1.3,0,0,1,82.778,147l-.011,0A5.844,5.844,0,0,1,81.542,147.127Z" transform="translate(-76.465 -130.438)" fill="#253d8f"/>
        <path id="Path_2051" data-name="Path 2051" d="M93.794,152.8V141.639l.443,0a1.92,1.92,0,0,1,1.9,1.973h.091a4.685,4.685,0,0,1,1.432-1.671,3.15,3.15,0,0,1,3-.352l-.341,1.7a.557.557,0,0,1-.655.433h0a3.521,3.521,0,0,0-.614-.045,2.433,2.433,0,0,0-1.387.511,3.948,3.948,0,0,0-1.25,1.785v6.82Z" transform="translate(-85.503 -136.138)" fill="#253d8f"/>
        <path id="Path_2052" data-name="Path 2052" d="M111.378,152.741a3.188,3.188,0,0,1-2.342-.881,3.128,3.128,0,0,1-.892-2.331,3.207,3.207,0,0,1,.368-1.55,3.173,3.173,0,0,1,1.16-1.171,7.7,7.7,0,0,1,2.008-.825,18.326,18.326,0,0,1,2.911-.513,4.136,4.136,0,0,0-.122-.815,1.872,1.872,0,0,0-.335-.691,1.558,1.558,0,0,0-.613-.468,2.322,2.322,0,0,0-.937-.167,4.149,4.149,0,0,0-1.573.312l-.015.006a1.844,1.844,0,0,1-2.336-.8l-.091-.168a10.983,10.983,0,0,1,2.052-1,6.977,6.977,0,0,1,2.454-.424,3.769,3.769,0,0,1,3.067,1.216,5.35,5.35,0,0,1,1.015,3.514l-.057,6.759h-.642a1.6,1.6,0,0,1-1.6-1.472h-.089a8.061,8.061,0,0,1-1.573,1.048A3.967,3.967,0,0,1,111.378,152.741Zm.825-2.008a2.408,2.408,0,0,0,1.216-.312,6.476,6.476,0,0,0,1.171-.893v-2.453a11.757,11.757,0,0,0-1.874.357,5.426,5.426,0,0,0-1.227.5,1.79,1.79,0,0,0-.669.636,1.522,1.522,0,0,0-.2.758,1.25,1.25,0,0,0,.446,1.071A1.845,1.845,0,0,0,112.2,150.734Z" transform="translate(-92.988 -136.079)" fill="#253d8f"/>
        <path id="Path_2053" data-name="Path 2053" d="M131.849,152.742l-4-11.477h1.126a2.175,2.175,0,0,1,2.08,1.538l1.353,4.422q.233.841.479,1.706t.479,1.753h.093q.257-.888.491-1.753t.491-1.706l1.228-4.014a2.75,2.75,0,0,1,2.63-1.946h.559l-3.9,11.477Z" transform="translate(-103.267 -136.085)" fill="#253d8f"/>
        <path id="Path_2054" data-name="Path 2054" d="M152.844,147.233c0-.039,0-.074,0-.115V130.641c1.427,0,2.584,1.566,2.584,3.5v12.8c0,.1-.009.2-.011.3Z" transform="translate(-116.301 -130.544)" fill="#253d8f"/>
        <path id="Path_2055" data-name="Path 2055" d="M165.443,152.7a5.19,5.19,0,0,1-1.967-.38,4.887,4.887,0,0,1-1.666-1.118,5.338,5.338,0,0,1-1.151-1.811,7.2,7.2,0,0,1,0-4.874,5.338,5.338,0,0,1,1.151-1.811,5.06,5.06,0,0,1,3.633-1.52,5.159,5.159,0,0,1,1.979.391,4.9,4.9,0,0,1,1.666,1.13,5.589,5.589,0,0,1,1.152,1.811,7.032,7.032,0,0,1,0,4.874,5.59,5.59,0,0,1-1.152,1.811,4.758,4.758,0,0,1-1.666,1.118A5.277,5.277,0,0,1,165.443,152.7Zm0-2.1a2.194,2.194,0,0,0,1.9-1,4.552,4.552,0,0,0,.693-2.65,4.6,4.6,0,0,0-.693-2.672,2.195,2.195,0,0,0-1.9-.995,2.167,2.167,0,0,0-1.889.995,4.654,4.654,0,0,0-.682,2.672,4.607,4.607,0,0,0,.682,2.65A2.166,2.166,0,0,0,165.443,150.6Z" transform="translate(-120.155 -136.044)" fill="#253d8f"/>
        <path id="Path_2056" data-name="Path 2056" d="M187.485,152.8a3,3,0,0,1-2.625-1.153,5.631,5.631,0,0,1-.822-3.3v-7.031h.015a2.61,2.61,0,0,1,2.61,2.61v4.078a3.486,3.486,0,0,0,.411,1.964,1.518,1.518,0,0,0,1.323.571,2.305,2.305,0,0,0,1.29-.366,5.265,5.265,0,0,0,1.2-1.187v-5.4a2.271,2.271,0,0,1,2.27-2.27h.355v11.208h-.784a1.569,1.569,0,0,1-1.567-1.643h-.068a6.585,6.585,0,0,1-1.586,1.392A3.791,3.791,0,0,1,187.485,152.8Z" transform="translate(-132.571 -136.114)" fill="#253d8f"/>
        <path id="Path_2057" data-name="Path 2057" d="M206.759,152.7V141.469h.96a1.4,1.4,0,0,1,1.4,1.41v.1h.091a8.93,8.93,0,0,1,1.636-1.258,3.915,3.915,0,0,1,2.047-.526,3.009,3.009,0,0,1,2.631,1.155,5.646,5.646,0,0,1,.823,3.306V152.7h-.553a2.078,2.078,0,0,1-2.078-2.078V146a3.5,3.5,0,0,0-.411-1.967,1.551,1.551,0,0,0-1.35-.572,2.367,2.367,0,0,0-1.293.355,8.248,8.248,0,0,0-1.269,1.041v6.077a1.77,1.77,0,0,1-1.77,1.77Z" transform="translate(-144.422 -136.048)" fill="#253d8f"/>
        <path id="Path_2058" data-name="Path 2058" d="M232.463,157.228a8.79,8.79,0,0,1-1.831-.179,4.8,4.8,0,0,1-1.449-.539,2.821,2.821,0,0,1-.954-.9,2.35,2.35,0,0,1,.056-2.55,3.775,3.775,0,0,1,1.168-1.067v-.09a2.236,2.236,0,0,1-.707-.719,2.08,2.08,0,0,1-.281-1.123,2,2,0,0,1,.371-1.18,3.567,3.567,0,0,1,.843-.865v-.09a3.935,3.935,0,0,1-1-1.179,3.393,3.393,0,0,1-.438-1.741,3.813,3.813,0,0,1,.359-1.685,3.76,3.76,0,0,1,.955-1.247,4.083,4.083,0,0,1,1.382-.764,5.3,5.3,0,0,1,1.663-.258,4.624,4.624,0,0,1,.865.079,5.868,5.868,0,0,1,.753.191h3.954a1.91,1.91,0,0,1-1.91,1.91h-.112a2.628,2.628,0,0,1,.449.8,3.047,3.047,0,0,1,.179,1.067,3.778,3.778,0,0,1-.326,1.618,3.361,3.361,0,0,1-.887,1.168,3.909,3.909,0,0,1-1.326.72,5.3,5.3,0,0,1-1.64.247,4.26,4.26,0,0,1-.742-.067,3.68,3.68,0,0,1-.764-.224,2.313,2.313,0,0,0-.393.449,1.1,1.1,0,0,0-.146.607.852.852,0,0,0,.393.741,2.629,2.629,0,0,0,1.4.27h1.955a5.754,5.754,0,0,1,3.021.64,2.265,2.265,0,0,1,1.022,2.078,3.006,3.006,0,0,1-.415,1.528,3.778,3.778,0,0,1-1.18,1.235,6.3,6.3,0,0,1-1.853.821A9.1,9.1,0,0,1,232.463,157.228Zm.4-1.685a3.958,3.958,0,0,0,2.168-.528,1.5,1.5,0,0,0,.82-1.247.864.864,0,0,0-.506-.876,3.677,3.677,0,0,0-1.449-.225H232.4a6.108,6.108,0,0,1-1.505-.157,1.842,1.842,0,0,0-.854,1.461,1.276,1.276,0,0,0,.753,1.157A4.329,4.329,0,0,0,232.867,155.543Zm-.269-8.313a1.821,1.821,0,0,0,1.348-.573,2.262,2.262,0,0,0,.562-1.652,2.223,2.223,0,0,0-.55-1.606,1.81,1.81,0,0,0-1.359-.573,1.864,1.864,0,0,0-1.37.562,2.19,2.19,0,0,0-.562,1.618,2.262,2.262,0,0,0,.562,1.652A1.845,1.845,0,0,0,232.6,147.231Z" transform="translate(-155.438 -135.974)" fill="#253d8f"/>
        <path id="Path_2059" data-name="Path 2059" d="M255.139,152.494a5.653,5.653,0,0,1-2.11-.389,5,5,0,0,1-1.711-1.122,5.112,5.112,0,0,1-1.144-1.788,6.6,6.6,0,0,1-.411-2.411,6.475,6.475,0,0,1,.422-2.4,5.5,5.5,0,0,1,1.122-1.8,4.963,4.963,0,0,1,1.611-1.133,4.6,4.6,0,0,1,1.866-.4,4.747,4.747,0,0,1,1.955.378,3.818,3.818,0,0,1,1.411,1.066A4.688,4.688,0,0,1,259,144.14a7.2,7.2,0,0,1,.289,2.089q0,.377-.033.711a4.9,4.9,0,0,1-.078.533h-6.932a3.519,3.519,0,0,0,1.033,2.255,3.1,3.1,0,0,0,2.188.789,4.022,4.022,0,0,0,1.322-.211l.012,0a1.555,1.555,0,0,1,1.9.7l.169.311a7.853,7.853,0,0,1-1.733.844A6.023,6.023,0,0,1,255.139,152.494Zm-2.91-6.754h4.843a3.233,3.233,0,0,0-.544-1.988,1.965,1.965,0,0,0-1.677-.722,2.422,2.422,0,0,0-1.711.689A3.265,3.265,0,0,0,252.229,145.74Z" transform="translate(-166.85 -135.974)" fill="#253d8f"/>
      </g>
      <path id="Path_2060" data-name="Path 2060" d="M46.258,113.024a7.382,7.382,0,0,0-7.374,7.373c0,.185.01.367.023.548a13.219,13.219,0,0,0-6.592,11.43v11.315a2.475,2.475,0,0,0,2.475-2.475v-3.179h10.8a2.476,2.476,0,0,0,2.475-2.475h-5.53a13.2,13.2,0,0,0,5.526-10.617c0-.042,0-.082,0-.124q0-.377-.022-.749c-.013-.218-.033-.433-.056-.648,0-.028,0-.056-.007-.085a13.508,13.508,0,0,0-.253-1.476c-.041-.178-.089-.355-.137-.53a4.9,4.9,0,0,1,4.207-5.792A7.356,7.356,0,0,0,46.258,113.024ZM35.266,135.55v-.006H34.79v-2.994h0c0-.058,0-.116,0-.175a10.771,10.771,0,0,1,6.966-10.051c.232-.087.467-.166.706-.237h0l.02-.005a10.618,10.618,0,0,1,1.087-.256,9.866,9.866,0,0,1,1.6-.222s.078.376.18.948a10.975,10.975,0,0,1,.181,1.107v0s0,0,0,.006a10.523,10.523,0,0,1,.064,1.152A10.752,10.752,0,0,1,35.266,135.55Zm9.862-16.378c-.37.012-.737.034-1.1.076a13.127,13.127,0,0,0-2.632.581,4.858,4.858,0,0,1,5.458-4.289A7.356,7.356,0,0,0,45.127,119.172Z" transform="translate(-32.315 -113.024)" fill="#ffcc02"/>
    </g>
  </g>
</svg>
