<svg xmlns="http://www.w3.org/2000/svg" width="61.262" height="61.193" viewBox="0 0 61.262 61.193">
  <g id="Group_2383" data-name="Group 2383" transform="translate(-243.4 -171.172)" opacity="0.07">
    <path id="Path_2606" data-name="Path 2606" d="M243.4,416.169a13.834,13.834,0,0,1,1.142-2.577,5.366,5.366,0,0,1,4.665-2.206q15.84,0,31.68,0a6.849,6.849,0,0,1,.893.06,5.428,5.428,0,0,1,4.882,5.117c.014.179.015.358.015.538,0,2.887,0,5.774,0,8.749H243.4Z" transform="translate(0 -204.247)" fill="#fff"/>
    <path id="Path_2607" data-name="Path 2607" d="M243.4,531.957h43.181c.6,3.547-1.136,6.441-4.529,7.079a1.971,1.971,0,0,0-.277.094H248.3a1.021,1.021,0,0,0-.216-.086,5.534,5.534,0,0,1-3.394-1.887,6.369,6.369,0,0,1-1.292-2.81Z" transform="translate(0 -306.765)" fill="#fff"/>
    <path id="Path_2609" data-name="Path 2609" d="M318.912,215.785l-3.861-1.748a8.981,8.981,0,1,0-17.425,0l-3.857,1.747a4.965,4.965,0,0,1-1.756-3.678c-.039-3.685-.066-7.371,0-11.055a5.287,5.287,0,0,1,5.392-5.323q8.934-.063,17.868,0a5.307,5.307,0,0,1,5.4,5.381c.05,3.625.026,7.251,0,10.876A5.124,5.124,0,0,1,318.912,215.785Z" transform="translate(-41.3 -20.852)" fill="#fff"/>
    <path id="Path_2610" data-name="Path 2610" d="M515.09,192.793c-1.534,0-3.068.006-4.6,0A1.819,1.819,0,0,1,508.714,190c.317-.664.632-1.33.985-1.975a.93.93,0,0,0-.016-.994,9.986,9.986,0,0,1-1.26-5.039,10.8,10.8,0,0,1,11.283-10.8,10.807,10.807,0,0,1-.552,21.6C517.8,192.809,516.445,192.793,515.09,192.793Zm5-8.966-.068-.163c.18-.157.37-.3.539-.472q1.693-1.686,3.376-3.381a1.762,1.762,0,0,0,.484-2.016,1.681,1.681,0,0,0-1.615-1.127c-2.429-.023-4.858-.029-7.287,0a1.755,1.755,0,0,0-1.712,1.794,1.782,1.782,0,0,0,1.745,1.767c.776.029,1.553.006,2.329.012.14,0,.279.029.525.056-1.355,1.346-2.624,2.611-3.9,3.871a1.818,1.818,0,0,0-.543,2.158,1.852,1.852,0,0,0,1.89,1.09c2.23-.01,4.46,0,6.69,0a1.8,1.8,0,1,0,.026-3.583C521.75,183.822,520.922,183.828,520.094,183.828Z" transform="translate(-225.338 0)" fill="#fff"/>
    <path id="Path_2611" data-name="Path 2611" d="M307.891,278.467c1.632,0,3.266-.041,4.9.008a8.957,8.957,0,0,1,8.277,6.686c.033.132.046.27.073.438H292.772a21.018,21.018,0,0,1,1.018-2.46,8.722,8.722,0,0,1,7.622-4.666c1.584-.067,3.173-.011,4.759-.038a5.416,5.416,0,0,1-4.48-5.87,5.357,5.357,0,0,1,10.681.159A5.543,5.543,0,0,1,307.891,278.467Z" transform="translate(-41.98 -82.076)" fill="#fff"/>
  </g>
</svg>
