<svg width="321" height="64" viewBox="0 0 321 64" fill="none" xmlns="http://www.w3.org/2000/svg">
<g clip-path="url(#clip0_1794_3481)">
<g opacity="0.3">
<path d="M69.525 32.1701L60.7764 -163.33H78.2736L69.525 32.1701Z" fill="#254CD0"/>
<path d="M69.5251 32.168L13.5339 -158.949L28.9631 -160.857L69.5251 32.168Z" fill="#254CD0"/>
<path d="M69.5249 32.1717L-31.959 -149.662L-17.3751 -153.43L69.5249 32.1717Z" fill="#254CD0"/>
<path d="M69.5251 32.1703L-75.7019 -134.314L-62.1862 -139.82L69.5251 32.1703Z" fill="#254CD0"/>
<path d="M69.525 32.1707L-114.196 -114.172L-102.258 -121.26L69.525 32.1707Z" fill="#254CD0"/>
<path d="M69.5252 32.1671L-147.44 -89.3121L-137.418 -97.7539L69.5252 32.1671Z" fill="#254CD0"/>
<path d="M69.5249 32.1702L-173.687 -60.9715L-165.9 -70.5293L69.5249 32.1702Z" fill="#254CD0"/>
<path d="M69.525 32.1682L-192.933 -29.2844L-187.605 -39.5977L69.525 32.1682Z" fill="#254CD0"/>
<path d="M69.5251 32.1692L-203.432 3.48521L-200.732 -7.42578L69.5251 32.1692Z" fill="#254CD0"/>
<path d="M69.525 32.1711L-206.931 38.3578V25.9844L69.525 32.1711Z" fill="#254CD0"/>
<path d="M69.5251 32.1699L-200.732 71.7649L-203.432 60.8539L69.5251 32.1699Z" fill="#254CD0"/>
<path d="M69.525 32.1699L-187.605 103.936L-192.933 93.6226L69.525 32.1699Z" fill="#254CD0"/>
<path d="M69.5249 32.1699L-165.9 134.869L-173.687 125.312L69.5249 32.1699Z" fill="#254CD0"/>
<path d="M69.5252 32.1699L-137.418 162.091L-147.44 153.649L69.5252 32.1699Z" fill="#254CD0"/>
<path d="M69.525 32.1699L-102.258 185.6L-114.196 178.513L69.525 32.1699Z" fill="#254CD0"/>
<path d="M69.5251 32.1699L-62.1862 204.161L-75.7019 198.654L69.5251 32.1699Z" fill="#254CD0"/>
<path d="M69.5249 32.1699L-17.3751 217.771L-31.959 214.003L69.5249 32.1699Z" fill="#254CD0"/>
<path d="M69.5251 32.1699L28.9631 225.195L13.5339 223.287L69.5251 32.1699Z" fill="#254CD0"/>
<path d="M69.525 32.1699L78.2736 227.67H60.7764L69.525 32.1699Z" fill="#254CD0"/>
<path d="M69.5249 32.1699L125.516 223.287L110.087 225.195L69.5249 32.1699Z" fill="#254CD0"/>
<path d="M69.5249 32.1699L171.009 214.003L156.425 217.771L69.5249 32.1699Z" fill="#254CD0"/>
<path d="M69.5249 32.1699L214.752 198.654L201.236 204.161L69.5249 32.1699Z" fill="#254CD0"/>
<path d="M69.5249 32.1699L253.246 178.513L241.308 185.6L69.5249 32.1699Z" fill="#254CD0"/>
<path d="M69.5249 32.1699L286.491 153.649L276.468 162.091L69.5249 32.1699Z" fill="#254CD0"/>
<path d="M69.5249 32.1699L312.736 125.312L304.95 134.869L69.5249 32.1699Z" fill="#254CD0"/>
<path d="M69.5249 32.1699L331.983 93.6226L326.655 103.936L69.5249 32.1699Z" fill="#254CD0"/>
<path d="M69.5249 32.1699L342.482 60.8539L339.782 71.7649L69.5249 32.1699Z" fill="#254CD0"/>
<path d="M69.5249 32.1711L345.981 25.9844V38.3578L69.5249 32.1711Z" fill="#254CD0"/>
<path d="M69.5249 32.1692L339.782 -7.42578L342.482 3.48521L69.5249 32.1692Z" fill="#254CD0"/>
<path d="M69.5249 32.1682L326.655 -39.5977L331.983 -29.2844L69.5249 32.1682Z" fill="#254CD0"/>
<path d="M69.5249 32.1702L304.95 -70.5293L312.736 -60.9715L69.5249 32.1702Z" fill="#254CD0"/>
<path d="M69.5249 32.1671L276.468 -97.7539L286.491 -89.3121L69.5249 32.1671Z" fill="#254CD0"/>
<path d="M69.5249 32.1707L241.308 -121.26L253.246 -114.172L69.5249 32.1707Z" fill="#254CD0"/>
<path d="M69.5249 32.1703L201.236 -139.82L214.752 -134.314L69.5249 32.1703Z" fill="#254CD0"/>
<path d="M69.5249 32.1717L156.425 -153.43L171.009 -149.662L69.5249 32.1717Z" fill="#254CD0"/>
<path d="M69.5249 32.168L110.087 -160.857L125.516 -158.949L69.5249 32.168Z" fill="#254CD0"/>
</g>
</g>
<defs>
<clipPath id="clip0_1794_3481">
<rect width="321" height="64" fill="white"/>
</clipPath>
</defs>
</svg>
