<svg width="39" height="39" viewBox="0 0 39 39" fill="none" xmlns="http://www.w3.org/2000/svg">
<path d="M11.375 34.125H27.625" stroke="white" stroke-width="2" stroke-linecap="round" stroke-linejoin="round"/>
<path d="M19.5 34.125C23.3788 34.125 27.0987 32.5842 29.8414 29.8414C32.5842 27.0987 34.125 23.3788 34.125 19.5H4.875C4.875 23.3788 6.41584 27.0987 9.15856 29.8414C11.9013 32.5842 15.6212 34.125 19.5 34.125Z" stroke="white" stroke-width="2" stroke-linecap="round" stroke-linejoin="round"/>
<path d="M18.4925 19.5001C17.5083 19.5093 16.5571 19.146 15.8296 18.4832C15.1021 17.8204 14.652 16.907 14.5698 15.9262C14.4876 14.9454 14.7792 13.9699 15.3861 13.1951C15.9931 12.4204 16.8706 11.9037 17.8425 11.7489C17.6869 11.0603 17.7211 10.3423 17.9416 9.6716C18.162 9.0009 18.5603 8.40261 19.0941 7.94055C19.6279 7.47849 20.2771 7.16999 20.9725 7.04796C21.6678 6.92593 22.3833 6.99494 23.0425 7.24763C23.3312 6.79322 23.7108 6.40349 24.1574 6.10298C24.6041 5.80247 25.1081 5.59768 25.6378 5.50152C26.1675 5.40535 26.7113 5.41989 27.2351 5.54421C27.7589 5.66853 28.2513 5.89994 28.6813 6.22388C29.4313 5.63437 30.3714 5.34022 31.3237 5.39707C32.276 5.45393 33.1744 5.85786 33.849 6.53242C34.5235 7.20699 34.9275 8.10541 34.9843 9.0577C35.0412 10.01 34.747 10.9501 34.1575 11.7001C34.5244 12.1875 34.7719 12.7542 34.88 13.3546C34.9881 13.955 34.9539 14.5724 34.7801 15.1572C34.6062 15.7419 34.2976 16.2778 33.879 16.7216C33.4605 17.1654 32.9436 17.5049 32.37 17.7126C32.5183 18.2975 32.5349 18.908 32.4188 19.5001" stroke="white" stroke-width="2" stroke-linecap="round" stroke-linejoin="round"/>
<path d="M21.125 19.5L27.625 13" stroke="white" stroke-width="2" stroke-linecap="round" stroke-linejoin="round"/>
<path d="M17.7126 11.7813C16.8213 10.8311 15.6644 10.1714 14.3927 9.88833C13.121 9.60523 11.7935 9.71179 10.5833 10.1941C9.37304 10.6765 8.33618 11.5122 7.60784 12.5924C6.87951 13.6726 6.49348 14.9472 6.50008 16.25C6.50008 17.4363 6.82508 18.5413 7.37758 19.5" stroke="white" stroke-width="2" stroke-linecap="round" stroke-linejoin="round"/>
</svg>
