<svg width="24" height="24" viewBox="0 0 24 24" fill="none" xmlns="http://www.w3.org/2000/svg">
<path d="M21.9186 12.3109C21.822 12.1134 21.822 11.8868 21.9186 11.6892L22.8137 9.85808C23.3121 8.8385 22.9172 7.62328 21.9147 7.09139L20.1143 6.13608C19.92 6.03305 19.7869 5.84968 19.7488 5.63316L19.3967 3.62557C19.2006 2.50779 18.1667 1.75667 17.0432 1.91562L15.0251 2.20109C14.8073 2.23184 14.5919 2.16181 14.4339 2.00895L12.969 0.591834C12.1533 -0.197255 10.8755 -0.197302 10.0599 0.591834L8.595 2.00909C8.43694 2.162 8.22155 2.23189 8.00377 2.20123L5.98567 1.91576C4.86185 1.75672 3.82826 2.50793 3.63218 3.62571L3.28006 5.63321C3.24204 5.84977 3.10887 6.0331 2.91467 6.13618L1.11421 7.09148C0.11175 7.62332 -0.283123 8.83865 0.215249 9.85822L1.11032 11.6893C1.20688 11.8869 1.20688 12.1135 1.11032 12.311L0.215202 14.1421C-0.28317 15.1617 0.111703 16.3769 1.11417 16.9088L2.91462 17.8641C3.10887 17.9672 3.24204 18.1505 3.28006 18.3671L3.63218 20.3747C3.81068 21.3922 4.68321 22.1058 5.686 22.1057C5.78476 22.1057 5.88498 22.0988 5.98571 22.0846L8.00381 21.7991C8.22145 21.7682 8.43698 21.8384 8.59504 21.9912L10.0599 23.4083C10.4678 23.8029 10.991 24.0002 11.5144 24.0001C12.0377 24.0001 12.5613 23.8028 12.969 23.4083L14.4339 21.9912C14.592 21.8384 14.8074 21.7685 15.0251 21.7991L17.0432 22.0846C18.1672 22.2436 19.2006 21.4924 19.3967 20.3746L19.7489 18.3671C19.7869 18.1505 19.9201 17.9672 20.1143 17.8641L21.9147 16.9088C22.9172 16.377 23.3121 15.1617 22.8137 14.1421L21.9186 12.3109ZM8.74598 5.77112C10.1453 5.77112 11.2837 6.90956 11.2837 8.30887C11.2837 9.70817 10.1453 10.8466 8.74598 10.8466C7.34668 10.8466 6.20823 9.70817 6.20823 8.30887C6.20823 6.90956 7.34668 5.77112 8.74598 5.77112ZM7.43611 17.0571C7.30097 17.1923 7.12383 17.2599 6.94674 17.2599C6.76965 17.2599 6.59246 17.1923 6.45737 17.0571C6.18709 16.7869 6.18709 16.3486 6.45737 16.0784L15.5927 6.94299C15.863 6.67271 16.3012 6.67271 16.5715 6.94299C16.8418 7.21326 16.8418 7.6515 16.5715 7.92178L7.43611 17.0571ZM14.2828 18.2291C12.8835 18.2291 11.7451 17.0907 11.7451 15.6914C11.7451 14.2921 12.8835 13.1536 14.2828 13.1536C15.6821 13.1536 16.8206 14.2921 16.8206 15.6914C16.8206 17.0907 15.6821 18.2291 14.2828 18.2291Z" fill="#008236"/>
</svg>
