<svg xmlns="http://www.w3.org/2000/svg" width="31" height="32.308" viewBox="0 0 31 32.308">
  <g id="discount" transform="translate(-10.359 0.002)">
    <g id="Group_3384" data-name="Group 3384" transform="translate(10.359 -0.002)">
      <g id="Group_3383" data-name="Group 3383" transform="translate(0)">
        <path id="Path_3490" data-name="Path 3490" d="M39.865,16.571a.947.947,0,0,1,0-.837l1.2-2.465a2.8,2.8,0,0,0-1.21-3.724L37.436,8.258a.947.947,0,0,1-.492-.677l-.474-2.7a2.8,2.8,0,0,0-3.168-2.3l-2.717.384a.947.947,0,0,1-.8-.259L27.817.795a2.8,2.8,0,0,0-3.916,0L21.929,2.7a.947.947,0,0,1-.8.259l-2.717-.384a2.8,2.8,0,0,0-3.168,2.3l-.474,2.7a.947.947,0,0,1-.492.677L11.859,9.544a2.8,2.8,0,0,0-1.21,3.724l1.2,2.465a.947.947,0,0,1,0,.837l-1.2,2.465a2.8,2.8,0,0,0,1.21,3.724l2.424,1.286a.947.947,0,0,1,.492.677l.474,2.7a2.8,2.8,0,0,0,2.765,2.33,2.881,2.881,0,0,0,.4-.029l2.717-.384a.947.947,0,0,1,.8.259L23.9,31.509a2.8,2.8,0,0,0,3.916,0L29.789,29.6a.948.948,0,0,1,.8-.259l2.717.384a2.8,2.8,0,0,0,3.168-2.3l.474-2.7a.947.947,0,0,1,.492-.677L39.86,22.76a2.8,2.8,0,0,0,1.21-3.724Zm-.879,4.543L36.562,22.4a2.8,2.8,0,0,0-1.454,2l-.474,2.7a.949.949,0,0,1-1.072.779L30.846,27.5a2.8,2.8,0,0,0-2.352.764L26.522,30.17a.949.949,0,0,1-1.325,0l-1.972-1.908a2.8,2.8,0,0,0-1.951-.793,2.86,2.86,0,0,0-.4.028l-2.717.384a.949.949,0,0,1-1.072-.779l-.474-2.7a2.8,2.8,0,0,0-1.454-2l-2.424-1.286a.949.949,0,0,1-.409-1.26l1.2-2.465a2.8,2.8,0,0,0,0-2.473l-1.2-2.465a.949.949,0,0,1,.409-1.26L15.156,9.9a2.8,2.8,0,0,0,1.454-2l.474-2.7a.949.949,0,0,1,1.072-.779l2.717.384a2.8,2.8,0,0,0,2.352-.764L25.2,2.134a.949.949,0,0,1,1.325,0l1.972,1.908a2.8,2.8,0,0,0,2.352.764l2.717-.384a.949.949,0,0,1,1.072.779l.474,2.7a2.8,2.8,0,0,0,1.454,2l2.424,1.286a.949.949,0,0,1,.409,1.26l-1.2,2.465a2.8,2.8,0,0,0,0,2.473l1.2,2.465A.949.949,0,0,1,38.986,21.114Z" transform="translate(-10.359 0.002)" fill=""/>
      </g>
    </g>
    <g id="Group_3386" data-name="Group 3386" transform="translate(18.779 9.072)">
      <g id="Group_3385" data-name="Group 3385" transform="translate(0)">
        <path id="Path_3491" data-name="Path 3491" d="M157.68,144.064a.932.932,0,0,0-1.318,0l-12.3,12.3a.932.932,0,1,0,1.318,1.318l12.3-12.3A.932.932,0,0,0,157.68,144.064Z" transform="translate(-143.792 -143.792)" fill=""/>
      </g>
    </g>
    <g id="Group_3388" data-name="Group 3388" transform="translate(18.716 7.767)">
      <g id="Group_3387" data-name="Group 3387">
        <path id="Path_3492" data-name="Path 3492" d="M146.218,123.116a3.416,3.416,0,1,0,3.416,3.416A3.42,3.42,0,0,0,146.218,123.116Zm0,4.969a1.553,1.553,0,1,1,1.553-1.553A1.555,1.555,0,0,1,146.218,128.085Z" transform="translate(-142.802 -123.116)" fill=""/>
      </g>
    </g>
    <g id="Group_3390" data-name="Group 3390" transform="translate(26.17 17.705)">
      <g id="Group_3389" data-name="Group 3389">
        <path id="Path_3493" data-name="Path 3493" d="M264.338,280.61a3.416,3.416,0,1,0,3.416,3.416A3.42,3.42,0,0,0,264.338,280.61Zm0,4.969a1.553,1.553,0,1,1,1.553-1.553A1.555,1.555,0,0,1,264.338,285.579Z" transform="translate(-260.922 -280.61)" fill=""/>
      </g>
    </g>
  </g>
</svg>
