<svg xmlns="http://www.w3.org/2000/svg" width="33" height="33" viewBox="0 0 33 33">
  <g id="Icon" transform="translate(-2 -2)">
    <path id="Path_3496" data-name="Path 3496" d="M35,16.85v3.3a1.652,1.652,0,0,1-1.65,1.65H31A12.783,12.783,0,0,1,29.671,25l1.665,1.67a1.653,1.653,0,0,1,0,2.328L29,31.335a1.685,1.685,0,0,1-2.329,0L25,29.671A12.783,12.783,0,0,1,21.8,31V33.35A1.652,1.652,0,0,1,20.15,35h-3.3a1.652,1.652,0,0,1-1.65-1.65V31a12.957,12.957,0,0,1-1.99-.7.554.554,0,0,1-.165-.89l2.337-2.343a.551.551,0,0,1,.547-.138,8.951,8.951,0,0,0,2.57.378,8.8,8.8,0,1,0-8.8-8.8,8.939,8.939,0,0,0,.378,2.565.549.549,0,0,1-.138.547L7.6,23.954a.553.553,0,0,1-.891-.164A13,13,0,0,1,6,21.8H3.65A1.652,1.652,0,0,1,2,20.15v-3.3A1.652,1.652,0,0,1,3.65,15.2H6A12.789,12.789,0,0,1,7.329,12L5.664,10.33A1.653,1.653,0,0,1,5.665,8L8,5.665a1.685,1.685,0,0,1,2.329,0L12,7.329A12.783,12.783,0,0,1,15.2,6V3.65A1.652,1.652,0,0,1,16.85,2h3.3A1.652,1.652,0,0,1,21.8,3.65V6A12.783,12.783,0,0,1,25,7.329l1.67-1.665a1.685,1.685,0,0,1,2.328,0L31.335,8a1.653,1.653,0,0,1,0,2.329L29.671,12A12.789,12.789,0,0,1,31,15.2H33.35A1.652,1.652,0,0,1,35,16.85ZM24.765,15.693a.554.554,0,0,0-.91-.214l-2.5,2.5L19.6,17.4l-.583-1.75,2.5-2.5a.554.554,0,0,0-.214-.91,5.492,5.492,0,0,0-7.06,6.629L2.854,30.257a2.75,2.75,0,0,0,3.889,3.889L18.136,22.753a5.492,5.492,0,0,0,6.629-7.06Z" transform="translate(0 0)" fill="#253d8f"/>
  </g>
</svg>
