<svg xmlns="http://www.w3.org/2000/svg" width="30.699" height="33.474" viewBox="0 0 30.699 33.474">
  <path id="Path_2303" data-name="Path 2303" d="M2866.3-23h14.71a.264.264,0,0,0,.057.031,2.827,2.827,0,0,1,2.362,3.061V-1.7c0,.12-.006.24,0,.359a.675.675,0,0,0,.656.645c.217.014.436.006.653.007A4.2,4.2,0,0,1,2889,3.551c0,.436-.007.872,0,1.307a1.4,1.4,0,1,0,2.791-.044q0-6.488,0-12.977a.875.875,0,0,0-.715-.985,2.831,2.831,0,0,1-2.08-2.9c0-1.057-.009-2.114,0-3.171a1.5,1.5,0,0,0-.66-1.31c-.5-.366-1-.733-1.488-1.12a1.922,1.922,0,0,1-.474-.528,1.385,1.385,0,0,1,.291-1.673,1.387,1.387,0,0,1,1.775-.078c1.436,1.063,2.855,2.147,4.293,3.207a4.357,4.357,0,0,1,1.853,3.731q-.013,8.825-.005,17.651a6.752,6.752,0,0,1-.036.685,4.168,4.168,0,0,1-8.243.327,15.967,15.967,0,0,1-.088-2.117,1.389,1.389,0,0,0-1.466-1.452c-.153,0-.305,0-.458,0-.626,0-.871.245-.871.87q0,2.958,0,5.916a1.416,1.416,0,0,1-1.567,1.581h-6.7q-4.887,0-9.773,0A1.363,1.363,0,0,1,2864,9.548a2.465,2.465,0,0,1-.094-.739q-.007-14.366,0-28.732c0-.109,0-.218,0-.327a2.781,2.781,0,0,1,1.694-2.513A6.272,6.272,0,0,1,2866.3-23Zm5.558,18.123v0c.337,0,.675-.007,1.013,0a.585.585,0,0,1,.633.79c-.317,1.611-.645,3.22-.959,4.831a1.137,1.137,0,0,0,1.1,1.355,1.84,1.84,0,0,0,1.806-1.379q1-3.478,1.986-6.961a1.041,1.041,0,0,0-1.05-1.415c-.6-.008-1.2,0-1.8,0-.677,0-.88-.257-.745-.923q.466-2.3.925-4.6a1.161,1.161,0,0,0-1.385-1.43,1.749,1.749,0,0,0-1.476,1.27q-1.042,3.568-2.044,7.147a1.024,1.024,0,0,0,.979,1.314C2871.185-4.865,2871.523-4.877,2871.861-4.877Z" transform="translate(-2863.899 23)" fill="#253d8f"/>
</svg>
