<svg xmlns="http://www.w3.org/2000/svg" width="8.379" height="11.183" viewBox="0 0 8.379 11.183">
  <path id="Path_2602" data-name="Path 2602" d="M743.423,151h.567c.2.031.4.051.6.1a4.243,4.243,0,0,1,3.227,4.963,7.61,7.61,0,0,1-.834,2.237,15.384,15.384,0,0,1-2.916,3.678,3,3,0,0,1-.274.209h-.174a2.571,2.571,0,0,1-.241-.18,16.473,16.473,0,0,1-2.233-2.561,9.566,9.566,0,0,1-1.4-2.748,4.426,4.426,0,0,1,.083-3.056,4.117,4.117,0,0,1,2.876-2.511C742.941,151.066,743.184,151.042,743.423,151Zm2.608,4.125a2.326,2.326,0,1,0-2.262,2.4A2.334,2.334,0,0,0,746.031,155.125Z" transform="translate(-739.517 -151)" fill=""/>
</svg>
