<svg xmlns="http://www.w3.org/2000/svg" width="33.454" height="33.484" viewBox="0 0 33.454 33.484">
  <g id="Layer_x0020_1" transform="translate(0 0.89)">
    <g id="_623095544" transform="translate(0 -0.89)">
      <path id="Path_3488" data-name="Path 3488" d="M45.546,10249.831H24.831a.646.646,0,0,1-.219-.056L17.2,10245.5a2.446,2.446,0,0,1-1.118-1.473,2.39,2.39,0,0,1,.245-1.826,2.306,2.306,0,0,1,1.444-1.117,2.374,2.374,0,0,1,1.828.244l6.4,3.707H45.546a2.42,2.42,0,0,1,2.4,2.4A2.457,2.457,0,0,1,45.546,10249.831Z" transform="translate(-15.97 -10222.015)" fill="#253d8f" fill-rule="evenodd"/>
      <path id="Path_3489" data-name="Path 3489" d="M3602.623,15483.789h-2.208a.426.426,0,0,1-.354-.217.373.373,0,0,1,0-.409l2.394-4.163h3.173l-2.651,4.572A.423.423,0,0,1,3602.623,15483.789Z" transform="translate(-3593.327 -15450.305)" fill="#253d8f" fill-rule="evenodd"/>
      <path id="Path_3490" data-name="Path 3490" d="M14992.229,15342.053h-2.207a.464.464,0,0,1-.355-.191l-2.666-4.6,2.232-.031a3.164,3.164,0,0,0,.826-.231l2.551,4.4a.369.369,0,0,1,0,.41A.462.462,0,0,1,14992.229,15342.053Z" transform="translate(-14959.218 -15308.568)" fill="#253d8f" fill-rule="evenodd"/>
      <path id="Path_3491" data-name="Path 3491" d="M10553.854,4347.034l-6.879-13.513a.408.408,0,1,1,.735-.354l7.062,13.868Z" transform="translate(-10531.37 -4324.894)" fill="#253d8f" fill-rule="evenodd"/>
      <path id="Path_3492" data-name="Path 3492" transform="translate(0 0.002)" fill="#253d8f" fill-rule="evenodd"/>
      <path id="Path_3493" data-name="Path 3493" d="M5918.492,13.188a.39.39,0,0,1-.354-.219,9.572,9.572,0,0,1,2.419-11.66c-.563,2.519.892,6.444,2.019,8.785a5.913,5.913,0,0,0-1.632.586c-1.525.764-2.1,1.691-1.989,1.907a.4.4,0,0,1-.191.547A1.708,1.708,0,0,1,5918.492,13.188Zm5.854-13.8a9.45,9.45,0,0,1,5.239.2,9.551,9.551,0,0,1,5.533,4.714v.028a.408.408,0,1,1-.736.354c-.026-.026-.082-.082-.135-.082a4,4,0,0,0-2.562.573,5.973,5.973,0,0,0-1.456,1.01C5928.966,3.931,5926.682.427,5924.346-.613Z" transform="translate(-5910.137 0.89)" fill="#253d8f" fill-rule="evenodd"/>
      <path id="Path_3494" data-name="Path 3494" transform="translate(0 0.002)" fill="#253d8f" fill-rule="evenodd"/>
      <path id="Path_3495" data-name="Path 3495" d="M8186.381,473.822a.39.39,0,0,1-.354-.219v-.026c-1.828-3.6-2.671-7.2-2.1-8.94a1.846,1.846,0,0,1,.845-1.09,1.786,1.786,0,0,1,1.363-.056c1.771.6,4.143,3.326,6.024,7.005a.393.393,0,0,1-.191.545.4.4,0,0,1-.545-.163c-.137-.245-1.253-.272-2.7.463a3.907,3.907,0,0,0-1.962,1.717c-.027.083-.027.137,0,.165a.407.407,0,0,1-.165.545A.412.412,0,0,1,8186.381,473.822Z" transform="translate(-8172.574 -462.523)" fill="#253d8f" fill-rule="evenodd"/>
    </g>
  </g>
</svg>
