<svg xmlns="http://www.w3.org/2000/svg" width="35.567" height="35.526" viewBox="0 0 35.567 35.526">
  <g id="Group_2236" data-name="Group 2236" transform="translate(-243.4 -171.172)">
    <path id="Path_2606" data-name="Path 2606" d="M243.4,414.163a8.032,8.032,0,0,1,.663-1.5,3.115,3.115,0,0,1,2.708-1.281q9.2,0,18.392,0a3.98,3.98,0,0,1,.518.035,3.151,3.151,0,0,1,2.834,2.971c.008.1.009.208.009.312,0,1.676,0,3.352,0,5.079H243.4Z" transform="translate(0 -219.333)" fill="#253d8f"/>
    <path id="Path_2607" data-name="Path 2607" d="M243.4,531.957h25.069a3.308,3.308,0,0,1-2.629,4.11,1.152,1.152,0,0,0-.161.055H246.246a.592.592,0,0,0-.125-.05,3.213,3.213,0,0,1-1.97-1.1,3.7,3.7,0,0,1-.75-1.631Z" transform="translate(0 -329.423)" fill="#253d8f"/>
    <path id="Path_2609" data-name="Path 2609" d="M307.613,207.359l-2.241-1.015a5.214,5.214,0,1,0-10.116,0l-2.24,1.014A2.883,2.883,0,0,1,292,205.223c-.023-2.139-.038-4.28,0-6.418a3.069,3.069,0,0,1,3.13-3.09q5.187-.036,10.374,0a3.081,3.081,0,0,1,3.134,3.124c.029,2.1.015,4.21,0,6.314A2.974,2.974,0,0,1,307.613,207.359Z" transform="translate(-44.351 -22.392)" fill="#253d8f"/>
    <path id="Path_2610" data-name="Path 2610" d="M512.292,183.724c-.891,0-1.781,0-2.672,0a1.056,1.056,0,0,1-1.03-1.622c.184-.386.367-.772.572-1.147a.54.54,0,0,0-.009-.577,5.8,5.8,0,0,1-.732-2.925,6.272,6.272,0,0,1,6.551-6.269,6.274,6.274,0,0,1-.321,12.539C513.865,183.734,513.078,183.724,512.292,183.724Zm2.9-5.205-.039-.094c.1-.091.215-.177.313-.274q.983-.979,1.96-1.963a1.023,1.023,0,0,0,.281-1.17.976.976,0,0,0-.937-.654c-1.41-.013-2.82-.017-4.231,0a1.019,1.019,0,0,0-.994,1.042,1.035,1.035,0,0,0,1.013,1.026c.45.017.9,0,1.352.007.081,0,.162.017.3.033-.786.781-1.523,1.516-2.262,2.247a1.055,1.055,0,0,0-.315,1.253,1.075,1.075,0,0,0,1.1.633c1.295-.006,2.589,0,3.884,0a1.046,1.046,0,1,0,.015-2.08C516.158,178.516,515.678,178.519,515.2,178.519Z" transform="translate(-241.981 0)" fill="#253d8f"/>
    <path id="Path_2611" data-name="Path 2611" d="M301.549,273.951c.948,0,1.9-.024,2.843,0a5.2,5.2,0,0,1,4.805,3.882c.019.077.026.157.042.254H292.772a12.2,12.2,0,0,1,.591-1.428,5.064,5.064,0,0,1,4.425-2.709c.92-.039,1.842-.007,2.763-.022a3.144,3.144,0,0,1-2.6-3.408,3.11,3.11,0,0,1,6.2.092A3.218,3.218,0,0,1,301.549,273.951Z" transform="translate(-45.08 -88.138)" fill="#253d8f"/>
  </g>
</svg>
