<svg xmlns="http://www.w3.org/2000/svg" width="51.162" height="16.688" viewBox="0 0 51.162 16.688">
  <g id="icon_1" data-name="icon 1" transform="translate(-75.66 -306)">
    <path id="Path_3498" data-name="Path 3498" d="M79.561,312.019H78.207v5.335a2.707,2.707,0,0,0,2.681,2.733,1.233,1.233,0,0,1,1.222,1.244v1.353H80.889a5.279,5.279,0,0,1-5.229-5.33V306a2.574,2.574,0,0,1,2.549,2.6v.826h3.9a2.574,2.574,0,0,1-2.55,2.6" fill="#253d8f"/>
    <path id="Path_3499" data-name="Path 3499" d="M447.57,306h0a2.574,2.574,0,0,1,2.549,2.6v14.09H447.57Z" transform="translate(-351.441)" fill="#253d8f"/>
    <path id="Path_3500" data-name="Path 3500" d="M776.094,373.53a6.484,6.484,0,1,0,6.484,6.484,6.484,6.484,0,0,0-6.484-6.484m4.147,5.878a4.888,4.888,0,0,1-1.269,2.76,8.154,8.154,0,0,1-2.635,2.069.575.575,0,0,1-.451.02,8.062,8.062,0,0,1-3.2-2.794,4.039,4.039,0,0,1-.75-2.257,2.351,2.351,0,0,1,2.509-2.54,4.832,4.832,0,0,1,1.365.453.5.5,0,0,0,.542,0,2.751,2.751,0,0,1,1.929-.447,2.489,2.489,0,0,1,1.957,2.734" transform="translate(-655.756 -63.813)" fill="#253d8f"/>
    <path id="Path_3501" data-name="Path 3501" d="M199.344,373.53a6.484,6.484,0,1,0,6.484,6.484,6.484,6.484,0,0,0-6.484-6.484m.032,10.388a3.872,3.872,0,1,1,3.872-3.872,3.872,3.872,0,0,1-3.872,3.872" transform="translate(-110.75 -63.813)" fill="#253d8f"/>
    <path id="Path_3502" data-name="Path 3502" d="M519.394,373.53a6.484,6.484,0,1,0,6.484,6.484,6.484,6.484,0,0,0-6.484-6.484m.032,10.388a3.872,3.872,0,1,1,3.872-3.872,3.872,3.872,0,0,1-3.872,3.872" transform="translate(-413.184 -63.813)" fill="#253d8f"/>
  </g>
</svg>
