<svg xmlns="http://www.w3.org/2000/svg" width="21.449" height="25.708" viewBox="0 0 21.449 25.708">
  <g id="user_1_" data-name="user (1)" transform="translate(0 0)">
    <path id="Path_3480" data-name="Path 3480" d="M93.224,12.384A5.991,5.991,0,0,0,97.6,10.57a5.991,5.991,0,0,0,1.814-4.378A5.992,5.992,0,0,0,97.6,1.814a6.191,6.191,0,0,0-8.756,0,5.991,5.991,0,0,0-1.814,4.378,5.991,5.991,0,0,0,1.814,4.378A5.993,5.993,0,0,0,93.224,12.384Zm0,0" transform="translate(-82.662 0)" fill="#00205b"/>
    <path id="Path_3481" data-name="Path 3481" d="M21.4,254.666a15.294,15.294,0,0,0-.208-1.624,12.8,12.8,0,0,0-.4-1.633,8.067,8.067,0,0,0-.671-1.523,5.748,5.748,0,0,0-1.012-1.319,4.464,4.464,0,0,0-1.454-.914,5.026,5.026,0,0,0-1.857-.336,1.885,1.885,0,0,0-1.006.427c-.3.2-.655.424-1.048.676a6.007,6.007,0,0,1-1.357.6,5.268,5.268,0,0,1-3.318,0,5.994,5.994,0,0,1-1.356-.6c-.39-.249-.743-.477-1.049-.676a1.882,1.882,0,0,0-1.006-.427,5.02,5.02,0,0,0-1.856.336,4.461,4.461,0,0,0-1.455.914,5.749,5.749,0,0,0-1.012,1.319,8.082,8.082,0,0,0-.671,1.523,12.827,12.827,0,0,0-.4,1.633,15.239,15.239,0,0,0-.208,1.625c-.034.492-.051,1-.051,1.518a4.269,4.269,0,0,0,1.268,3.23,4.564,4.564,0,0,0,3.267,1.192H16.914a4.563,4.563,0,0,0,3.267-1.192,4.267,4.267,0,0,0,1.268-3.23c0-.518-.018-1.029-.052-1.518Zm0,0" transform="translate(0 -234.898)" fill="#00205b"/>
  </g>
</svg>
