<svg width="39" height="39" viewBox="0 0 39 39" fill="none" xmlns="http://www.w3.org/2000/svg">
<path d="M39 5.85C39 2.62412 36.3759 0 33.15 0C29.9241 0 27.3 2.62412 27.3 5.85C27.3 9.07588 29.9241 11.7 33.15 11.7C36.3759 11.7 39 9.07588 39 5.85ZM33.15 11.7C29.9241 11.7 27.3 14.3241 27.3 17.55V37.05C27.3 38.1269 28.1722 39 29.25 39C30.3278 39 31.2 38.1269 31.2 37.05V29.25H35.1V37.05C35.1 38.1269 35.9722 39 37.05 39C38.1278 39 39 38.1269 39 37.05V17.55C39 14.3241 36.3759 11.7 33.15 11.7ZM15.6 33.15C15.6 36.3759 12.9759 39 9.75 39H5.85C2.62412 39 0 36.3759 0 33.15V5.85C0 2.62412 2.62412 0 5.85 0H9.75C12.9759 0 15.6 2.62412 15.6 5.85C15.6 6.92688 14.7269 7.8 13.65 7.8C12.5731 7.8 11.7 6.92688 11.7 5.85C11.7 4.77502 10.825 3.9 9.75 3.9H5.85C4.77502 3.9 3.9 4.77502 3.9 5.85V33.15C3.9 34.225 4.77502 35.1 5.85 35.1H9.75C10.825 35.1 11.7 34.225 11.7 33.15C11.7 32.0731 12.5731 31.2 13.65 31.2C14.7269 31.2 15.6 32.0731 15.6 33.15ZM24.2093 16.7426C25.7309 18.2632 25.7309 20.7368 24.2093 22.2574L19.739 26.7287C19.3581 27.1096 18.8592 27.3 18.3603 27.3C17.8614 27.3 17.3624 27.1096 16.9816 26.7287C16.2198 25.9679 16.2198 24.733 16.9816 23.9713L19.5019 21.45H11.7C10.6231 21.45 9.75 20.5769 9.75 19.5C9.75 18.4231 10.6231 17.55 11.7 17.55H19.5019L16.9816 15.0287C16.2198 14.267 16.2198 13.0321 16.9816 12.2713C17.7433 11.5096 18.9773 11.5096 19.739 12.2713L24.2093 16.7426Z" fill="#253D8F"/>
</svg>
