<svg width="86" height="86" viewBox="0 0 86 86" fill="none" xmlns="http://www.w3.org/2000/svg">
<circle cx="42.5665" cy="42.5665" r="39.5665" stroke="#253D8F" stroke-width="6"/>
<circle cx="42.5665" cy="42.5665" r="39.5665" fill="white" stroke="#8F2525" stroke-width="6"/>
<path d="M31.3781 27.8927C28.5769 27.8927 26.312 25.6278 26.2524 22.8266C26.2524 20.0254 28.5173 17.7009 31.3185 17.7009C34.1198 17.7009 36.3846 19.9658 36.4442 22.767C36.4442 25.5682 34.1794 27.8927 31.3781 27.8927Z" fill="#253D8F"/>
<path d="M41.3314 34.866C40.6162 31.6475 38.411 29.3827 35.0733 29.4423H27.6232C24.2856 29.4423 21.5439 32.0052 21.2459 35.2832L20.2327 47.263C20.1731 48.2762 20.9479 49.2298 21.9611 49.2894H22.2591C23.2128 49.1702 23.928 48.3954 23.9876 47.4418L24.8816 36.2964C24.9412 35.9984 25.0008 35.3428 25.5968 35.3428C25.7756 35.3428 26.0736 35.4024 26.0736 36.1176V66.4545C26.0736 67.7061 27.0868 68.7193 28.3384 68.7193C29.5901 68.7193 30.6033 67.7061 30.6033 66.4545V49.349C31.0801 49.2894 31.5569 49.2894 32.0933 49.349V66.4545C32.0933 67.7061 33.1065 68.7193 34.3581 68.7193C35.6097 68.7193 36.623 67.7061 36.623 66.4545V36.1176C36.623 35.4024 36.921 35.3428 37.0998 35.3428C37.6362 35.3428 37.7554 36.1176 37.815 36.4156L40.2586 47.3226C40.4374 48.2762 41.2718 48.9318 42.2255 48.8722C43.2387 48.8126 44.0731 47.9186 44.0135 46.9054C44.0135 46.7862 44.0135 46.7266 43.9539 46.6074L41.3314 34.866Z" fill="#253D8F"/>
<path d="M52.8942 28.6078C50.093 28.6078 47.8282 26.3429 47.7686 23.5417C47.7686 20.7405 50.0334 18.416 52.8346 18.416C55.6359 18.416 57.9007 20.6809 57.9603 23.4821C58.0199 26.2833 55.6955 28.5482 52.8942 28.6078Z" fill="#253D8F"/>
<path d="M45.2056 54.6532C45.0268 54.6532 44.848 54.5936 44.7288 54.4148C44.6096 54.236 44.55 53.9976 44.6096 53.8188C45.146 51.3752 46.2784 46.3091 47.232 42.2562C47.828 39.8126 48.3048 37.7266 48.4836 36.773C48.5432 36.475 48.3644 36.1174 48.0664 35.9981H48.0068H47.8876C47.5896 35.9981 47.3512 36.177 47.2916 36.475L46.8744 38.0246L44.0136 47.5011C43.7752 48.2759 43.06 48.8719 42.2256 48.8719C41.9871 48.8719 41.8083 48.8123 41.5699 48.7527C40.6759 48.3951 40.1991 47.4415 40.4375 46.5475C41.0335 44.2827 41.8083 41.9582 42.5236 39.6338C43.1196 37.8458 43.656 36.1173 44.1328 34.5677C44.7884 31.9453 47.1128 30.0977 49.8545 30.0977H55.9934C58.6754 30.0977 61.0594 31.9453 61.715 34.5081C62.1322 35.8193 62.5495 37.2498 63.0263 38.6802C63.8607 41.243 64.6951 43.9251 65.4103 46.4879C65.6487 47.4415 65.1719 48.3951 64.2779 48.6931C64.0991 48.7527 63.8607 48.8123 63.6223 48.8123C62.7879 48.8123 62.0727 48.2759 61.8342 47.4415L58.9734 37.965L58.5562 36.4154C58.4966 36.1173 58.2582 35.9385 57.9602 35.9385H57.9006H57.7814C57.4834 36.0577 57.245 36.3558 57.3642 36.7134C57.6026 37.667 58.0794 39.753 58.6158 42.1966C59.5694 46.2495 60.7614 51.3156 61.2382 53.7592C61.2978 53.938 61.2382 54.1764 61.119 54.3552C60.9998 54.4744 60.821 54.5936 60.6422 54.5936L45.2056 54.6532Z" fill="#253D8F"/>
<path d="M49.8544 68.7193C48.6028 68.7193 47.5896 67.7061 47.5896 66.4545V53.3423H52.1193V66.4545C52.1789 67.7061 51.1657 68.7193 49.8544 68.7193Z" fill="#253D8F"/>
<path d="M55.874 68.7193C54.6223 68.7193 53.6091 67.7061 53.6091 66.4545V53.3423H58.1388V66.4545C58.1388 67.7061 57.1256 68.7193 55.874 68.7193Z" fill="#253D8F"/>
<line x1="15.6076" y1="13.8938" x2="71.2391" y2="69.5252" stroke="#8F2525" stroke-width="6"/>
</svg>
