<svg width="39" height="39" viewBox="0 0 39 39" fill="none" xmlns="http://www.w3.org/2000/svg">
<g clip-path="url(#clip0_303_616)">
<path d="M34.5312 4.875H4.46885C2.00368 4.875 0 6.87868 0 9.34385V29.6562C0 32.1213 2.00368 34.125 4.46885 34.125H34.5312C36.9963 34.125 39 32.1213 39 29.6562V9.34385C39 6.87868 36.9963 4.875 34.5312 4.875ZM12.1875 11.3749C14.4268 11.3749 16.2499 13.1983 16.2499 15.4376C16.2499 17.6766 14.4268 19.5 12.1875 19.5C9.94817 19.5 8.1251 17.6766 8.1251 15.4376C8.1251 13.1983 9.94817 11.3749 12.1875 11.3749ZM19.5 26.4063C19.5 27.0791 18.954 27.6251 18.2812 27.6251H6.09375C5.421 27.6251 4.875 27.0791 4.875 26.4063V25.5938C4.875 23.1286 6.87868 21.1249 9.34385 21.1249H15.0312C17.4963 21.1249 19.5 23.1286 19.5 25.5938V26.4063ZM32.9062 27.6251H23.9688C23.2961 27.6251 22.7501 27.0791 22.7501 26.4063C22.7501 25.7336 23.2961 25.1876 23.9688 25.1876H32.9062C33.579 25.1876 34.125 25.7336 34.125 26.4063C34.125 27.0791 33.579 27.6251 32.9062 27.6251ZM32.9062 21.1249H23.9688C23.2961 21.1249 22.7501 20.5789 22.7501 19.9062C22.7501 19.2334 23.2961 18.6874 23.9688 18.6874H32.9062C33.579 18.6874 34.125 19.2334 34.125 19.9062C34.125 20.5789 33.579 21.1249 32.9062 21.1249ZM32.9062 14.625H23.9688C23.2961 14.625 22.7501 14.079 22.7501 13.4062C22.7501 12.7335 23.2961 12.1875 23.9688 12.1875H32.9062C33.579 12.1875 34.125 12.7335 34.125 13.4062C34.125 14.079 33.579 14.625 32.9062 14.625Z" fill="#253D8F"/>
</g>
<defs>
<clipPath id="clip0_303_616">
<rect width="39" height="39" fill="white"/>
</clipPath>
</defs>
</svg>
