<svg xmlns="http://www.w3.org/2000/svg" width="162.971" height="44" viewBox="0 0 162.971 44">
  <g id="tra302x2302-01" transform="translate(-32.28 -113)">
    <path id="Path_1" data-name="Path 1" d="M83.75,154.373a5.78,5.78,0,0,1-2.341-.419,4.029,4.029,0,0,1-1.544-1.174,4.97,4.97,0,0,1-.872-1.805,9.163,9.163,0,0,1-.275-2.341v-9.116H76.46v-2.931h2.382V130.41h0a3.617,3.617,0,0,1,3.617,3.617v2.54h4.029a2.931,2.931,0,0,1-2.931,2.931h-1.1v9.164q0,2.746,2.224,2.746a4.043,4.043,0,0,0,.851-.1,13.614,13.614,0,0,0,1.435-.281v1.332a1.867,1.867,0,0,1-1.448,1.833h0A8.471,8.471,0,0,1,83.75,154.373Z" transform="translate(-13.854 -5.459)" fill="#fff"/>
    <path id="Path_2" data-name="Path 2" d="M93.79,157.764V141.756h.638a2.746,2.746,0,0,1,2.746,2.828h.13a6.72,6.72,0,0,1,2.059-2.4,4.311,4.311,0,0,1,2.478-.831,4.249,4.249,0,0,1,1.826.323l-.487,2.444a.8.8,0,0,1-.94.625h0a4.559,4.559,0,0,0-.879-.069,3.521,3.521,0,0,0-1.991.734,5.7,5.7,0,0,0-1.826,2.56v9.782Z" transform="translate(-19.288 -8.891)" fill="#fff"/>
    <path id="Path_3" data-name="Path 3" d="M112.778,157.718a4.558,4.558,0,0,1-3.357-1.263,4.489,4.489,0,0,1-1.284-3.343,4.3,4.3,0,0,1,2.2-3.906,10.983,10.983,0,0,1,2.876-1.181,25.575,25.575,0,0,1,4.18-.734,5.9,5.9,0,0,0-.178-1.174,2.657,2.657,0,0,0-.481-.988,2.169,2.169,0,0,0-.879-.686,3.37,3.37,0,0,0-1.373-.24,6.048,6.048,0,0,0-2.258.446h0a2.65,2.65,0,0,1-3.35-1.146l-.13-.24a15.459,15.459,0,0,1,2.945-1.441,9.988,9.988,0,0,1,3.521-.611,5.409,5.409,0,0,1,4.4,1.744A7.7,7.7,0,0,1,121.063,148l-.082,9.692h-.92a2.293,2.293,0,0,1-2.293-2.107h-.117a11.347,11.347,0,0,1-2.258,1.5,5.677,5.677,0,0,1-2.615.632Zm1.188-2.876a3.487,3.487,0,0,0,1.744-.446,9.534,9.534,0,0,0,1.682-1.284v-3.521a17.1,17.1,0,0,0-2.691.515,7.592,7.592,0,0,0-1.757.721,2.526,2.526,0,0,0-.961.913,2.155,2.155,0,0,0-.288,1.085,1.8,1.8,0,0,0,.638,1.538,2.636,2.636,0,0,0,1.634.48Z" transform="translate(-23.786 -8.846)" fill="#fff"/>
    <path id="Path_4" data-name="Path 4" d="M133.589,157.724,127.85,141.25h1.62a3.123,3.123,0,0,1,2.979,2.21l1.943,6.343c.22.81.453,1.62.686,2.451s.467,1.668.686,2.512h.137c.247-.844.48-1.689.686-2.512s.46-1.641.686-2.451l1.764-5.759a3.954,3.954,0,0,1,3.768-2.794h.8l-5.6,16.474Z" transform="translate(-29.968 -8.859)" fill="#fff"/>
    <path id="Path_5" data-name="Path 5" d="M152.84,154.445a1.271,1.271,0,0,0,0-.165V130.64c2.059,0,3.707,2.245,3.707,5.018v18.787Z" transform="translate(-37.805 -5.532)" fill="#fff"/>
    <path id="Path_6" data-name="Path 6" d="M167.7,157.705a7.447,7.447,0,0,1-2.821-.542,6.987,6.987,0,0,1-2.389-1.606,7.715,7.715,0,0,1-1.654-2.595,10.3,10.3,0,0,1,0-6.995,7.681,7.681,0,0,1,1.654-2.6,7.228,7.228,0,0,1,5.21-2.176,7.461,7.461,0,0,1,2.842.556,7.187,7.187,0,0,1,2.389,1.62,8.01,8.01,0,0,1,1.654,2.6,10.1,10.1,0,0,1,0,6.995,8.045,8.045,0,0,1-1.654,2.595,6.864,6.864,0,0,1-2.389,1.606,7.551,7.551,0,0,1-2.842.542Zm0-3.013a3.137,3.137,0,0,0,2.746-1.428,7.811,7.811,0,0,0,0-7.633,3.3,3.3,0,0,0-5.436,0,7.956,7.956,0,0,0,0,7.633,3.11,3.11,0,0,0,2.691,1.428Z" transform="translate(-40.121 -8.84)" fill="#fff"/>
    <path id="Path_7" data-name="Path 7" d="M188.97,157.788a4.292,4.292,0,0,1-3.762-1.654A8.3,8.3,0,0,1,184,151.39V141.3h0a3.748,3.748,0,0,1,3.748,3.748V150.9a5.011,5.011,0,0,0,.583,2.814,2.19,2.19,0,0,0,1.9.824,3.315,3.315,0,0,0,1.853-.529,7.344,7.344,0,0,0,1.716-1.7v-7.729a3.261,3.261,0,0,1,3.261-3.261h.508V157.4h-1.078a2.258,2.258,0,0,1-2.251-2.361h-.1a9.451,9.451,0,0,1-2.272,2A5.491,5.491,0,0,1,188.97,157.788Z" transform="translate(-47.576 -8.874)" fill="#fff"/>
    <path id="Path_8" data-name="Path 8" d="M206.76,157.7v-16.11h1.373a2,2,0,0,1,2,2.018v.144h.13a13.371,13.371,0,0,1,2.348-1.805,5.656,5.656,0,0,1,2.938-.755,4.311,4.311,0,0,1,3.775,1.661,8.114,8.114,0,0,1,1.181,4.743v10.1h-.789a2.979,2.979,0,0,1-2.986-2.979v-6.631a5,5,0,0,0-.59-2.828,2.224,2.224,0,0,0-1.936-.817,3.432,3.432,0,0,0-1.853.508,11.627,11.627,0,0,0-1.819,1.49v8.718A2.54,2.54,0,0,1,208,157.7Z" transform="translate(-54.713 -8.839)" fill="#fff"/>
    <path id="Path_9" data-name="Path 9" d="M234.462,164.258a12.659,12.659,0,0,1-2.629-.254,6.94,6.94,0,0,1-2.059-.776,4.05,4.05,0,0,1-1.373-1.29,3.377,3.377,0,0,1,.076-3.659,5.491,5.491,0,0,1,1.682-1.531v-.13a3.1,3.1,0,0,1-1.016-1.03,3.006,3.006,0,0,1-.4-1.613,2.9,2.9,0,0,1,.529-1.689,5.107,5.107,0,0,1,1.215-1.242v-.13a5.492,5.492,0,0,1-1.435-1.689,4.881,4.881,0,0,1-.632-2.5,5.492,5.492,0,0,1,.515-2.416,5.333,5.333,0,0,1,1.373-1.792,5.766,5.766,0,0,1,1.984-1.1,7.551,7.551,0,0,1,2.382-.371,6.637,6.637,0,0,1,1.242.117,7.938,7.938,0,0,1,1.078.275h5.677a2.746,2.746,0,0,1-2.746,2.746h-.165a3.692,3.692,0,0,1,.645,1.139,4.393,4.393,0,0,1,.261,1.531,5.375,5.375,0,0,1-.474,2.327,4.8,4.8,0,0,1-1.27,1.675,5.643,5.643,0,0,1-1.9,1.03,7.551,7.551,0,0,1-2.354.357,6.383,6.383,0,0,1-1.064-.1,5.679,5.679,0,0,1-1.1-.323,3.433,3.433,0,0,0-.563.645,1.579,1.579,0,0,0-.206.865,1.215,1.215,0,0,0,.563,1.064,3.741,3.741,0,0,0,2.011.391h2.807a8.237,8.237,0,0,1,4.338.92,3.254,3.254,0,0,1,1.462,2.979,4.29,4.29,0,0,1-.6,2.19,5.443,5.443,0,0,1-1.689,1.771,9.061,9.061,0,0,1-2.663,1.181,13.042,13.042,0,0,1-3.5.426Zm.577-2.416a5.739,5.739,0,0,0,3.116-.755,2.155,2.155,0,0,0,1.174-1.792,1.236,1.236,0,0,0-.728-1.256,5.313,5.313,0,0,0-2.059-.323h-2.155a8.779,8.779,0,0,1-2.162-.227A2.643,2.643,0,0,0,231,159.583a1.826,1.826,0,0,0,1.078,1.661A6.178,6.178,0,0,0,235.039,161.842Zm-.384-11.9a2.608,2.608,0,0,0,1.936-.824,3.254,3.254,0,0,0,.8-2.368,3.185,3.185,0,0,0-.789-2.306,2.6,2.6,0,0,0-1.949-.824,2.65,2.65,0,0,0-1.963.81,3.116,3.116,0,0,0-.81,2.32,3.226,3.226,0,0,0,.81,2.368A2.636,2.636,0,0,0,234.654,149.939Z" transform="translate(-61.341 -8.796)" fill="#fff"/>
    <path id="Path_10" data-name="Path 10" d="M257.466,157.514a8.127,8.127,0,0,1-3.027-.556,7.16,7.16,0,0,1-4.119-4.18,9.521,9.521,0,0,1-.59-3.432,9.247,9.247,0,0,1,.611-3.432,7.812,7.812,0,0,1,1.606-2.581,7.118,7.118,0,0,1,2.313-1.627,6.576,6.576,0,0,1,2.677-.577,6.864,6.864,0,0,1,2.8.542A5.491,5.491,0,0,1,261.8,143.2a6.72,6.72,0,0,1,1.229,2.361,10.346,10.346,0,0,1,.412,2.993,8.267,8.267,0,0,1-.041,1.023,7.66,7.66,0,0,1-.117.762h-9.933a5.073,5.073,0,0,0,1.483,3.24,4.455,4.455,0,0,0,3.144,1.133,5.656,5.656,0,0,0,1.895-.309h0a2.224,2.224,0,0,1,2.746,1.009l.24.446a11.134,11.134,0,0,1-2.485,1.208A8.532,8.532,0,0,1,257.466,157.514Zm-4.173-9.692h6.919a4.654,4.654,0,0,0-.783-2.856,2.821,2.821,0,0,0-2.4-1.03,3.466,3.466,0,0,0-2.457.988,4.647,4.647,0,0,0-1.277,2.876Z" transform="translate(-68.187 -8.82)" fill="#fff"/>
    <path id="Path_11" data-name="Path 11" d="M52.31,113a10.592,10.592,0,0,0-10.578,10.578c0,.268,0,.529,0,.789a18.966,18.966,0,0,0-9.452,16.4V157a3.549,3.549,0,0,0,3.576-3.5v-4.6H51.349a3.542,3.542,0,0,0,3.549-3.549H46.969A18.959,18.959,0,0,0,54.9,130.119v-1.256a7.5,7.5,0,0,0-.082-.927v-.124a19.131,19.131,0,0,0-.364-2.114c-.062-.261-.13-.515-.2-.762a7.269,7.269,0,0,1-.137-1.373,7.05,7.05,0,0,1,6.178-6.967A10.557,10.557,0,0,0,52.31,113ZM36.522,145.324h-.686v-4.29h0v-.254A15.4,15.4,0,0,1,42.7,127.991a15.1,15.1,0,0,1,3.158-1.627c.329-.13.686-.24,1.009-.343h0a14.7,14.7,0,0,1,1.558-.371,13.925,13.925,0,0,1,2.286-.316s.117.535.261,1.373c.11.522.2,1.05.261,1.586h0a16.474,16.474,0,0,1,.089,1.654,15.424,15.424,0,0,1-14.786,15.39Zm14.147-23.5a14.859,14.859,0,0,0-1.572.11,18.6,18.6,0,0,0-3.775.837,6.995,6.995,0,0,1,7.825-6.178,10.653,10.653,0,0,0-2.464,5.244Z" transform="translate(0 0)" fill="#ffcc02"/>
  </g>
</svg>
