<svg width="86" height="86" viewBox="0 0 86 86" fill="none" xmlns="http://www.w3.org/2000/svg">
<circle cx="43.0001" cy="42.6993" r="39.5665" stroke="#253D8F" stroke-width="6"/>
<circle cx="43.0001" cy="42.6993" r="39.5665" fill="white" stroke="#8F2525" stroke-width="6"/>
<g clip-path="url(#clip0_303_587)">
<path d="M65.1587 28.9072L57.6587 21.4072C57.2925 21.041 56.6992 21.041 56.3331 21.4072C55.9669 21.7735 55.9669 22.3668 56.3331 22.7329L57.5452 23.9451L52.6965 28.7938L49.6094 25.7066C48.5144 24.6098 46.7273 24.6098 45.6323 25.7066C44.5355 26.8034 44.5355 28.5869 45.6323 29.6836L46.8445 30.8958L28.208 49.5322C28.0322 49.708 27.9333 49.946 27.9333 50.1951C27.9333 50.3466 27.9645 53.551 29.4907 55.7496L20.708 64.5323C20.3418 64.8985 20.3418 65.4918 20.708 65.8579C20.8911 66.041 21.131 66.1326 21.3709 66.1326C21.6108 66.1326 21.8506 66.041 22.0338 65.8579L30.8154 57.0763C33.0048 58.5992 36.2022 58.6326 36.3709 58.6326C36.6199 58.6326 36.858 58.5337 37.0338 58.358L55.6701 39.7214L56.8824 40.9336C57.4134 41.4647 58.1202 41.7576 58.8709 41.7576C59.6217 41.7576 60.3284 41.4647 60.8595 40.9336C61.9562 39.8369 61.9562 38.0534 60.8595 36.9566L57.7723 33.8694L62.6209 29.0208L63.8331 30.233C64.0161 30.416 64.2561 30.5076 64.4959 30.5076C64.7358 30.5076 64.9756 30.416 65.1588 30.233C65.525 29.8667 65.525 29.2735 65.1587 28.9072ZM37.8577 54.8826L35.7081 52.733C35.3418 52.3667 35.3418 51.7735 35.7081 51.4073C36.0743 51.0411 36.6676 51.0411 37.0337 51.4073L39.1833 53.5569L37.8577 54.8826ZM42.5452 50.1951L41.333 48.9829C40.9667 48.6167 40.9667 48.0234 41.333 47.6573C41.6992 47.291 42.2925 47.291 42.6586 47.6573L43.8708 48.8695L42.5452 50.1951ZM47.2327 45.5076L45.0831 43.3579C44.7168 42.9917 44.7168 42.3984 45.0831 42.0323C45.4493 41.666 46.0426 41.666 46.4087 42.0323L48.5584 44.1819L47.2327 45.5076ZM52.7612 39.9784C50.0797 39.8631 48.544 39.4359 46.9378 38.9798C45.6381 38.6113 44.3027 38.234 42.3615 38.0301L48.1702 32.2214L54.3445 38.3957L52.7612 39.9784Z" fill="#253D8F"/>
</g>
<line x1="16.0412" y1="14.0266" x2="71.6727" y2="69.6581" stroke="#8F2525" stroke-width="6"/>
<defs>
<clipPath id="clip0_303_587">
<rect width="45" height="45" fill="white" transform="translate(20.4336 21.1328)"/>
</clipPath>
</defs>
</svg>
