<svg width="87" height="86" viewBox="0 0 87 86" fill="none" xmlns="http://www.w3.org/2000/svg">
<circle cx="43.5001" cy="42.6993" r="39.5665" stroke="#253D8F" stroke-width="6"/>
<circle cx="43.5001" cy="42.6993" r="39.5665" fill="white" stroke="#8F2525" stroke-width="6"/>
<g clip-path="url(#clip0_303_598)">
<path d="M33.3418 53.5992C31.9932 52.8257 31.0819 51.3724 31.0819 49.709C31.0819 42.8433 36.6674 37.2578 43.5331 37.2578H48.6641L48.9058 33.2734H19.8323L21.9206 67.7289C21.9684 68.5176 22.6217 69.1328 23.412 69.1328H32.5799C31.6399 67.8834 31.0819 66.3309 31.0819 64.6504C31.0819 62.7131 32.3177 61.059 34.0422 60.4345C33.4309 59.4972 33.0741 58.3797 33.0741 57.1797C33.0741 55.9785 33.4317 54.8599 34.0441 53.9218C33.557 53.812 33.2865 53.7043 33.3418 53.5992Z" fill="#253D8F"/>
<path d="M34.3676 30.2855C34.3688 30.2855 34.3699 30.2852 34.3711 30.2852H49.3105C50.1358 30.2852 50.8047 29.6163 50.8047 28.791C50.8047 27.9657 50.1358 27.2969 49.3105 27.2969H37.1275L41.155 21.1211H46.3223C47.1475 21.1211 47.8164 20.4522 47.8164 19.627C47.8164 18.8017 47.1475 18.1328 46.3223 18.1328H40.3457C39.8407 18.1328 39.3698 18.3877 39.0944 18.8106L33.5598 27.2969H19.4277C18.6025 27.2969 17.9336 27.9657 17.9336 28.791C17.9336 29.6163 18.6025 30.2852 19.4277 30.2852H34.3621C34.3641 30.2852 34.366 30.2855 34.3676 30.2855Z" fill="#253D8F"/>
<path d="M34.0703 49.709C34.0703 50.5343 34.7392 51.2031 35.5645 51.2031H67.4395C68.2647 51.2031 68.9336 50.5343 68.9336 49.709C68.9336 44.4912 64.6885 40.2461 59.4707 40.2461H43.5332C38.3154 40.2461 34.0703 44.4912 34.0703 49.709Z" fill="#253D8F"/>
<path d="M39.0508 54.1914C37.4002 54.1914 36.0625 55.5291 36.0625 57.1797C36.0625 58.8302 37.4002 60.168 39.0508 60.168H63.9531C65.6037 60.168 66.9414 58.8302 66.9414 57.1797C66.9414 55.5291 65.6037 54.1914 63.9531 54.1914H39.0508Z" fill="#253D8F"/>
<path d="M67.4395 63.1562H35.5645C34.7392 63.1562 34.0703 63.8251 34.0703 64.6504C34.0703 67.1219 36.0812 69.1328 38.5527 69.1328H64.4512C66.9227 69.1328 68.9336 67.1219 68.9336 64.6504C68.9336 63.8251 68.2647 63.1562 67.4395 63.1562Z" fill="#253D8F"/>
</g>
<line x1="16.5412" y1="14.0266" x2="72.1727" y2="69.6581" stroke="#8F2525" stroke-width="6"/>
<defs>
<clipPath id="clip0_303_598">
<rect width="51" height="51" fill="white" transform="translate(17.9336 18.1328)"/>
</clipPath>
</defs>
</svg>
