<svg width="86" height="86" viewBox="0 0 86 86" fill="none" xmlns="http://www.w3.org/2000/svg">
<circle cx="42.6993" cy="42.5665" r="39.5665" stroke="#253D8F" stroke-width="6"/>
<circle cx="42.6993" cy="42.5665" r="39.5665" fill="white" stroke="#8F2525" stroke-width="6"/>
<path d="M52.9094 35.8972H49.0143C49.0107 35.8972 49.0079 35.9 49.0079 35.9036C49.0079 35.9071 49.005 35.91 49.0014 35.9099C46.4034 35.9058 44.2903 33.4088 44.2903 30.8099C44.2903 28.5499 45.8883 26.8483 48.0135 26.4409C48.5559 26.337 49.0079 25.8997 49.0079 25.3475V23.5225C49.0079 22.9702 48.5582 22.5163 48.0096 22.5805C43.7721 23.076 40.4653 26.686 40.4653 31.065C40.4653 35.7804 44.2869 39.604 49.0014 39.6075C49.005 39.6075 49.0079 39.6047 49.0079 39.6011C49.0079 39.5976 49.0107 39.5947 49.0143 39.5947H52.9094C55.5741 39.5947 57.9329 41.4818 57.9329 44.835V47.1499C57.9329 47.7022 58.3806 48.1499 58.9329 48.1499H60.7579C61.3102 48.1499 61.7579 47.7022 61.7579 47.1499V43.9551C61.7578 39.3651 57.6778 35.8972 52.9094 35.8972Z" fill="#253D8F"/>
<path d="M60.7579 50.7H58.9329C58.3806 50.7 57.9329 51.1477 57.9329 51.7V57.3499C57.9329 57.9022 58.3806 58.3499 58.9329 58.3499H60.7579C61.3101 58.3499 61.7579 57.9022 61.7579 57.3499V51.7C61.7579 51.1477 61.3101 50.7 60.7579 50.7Z" fill="#253D8F"/>
<path d="M54.3828 50.7H18.1328C17.5805 50.7 17.1328 51.1477 17.1328 51.7V57.3499C17.1328 57.9022 17.5805 58.3499 18.1328 58.3499H54.3828C54.9351 58.3499 55.3828 57.9022 55.3828 57.3499V51.7C55.3828 51.1477 54.9351 50.7 54.3828 50.7Z" fill="#253D8F"/>
<path d="M61.3564 30.2907C60.7635 29.9296 60.6234 29.0917 61.0307 28.5296C62.0469 27.1274 62.6502 25.4016 62.6502 23.5425C62.6502 19.1635 59.3434 15.5535 55.1059 15.058C54.5574 14.9939 54.1077 15.4477 54.1077 16V17.825C54.1077 18.3773 54.5605 18.814 55.1005 18.9301C57.2265 19.3874 58.8252 21.282 58.8252 23.5425C58.8252 25.8031 57.2265 27.6977 55.1005 28.1549C54.5605 28.2711 54.1077 28.7078 54.1077 29.2601V31.0851C54.1077 31.6374 54.5568 32.0799 55.1066 32.1329C60.3445 32.6376 64.3076 37.0763 64.3076 42.4636V47.1501C64.3076 47.7023 64.7553 48.1501 65.3076 48.1501H67.1326C67.6849 48.1501 68.1326 47.7023 68.1326 47.1501V42.4508C68.1327 37.2904 65.4327 32.7735 61.3564 30.2907Z" fill="#253D8F"/>
<path d="M67.1329 50.7H65.3079C64.7556 50.7 64.3079 51.1477 64.3079 51.7V57.3499C64.3079 57.9022 64.7556 58.3499 65.3079 58.3499H67.1329C67.6851 58.3499 68.1329 57.9022 68.1329 57.3499V51.7C68.1329 51.1477 67.6851 50.7 67.1329 50.7Z" fill="#253D8F"/>
<line x1="15.7405" y1="13.8938" x2="71.3719" y2="69.5252" stroke="#8F2525" stroke-width="6"/>
</svg>
