<svg width="198" height="225" viewBox="0 0 198 225" fill="none" xmlns="http://www.w3.org/2000/svg">
<g opacity="0.1">
<g style="mix-blend-mode:multiply" opacity="0.85">
<path d="M98.5 104.5L-282 371.459V315.145L98.5 104.5Z" fill="#253D8F"/>
<path d="M98.5 104.5L-282 51.2299V9.22266L98.5 104.5Z" fill="#253D8F"/>
<path d="M98.5 104.5L-210.162 -276H-148.064L98.5 104.5Z" fill="#253D8F"/>
<path d="M165.772 -276L98.5 104.5L124.678 -276H165.772Z" fill="#253D8F"/>
<path d="M479 -250.734V-181.94L98.5 104.5L479 -250.734Z" fill="#253D8F"/>
<path d="M479 104.195V144.681L98.5 104.5L479 104.195Z" fill="#253D8F"/>
<path d="M479 458.822V485H428.774L98.5 104.5L479 458.822Z" fill="#253D8F"/>
<path d="M125.287 485H84.802L98.5 104.5L125.287 485Z" fill="#253D8F"/>
<path d="M98.5 104.5L-209.248 485H-282V484.391L98.5 104.5Z" fill="#253D8F"/>
<path d="M98.5 104.5L-282 158.379V117.589L98.5 104.5Z" fill="#253D8F"/>
<path d="M98.5 104.5L-282 -161.546V-226.688L98.5 104.5Z" fill="#253D8F"/>
<path d="M98.5 104.5L17.2252 -276H58.928L98.5 104.5Z" fill="#253D8F"/>
<path d="M385.549 -276L98.5 104.5L326.8 -276H385.549Z" fill="#253D8F"/>
<path d="M479 -4.78125V37.8348L98.5 104.498L479 -4.78125Z" fill="#253D8F"/>
<path d="M479 298.098V351.977L98.5 104.5L479 298.098Z" fill="#253D8F"/>
<path d="M237.306 485H193.168L98.5 104.5L237.306 485Z" fill="#253D8F"/>
<path d="M98.5 104.5L-62.832 485H-112.754L98.5 104.5Z" fill="#253D8F"/>
<path d="M98.5 104.5L-282 274.355V227.782L98.5 104.5Z" fill="#253D8F"/>
<path d="M98.5 104.5L-282 -26.0875V-73.2695L98.5 104.5Z" fill="#253D8F"/>
<path d="M98.5 104.5L-104.23 -276H-54.9176L98.5 104.5Z" fill="#253D8F"/>
<path d="M244.916 -276L98.5 104.5L200.17 -276H244.916Z" fill="#253D8F"/>
<path d="M479 -133.539V-80.8779L98.5 104.502L479 -133.539Z" fill="#253D8F"/>
<path d="M479 178.165V221.085L98.5 104.5L479 178.165Z" fill="#253D8F"/>
<path d="M375.504 485H317.668L98.5 104.5L375.504 485Z" fill="#253D8F"/>
<path d="M98.5 104.5L51.9268 485H10.224L98.5 104.5Z" fill="#253D8F"/>
<path d="M98.5 104.5L-282 424.12V360.805L98.5 104.5Z" fill="#253D8F"/>
<path d="M98.5 104.501L-282 84.7154V43.9258L98.5 104.501Z" fill="#253D8F"/>
<path d="M98.5 104.5L-269.52 -276H-198.29L98.5 104.5Z" fill="#253D8F"/>
<path d="M131.984 -276L98.5 104.5L91.4988 -276H131.984Z" fill="#253D8F"/>
<path d="M479 -276V-237.646L98.5 104.5L440.646 -276H479Z" fill="#253D8F"/>
</g>
</g>
</svg>
