<svg width="216" height="174" viewBox="0 0 216 174" fill="none" xmlns="http://www.w3.org/2000/svg">
<path d="M127.472 114.841C153.379 103.915 165.531 74.0384 154.614 48.1097C143.697 22.1811 113.845 10.019 87.9375 20.945C62.0301 31.8711 49.8781 61.7478 60.7952 87.6765C71.7122 113.605 101.564 125.767 127.472 114.841Z" fill="#FFC727"/>
<path d="M78.8767 77.0231C81.8823 79.6498 84.6127 82.5095 87.3431 85.3269C90.0735 88.1443 92.6769 91.11 95.238 94.0969H90.7297C97.4181 83.9712 104.636 74.2268 112.213 64.779C115.981 60.0339 119.96 55.4371 123.981 50.8827C128.003 46.3283 132.236 41.9433 136.681 37.7702C133.908 43.2567 130.797 48.489 127.58 53.6577C124.362 58.8265 120.976 63.847 117.462 68.7827C110.435 78.6754 103.069 88.2926 95.1533 97.5074L92.6134 100.473L90.6662 97.4862C88.5496 94.2239 86.4329 90.877 84.4222 87.4876C82.4114 84.0983 80.4642 80.6454 78.8767 77.0231Z" fill="white"/>
<path d="M215.418 169.36C215.521 170.099 215.401 170.852 215.076 171.524C214.75 172.195 214.233 172.755 213.589 173.132C212.945 173.508 212.204 173.686 211.459 173.641C210.715 173.596 210.001 173.331 209.407 172.879C208.813 172.427 208.367 171.809 208.124 171.104C207.881 170.398 207.853 169.636 208.044 168.914C208.234 168.192 208.634 167.543 209.194 167.05C209.753 166.556 210.446 166.239 211.185 166.14C211.675 166.071 212.173 166.1 212.651 166.225C213.129 166.35 213.578 166.569 213.971 166.868C214.365 167.167 214.695 167.541 214.944 167.969C215.192 168.397 215.353 168.869 215.418 169.36Z" fill="#FFC727"/>
<path d="M145.549 118.56C145.602 118.814 145.602 119.077 145.549 119.331C145.496 119.585 145.391 119.825 145.241 120.036C145.09 120.248 144.898 120.426 144.676 120.56C144.454 120.694 144.206 120.78 143.949 120.814C143.692 120.847 143.431 120.827 143.182 120.755C142.933 120.683 142.701 120.56 142.502 120.395C142.302 120.229 142.139 120.024 142.022 119.792C141.906 119.56 141.838 119.307 141.824 119.047C141.798 118.573 141.952 118.106 142.256 117.74C142.559 117.374 142.99 117.136 143.461 117.075C143.932 117.013 144.409 117.132 144.796 117.408C145.184 117.683 145.453 118.095 145.549 118.56Z" fill="white"/>
<path d="M100.762 1.62942C100.808 1.99372 100.746 2.36357 100.583 2.69254C100.42 3.0215 100.163 3.29497 99.8456 3.47857C99.5279 3.66217 99.163 3.74773 98.7968 3.72455C98.4306 3.70138 98.0794 3.57051 97.7873 3.34831C97.4952 3.12611 97.2752 2.82248 97.1548 2.47558C97.0345 2.12868 97.0192 1.75395 97.1108 1.39838C97.2025 1.04281 97.397 0.722276 97.6701 0.476967C97.9431 0.231659 98.2825 0.0725247 98.6455 0.0195281C98.8905 -0.0162228 99.1401 -0.00280018 99.3797 0.0590918C99.6194 0.120984 99.8443 0.230107 100.041 0.379998C100.238 0.529888 100.404 0.717546 100.527 0.932079C100.651 1.14661 100.731 1.38367 100.762 1.62942Z" fill="white"/>
<path d="M208.286 81.5527C208.337 81.9224 208.277 82.2989 208.114 82.6347C207.951 82.9704 207.693 83.2503 207.371 83.4387C207.049 83.6271 206.678 83.7157 206.306 83.6932C205.934 83.6707 205.577 83.5381 205.28 83.3123C204.983 83.0865 204.76 82.7776 204.638 82.4246C204.517 82.0717 204.503 81.6908 204.598 81.3299C204.694 80.9691 204.894 80.6446 205.173 80.3976C205.453 80.1507 205.799 79.9924 206.169 79.9427C206.663 79.8764 207.163 80.0086 207.559 80.3103C207.956 80.612 208.217 81.0587 208.286 81.5527Z" fill="white"/>
<path d="M15.654 167.813C15.68 168.288 15.5258 168.755 15.2222 169.121C14.9187 169.486 14.4883 169.724 14.0172 169.786C13.5461 169.847 13.0691 169.728 12.6818 169.453C12.2946 169.178 12.0256 168.766 11.9288 168.3C11.8682 167.807 12.0024 167.31 12.3028 166.914C12.6033 166.518 13.0463 166.256 13.5374 166.182C13.7835 166.149 14.0336 166.166 14.2734 166.23C14.5132 166.294 14.7379 166.405 14.9346 166.557C15.1313 166.709 15.2961 166.898 15.4196 167.113C15.543 167.329 15.6227 167.567 15.654 167.813Z" fill="#FFC727"/>
<path d="M7.46288 91.8086C7.55603 92.5424 7.43025 93.2873 7.10137 93.9497C6.77249 94.6121 6.25519 95.1623 5.61459 95.5311C4.97399 95.9 4.23871 96.071 3.50124 96.0226C2.76377 95.9742 2.05707 95.7086 1.47009 95.2592C0.883098 94.8098 0.442042 94.1966 0.202408 93.4969C-0.0372257 92.7972 -0.0647308 92.0422 0.123362 91.3269C0.311455 90.6116 0.706746 89.968 1.25948 89.477C1.81221 88.986 2.4977 88.6695 3.22969 88.5675C3.72071 88.4991 4.22042 88.5289 4.69985 88.6552C5.17929 88.7815 5.62891 89.0017 6.02266 89.3032C6.41642 89.6047 6.74647 89.9813 6.99369 90.4114C7.24092 90.8415 7.4004 91.3164 7.46288 91.8086Z" fill="#FFC727"/>
<path d="M46.8525 28.1498L51.7419 30.9036C51.5333 29.4195 51.7279 27.9066 52.3052 26.5237C52.8824 25.1409 53.8211 23.9391 55.0226 23.0446C59.2558 19.1468 64.3779 21.2864 66.8332 16.16L61.6899 12.8342C61.1164 14.2486 60.256 15.5287 59.1631 16.5934C58.0701 17.6581 56.7684 18.4843 55.3401 19.0197C51.6995 20.1001 47.805 21.6465 46.8525 28.1498Z" fill="#FFC727"/>
<path d="M77.5854 130.234L78.3474 124.663C77.0529 125.401 75.5836 125.777 74.0938 125.751C72.6041 125.725 71.1489 125.298 69.881 124.515C64.6741 121.909 64.8223 116.444 59.1286 116.041L57.9434 122.078C59.4786 122.094 60.9935 122.432 62.39 123.07C63.7865 123.709 65.0334 124.634 66.0499 125.786C68.2935 128.667 71.2568 131.802 77.5854 130.234Z" fill="#FFC727"/>
<path d="M31.8459 60.3065L25.3691 62.1494C25.3691 62.1494 26.9777 70.6228 33.645 69.2459C33.645 69.2459 29.5388 66.7251 31.8459 60.3065Z" fill="white"/>
<path d="M39.9099 75.4333L42.7461 69.4384C42.7461 69.4384 39.2749 65.35 33.6448 69.2477C33.6448 69.2477 40.0581 69.7561 39.9099 75.4333Z" fill="white"/>
<path d="M165.657 59.7784C165.559 59.0392 165.682 58.2875 166.011 57.6183C166.339 56.9492 166.859 56.3926 167.504 56.0189C168.149 55.6452 168.889 55.4713 169.633 55.519C170.377 55.5667 171.089 55.8341 171.681 56.2871C172.273 56.7402 172.717 57.3587 172.958 58.0644C173.198 58.7701 173.224 59.5313 173.033 60.2519C172.841 60.9725 172.44 61.62 171.881 62.1126C171.321 62.6052 170.629 62.9208 169.89 63.0194C169.4 63.085 168.901 63.0531 168.423 62.9257C167.944 62.7983 167.496 62.5778 167.103 62.2768C166.71 61.9758 166.38 61.6002 166.131 61.1715C165.883 60.7428 165.722 60.2694 165.657 59.7784Z" fill="#FFC727"/>
<path d="M185.278 104.667L184.516 110.238C185.81 109.497 187.279 109.12 188.769 109.146C190.26 109.172 191.715 109.601 192.982 110.386C198.21 112.992 198.062 118.457 203.735 118.86L204.941 112.822C203.406 112.807 201.891 112.469 200.494 111.83C199.098 111.192 197.851 110.267 196.834 109.115C194.527 106.234 191.606 103.205 185.278 104.667Z" fill="white"/>
<path d="M177.701 30.2705L183.627 33.4903C183.627 33.4903 188.411 26.2668 182.654 22.6232C182.59 22.6232 183.839 27.3048 177.701 30.2705Z" fill="#FFC727"/>
<path d="M182.59 13.8106L176.24 16.1408C176.24 16.1408 175.88 21.4578 182.59 22.6229C182.59 22.6229 178.357 17.7719 182.59 13.8106Z" fill="#FFC727"/>
</svg>
