<svg width="103" height="103" viewBox="0 0 103 103" fill="none" xmlns="http://www.w3.org/2000/svg">
<path d="M51.6747 102.833C79.7917 102.833 102.599 80.0264 102.615 51.8931C102.632 23.7599 79.8518 0.953339 51.7347 0.953339C23.6176 0.953339 0.810781 23.7599 0.794206 51.8931C0.77763 80.0264 23.5576 102.833 51.6747 102.833Z" fill="#FF4B27"/>
<path d="M37.0061 61.9208C30.0331 69.8616 26.309 76.5595 25.8795 78.6897C32.8156 74.168 45.2948 63.3415 51.633 57.6717C57.9713 52.0019 76.5912 32.1902 83.6201 22.8102C76.3938 26.9605 63.4335 37.0562 57.4922 42.7748C50.0657 49.923 45.7908 51.9168 37.0061 61.9208Z" fill="white"/>
<path d="M65.9204 68.4937C73.8613 75.4667 80.5592 79.1908 82.6894 79.6203C78.1677 72.6842 67.3412 60.2051 61.6714 53.8668C56.0016 47.5286 36.1898 28.9086 26.8099 21.8797C30.9601 29.106 41.0559 42.0664 46.7744 48.0076C53.9226 55.4341 55.9165 59.709 65.9204 68.4937Z" fill="white"/>
</svg>
