<svg width="86" height="86" viewBox="0 0 86 86" fill="none" xmlns="http://www.w3.org/2000/svg">
<circle cx="43.0001" cy="42.5665" r="39.5665" stroke="#253D8F" stroke-width="6"/>
<circle cx="43.0001" cy="42.5665" r="39.5665" fill="white" stroke="#8F2525" stroke-width="6"/>
<g clip-path="url(#clip0_303_544)">
<path d="M50.9023 21.0879H34.9648C31.944 21.0879 29.4863 23.5456 29.4863 26.5664V60.4336C29.4863 63.4544 31.944 65.9121 34.9648 65.9121H50.9023C53.9232 65.9121 56.3809 63.4544 56.3809 60.4336V26.5664C56.3809 23.5456 53.9232 21.0879 50.9023 21.0879ZM44.9258 61.9277H40.9414C40.1162 61.9277 39.4473 61.2588 39.4473 60.4336C39.4473 59.6084 40.1162 58.9395 40.9414 58.9395H44.9258C45.7509 58.9395 46.4199 59.6084 46.4199 60.4336C46.4199 61.2588 45.7509 61.9277 44.9258 61.9277ZM44.9258 28.0605H40.9414C40.1162 28.0605 39.4473 27.3916 39.4473 26.5664C39.4473 25.7412 40.1162 25.0723 40.9414 25.0723H44.9258C45.7509 25.0723 46.4199 25.7412 46.4199 26.5664C46.4199 27.3916 45.7509 28.0605 44.9258 28.0605Z" fill="#253D8F"/>
<path d="M66.2654 33.8289C65.8753 33.1018 64.9697 32.8285 64.2425 33.2185C63.5154 33.6086 63.242 34.5142 63.632 35.2414V35.2415C64.8013 37.4213 65.4453 40.3538 65.4453 43.4986C65.4453 46.6434 64.8008 49.5769 63.6306 51.7585V51.7586C63.2406 52.4858 63.5139 53.3914 64.241 53.7815H64.2411C64.9683 54.1716 65.8739 53.8982 66.264 53.1711C67.6631 50.5627 68.4336 47.1276 68.4336 43.4986C68.4336 39.8696 67.6636 36.4355 66.2654 33.8289Z" fill="#253D8F"/>
<path d="M59.1959 36.2441C58.4894 36.6705 58.2623 37.5889 58.6886 38.2954C59.5129 39.6612 59.9668 41.5093 59.9668 43.4991C59.9668 45.4889 59.5125 47.3375 58.6875 48.7046C58.2612 49.4111 58.4883 50.3294 59.1948 50.7558C59.9013 51.1823 60.8197 50.9551 61.2461 50.2485C62.3481 48.4222 62.9551 46.0252 62.9551 43.4991C62.9551 40.973 62.3485 38.5766 61.2472 36.7515C60.8208 36.0449 59.9024 35.8178 59.1959 36.2441Z" fill="#253D8F"/>
<path d="M22.2366 51.7587C21.0663 49.577 20.4219 46.6436 20.4219 43.4987C20.4219 40.3538 21.0658 37.4214 22.2352 35.2415C22.6252 34.5143 22.3519 33.6086 21.6248 33.2185C20.8976 32.8285 19.9919 33.1018 19.6018 33.8289C18.2036 36.4356 17.4336 39.8697 17.4336 43.4987C17.4336 47.1277 18.2041 50.5628 19.6033 53.1712C19.9934 53.8983 20.899 54.1717 21.6262 53.7816C22.3533 53.3916 22.6266 52.4859 22.2366 51.7587Z" fill="#253D8F"/>
<path d="M25.9004 43.4991C25.9004 41.5093 26.3543 39.6613 27.1786 38.2954C27.6049 37.5889 27.3778 36.6706 26.6713 36.2441C25.9647 35.8178 25.0463 36.0449 24.62 36.7515C23.5186 38.5766 22.9121 40.9729 22.9121 43.4991C22.9121 46.0253 23.519 48.4222 24.6211 50.2485C25.0474 50.9551 25.9658 51.1822 26.6724 50.7558C27.3789 50.3295 27.606 49.4111 27.1797 48.7046C26.3547 47.3375 25.9004 45.4888 25.9004 43.4991Z" fill="#253D8F"/>
</g>
<defs>
<clipPath id="clip0_303_544">
<rect width="51" height="51" fill="white" transform="translate(17.4336 18)"/>
</clipPath>
</defs>
</svg>

