<svg xmlns="http://www.w3.org/2000/svg" xmlns:xlink="http://www.w3.org/1999/xlink" width="330" height="478" viewBox="0 0 330 478">
  <defs>
    <filter id="Subtraction_23" x="0" y="11" width="330" height="467" filterUnits="userSpaceOnUse">
      <feOffset dy="3" input="SourceAlpha"/>
      <feGaussianBlur stdDeviation="7" result="blur"/>
      <feFlood flood-color="#717171" flood-opacity="0.451"/>
      <feComposite operator="in" in2="blur"/>
      <feComposite in="SourceGraphic"/>
    </filter>
    <linearGradient id="linear-gradient" x1="0.597" y1="0.06" x2="0.835" y2="0.914" gradientUnits="objectBoundingBox">
      <stop offset="0" stop-color="#f3f7fa"/>
      <stop offset="1" stop-color="#dde0e5"/>
    </linearGradient>
  </defs>
  <g id="Group_3342" data-name="Group 3342" transform="translate(-11 -134.333)">
    <g transform="matrix(1, 0, 0, 1, 11, 134.33)" filter="url(#Subtraction_23)">
      <path id="Subtraction_23-2" data-name="Subtraction 23" d="M282,425H6a6.007,6.007,0,0,1-6-6V335.057A17.232,17.232,0,0,0,12.231,318.6,17.232,17.232,0,0,0,0,302.135V6A6.007,6.007,0,0,1,6,0H282a6.007,6.007,0,0,1,6,6V302.456a17.116,17.116,0,0,0,0,33.427V419A6.007,6.007,0,0,1,282,425Z" transform="translate(21 29)" fill="#fff"/>
    </g>
    <path id="Subtraction_25" data-name="Subtraction 25" d="M293,429.667H6A5.9,5.9,0,0,1,0,423.9V337.126A17.139,17.139,0,0,0,17.112,320,17.138,17.138,0,0,0,0,302.873v-325.1A5.9,5.9,0,0,1,6-28H293a5.9,5.9,0,0,1,6,5.769v325.1a17.127,17.127,0,0,0,0,34.253V423.9A5.9,5.9,0,0,1,293,429.667Z" transform="translate(26 162.333)" fill="url(#linear-gradient)"/>
  </g>
</svg>
