<?xml version="1.0" encoding="utf-8"?>
<!-- Generator: Adobe Illustrator 24.0.0, SVG Export Plug-In . SVG Version: 6.00 Build 0)  -->
<svg version="1.1" id="Layer_1" xmlns="http://www.w3.org/2000/svg" xmlns:xlink="http://www.w3.org/1999/xlink" x="0px" y="0px"
	 viewBox="0 0 200 200" style="enable-background:new 0 0 200 200;" xml:space="preserve">
<g>
	<path d="M153.06,137.51c-36.01,0-71.3,0-107.22,0c0,4.87,0.08,9.48-0.02,14.09c-0.14,6.67-3.32,10.63-8.3,10.52
		c-4.93-0.11-8.1-4.2-8.13-10.79c-0.06-12.17,0.02-24.33-0.03-36.5c-0.03-6.52,2.75-11.48,7.41-15.44
		c9.22-7.84,20.17-11.46,31.51-13.78c27.11-5.54,53.9-4.78,80.02,5.58c3.65,1.45,7.15,3.48,10.47,5.67
		c7.17,4.74,11.11,11.17,10.65,20.7c-0.55,11.3-0.11,22.66-0.14,33.99c-0.01,6.42-3.33,10.61-8.25,10.55
		c-4.86-0.06-7.91-3.95-7.96-10.24C153.03,147.25,153.06,142.61,153.06,137.51z"/>
	<path d="M69,72.06c-7.46,2.08-14.23,3.97-21.39,5.97c0-12.75-0.26-21.34,0.14-33.9c0.14-4.36,3.17-7.11,7.7-7.11
		c29.32,0,58.65-0.03,87.97,0.03c4.49,0.01,7.82,3.24,7.9,8.11c0.2,12.3,0.07,20.61,0.07,32.84c-6.58-1.72-12.96-3.25-19.25-5.16
		c-1.01-0.31-2.16-2.23-2.23-3.47c-0.27-4.65,0-9.32-0.16-13.98c-0.17-4.79-2.74-2.84-7.21-2.02c-15.5,2.83-30.99,2.95-46.49-0.01
		c-4.34-0.83-6.93-2.58-7.03,2.2C68.92,61.03,69,66.51,69,72.06z"/>
</g>
</svg>
