<?xml version="1.0" encoding="utf-8"?>
<!-- Generator: Adobe Illustrator 24.0.0, SVG Export Plug-In . SVG Version: 6.00 Build 0)  -->
<svg version="1.1" id="Layer_1" xmlns="http://www.w3.org/2000/svg" xmlns:xlink="http://www.w3.org/1999/xlink" x="0px" y="0px"
	 viewBox="0 0 266 200" style="enable-background:new 0 0 266 200;" xml:space="preserve">
<g>
	<path d="M174.54,59.71c-0.14,4.48-0.03,8.98-0.03,13.85h-14.18c0-4.62,0.08-9.24-0.03-13.84c-0.11-4.72-1.31-6.41-5.37-6.1
		c-0.77-0.05-1.67,0.01-2.71,0.17c-7.04,1.1-14.06,1.71-21.08,1.74c-7.22,0.04-14.43-0.51-21.66-1.73c-0.59-0.1-1.14-0.17-1.64-0.2
		c-3.79-0.21-5.16,1.64-5.3,6.11c-0.14,4.48-0.03,8.98-0.03,13.85H88.33c0-4.62,0.08-9.24-0.03-13.84
		c-0.04-1.81-0.24-3.18-0.71-4.15c-0.87-1.85-2.68-2.32-6.09-1.78c-14.27,2.26-28.47,2.39-42.74,0.01
		c-5.14-0.85-6.73,0.75-6.83,5.92c-0.11,5.67-0.13,11.34,0.01,17c0.07,2.58-0.75,3.76-3.4,4.47c-4.13,1.12-8.1,2.89-12.92,4.68
		c0-15.1-0.14-25.55,0.08-40c0.07-4.78,2.97-7.19,7.8-7.19c32.48-0.03,64.95-0.04,97.43-0.01h21.08c8.47,0,16.95,0,25.43,0.01
		c4.82,0,7.74,2.52,7.79,7.12c0.04,4.64,0.07,5.27,0.07,9.93C174.82,56.7,174.59,58.02,174.54,59.71z"/>
	<path d="M247.28,85.68c-5.02-1.74-9.73-3.16-14.23-5.07c-1-0.43-1.73-2.57-1.78-3.95c-0.21-5.49-0.03-11-0.11-16.49
		c-0.07-5.47-1.67-7.2-6.94-6.38c-14.27,2.24-28.47,2.41-42.74,0.01c-3.36-0.57-5.25-0.01-6.18,1.93c-0.48,0.97-0.71,2.29-0.76,3.98
		c-0.14,4.48-0.03,8.98-0.03,13.85h-14.18c0-4.62,0.08-9.24-0.03-13.84c-0.11-4.72-1.31-6.41-5.37-6.1
		c-0.44,0.03-0.92,0.09-1.43,0.17c-7.47,1.18-14.91,1.78-22.36,1.74c-6.79-0.03-13.57-0.6-20.38-1.73c-1.14-0.19-2.11-0.26-2.92-0.2
		c-3.79-0.21-5.16,1.64-5.3,6.11c-0.14,4.48-0.03,8.98-0.03,13.85H88.33c0-4.62,0.08-9.24-0.03-13.84
		c-0.04-1.81-0.24-3.18-0.71-4.15c0.01-4.58,0.04-5.14,0.11-9.7c0.07-4.78,2.97-7.19,7.8-7.19c8.48-0.01,16.96-0.01,25.43-0.01
		h21.08c32.48-0.03,64.95-0.02,97.43,0.01c4.82,0,7.74,2.52,7.79,7.12C247.38,60.27,247.28,70.75,247.28,85.68z"/>
	<path d="M257.07,112.1c-0.52,12.8-0.12,25.65-0.15,38.48c-0.02,6.18-3.12,9.95-8.09,9.98c-4.92,0.03-8.01-3.76-8.07-9.9
		c-0.03-3.99-0.07-7.99-0.15-11.98c0-0.29-0.3-0.57-0.61-1.12h-60.76c-0.08-0.12-0.16-0.24-0.24-0.39H24.18
		c0,4.89,0.05,9.52-0.02,14.14c-0.07,5.28-3.43,8.9-8.1,8.86c-4.69-0.05-7.93-3.62-7.95-8.99c-0.05-13.67,0.23-27.33-0.13-40.99
		c-0.16-6.24,2.39-10.5,7.18-13.88c9.33-6.59,20.08-9.72,31.02-12.13c21.64-4.75,43.48-6.44,65.36-5.59
		c13.69,0.11,27.36,0.22,41.05,0.33c14.45-0.49,28.94,0.2,43.42,1.93c13.48,1.6,26.72,5.54,39.94,8.9c4.12,1.04,7.95,3.43,11.7,5.58
		C254.07,99,257.39,104.19,257.07,112.1z"/>
	<path d="M179.24,137.56l-110.11-0.39H179C179.08,137.32,179.16,137.44,179.24,137.56z"/>
</g>
</svg>
