<svg width="39" height="39" viewBox="0 0 39 39" fill="none" xmlns="http://www.w3.org/2000/svg">
<path d="M37.9207 26.9995H29.7808V33.2418H31.3589V33.8742C31.3589 34.2606 31.6721 34.5738 32.0585 34.5738H35.5682C35.9546 34.5738 36.2679 34.2606 36.2679 33.8742V33.2418H37.9207C38.5167 33.2418 38.9999 32.7585 38.9999 32.1626V28.0787C38.9999 27.4826 38.5168 26.9995 37.9207 26.9995Z" fill="#253D8F"/>
<path d="M13.4398 11.6076C15.1347 11.6076 16.5087 10.2336 16.5087 8.53866C16.5087 6.84374 15.1347 5.46973 13.4398 5.46973C11.7449 5.46973 10.3708 6.84374 10.3708 8.53866C10.3708 10.2336 11.7449 11.6076 13.4398 11.6076Z" fill="#253D8F"/>
<path d="M26.6355 23.597C26.4002 23.5488 26.482 23.5609 24.0288 23.5609C24.337 24.0823 24.5146 24.6896 24.5146 25.3379V34.1584C24.5146 35.2225 25.3595 35.9353 26.2774 35.9353C27.2588 35.9353 28.0543 35.1398 28.0543 34.1584V25.3378C28.0543 24.4795 27.4457 23.7628 26.6355 23.597Z" fill="#253D8F"/>
<path d="M21.0109 23.5609C20.7609 23.5609 15.4113 23.5608 15.2619 23.5614L20.8268 22.222L18.7117 13.6215L24.75 5.42395C25.2351 4.76556 25.0944 3.8385 24.436 3.35356C23.7776 2.86853 22.8505 3.00917 22.3656 3.66764L16.2622 11.9537C16.1757 11.971 12.5409 12.8543 12.3256 12.9377L4.84354 5.32095C4.27045 4.73768 3.33286 4.72922 2.7495 5.3023C2.16613 5.87539 2.15776 6.81299 2.73085 7.39635L11.2321 16.0507C11.4597 16.9761 13.2357 24.1977 13.4968 25.2592C13.4956 25.2855 13.7445 26.3832 14.1394 26.7091C14.2839 26.8284 14.4483 26.9236 14.6257 26.9927C13.538 26.9927 12.8484 26.9927 11.7588 26.9927V26.9997H1.07918C0.483215 26.9997 0 27.483 0 28.0789V32.1628C0 32.7588 0.483215 33.242 1.07918 33.242H2.96007V33.8744C2.96007 34.2608 3.27329 34.574 3.65972 34.574H7.16939C7.55583 34.574 7.86905 34.2608 7.86905 33.8744V33.242H17.5073V29.7482H17.5143V27.1149H19.234V34.1584C19.234 35.1398 20.0295 35.9354 21.0109 35.9354C21.9923 35.9354 22.7878 35.1398 22.7878 34.1584V25.3379C22.7878 24.3565 21.9923 23.5609 21.0109 23.5609Z" fill="#253D8F"/>
</svg>
