<svg width="39" height="39" viewBox="0 0 39 39" fill="none" xmlns="http://www.w3.org/2000/svg">
<path d="M36.3404 31.9091H30.1359C26.2261 31.9091 23.0451 28.7282 23.0451 24.8184C23.0451 20.9086 26.2261 17.7276 30.1359 17.7276H36.3404C36.8303 17.7276 37.2268 17.3312 37.2268 16.8412V14.1822C37.2268 12.3235 35.785 10.8119 33.9635 10.6654L28.8731 1.77416C28.4014 0.951851 27.6396 0.364118 26.7282 0.120067C25.821 -0.122322 24.8724 0.00498032 24.0605 0.477543L6.61023 10.6368H3.54542C1.59011 10.6368 0 12.2268 0 14.1822V35.4546C0 37.4099 1.59003 39 3.54542 39H33.6813C35.6366 39 37.2268 37.41 37.2268 35.4546V32.7955C37.2268 32.3056 36.8303 31.9091 36.3404 31.9091ZM29.9724 7.26343L31.9037 10.6368H24.1782L29.9724 7.26343ZM10.1335 10.6368L24.9528 2.00957C25.3536 1.77499 25.8218 1.71267 26.2694 1.83216C26.7221 1.95331 27.0995 2.24589 27.3341 2.6553L27.3359 2.65854L13.6327 10.6368H10.1335Z" fill="#253D8F"/>
<path d="M36.3402 19.5005H30.1357C27.2031 19.5005 24.8176 21.886 24.8176 24.8186C24.8176 27.7512 27.2031 30.1367 30.1357 30.1367H36.3402C37.8065 30.1367 38.9992 28.9439 38.9992 27.4776V22.1595C38.9992 20.6932 37.8065 19.5005 36.3402 19.5005ZM30.1357 26.5913C29.1585 26.5913 28.3631 25.7958 28.3631 24.8186C28.3631 23.8414 29.1585 23.0459 30.1357 23.0459C31.1129 23.0459 31.9084 23.8414 31.9084 24.8186C31.9085 25.7958 31.113 26.5913 30.1357 26.5913Z" fill="#253D8F"/>
</svg>
