<svg width="360" height="760" viewBox="0 0 360 760" fill="none" xmlns="http://www.w3.org/2000/svg">
<g style="mix-blend-mode:multiply" opacity="0.85">
<path d="M179.5 380.5L-201 647.459V591.145L179.5 380.5Z" fill="#F1F1F1"/>
<path d="M179.5 380.5L-201 327.23V285.223L179.5 380.5Z" fill="#F1F1F1"/>
<path d="M179.5 380.5L-129.162 0H-67.064L179.5 380.5Z" fill="#F1F1F1"/>
<path d="M246.772 0L179.5 380.5L205.678 0H246.772Z" fill="#F1F1F1"/>
<path d="M560 25.2656V94.06L179.5 380.5L560 25.2656Z" fill="#F1F1F1"/>
<path d="M560 380.195V420.681L179.5 380.5L560 380.195Z" fill="#F1F1F1"/>
<path d="M560 734.822V761H509.774L179.5 380.5L560 734.822Z" fill="#F1F1F1"/>
<path d="M206.287 761H165.802L179.5 380.5L206.287 761Z" fill="#F1F1F1"/>
<path d="M179.5 380.5L-128.248 761H-201V760.391L179.5 380.5Z" fill="#F1F1F1"/>
<path d="M179.5 380.5L-201 434.379V393.589L179.5 380.5Z" fill="#F1F1F1"/>
<path d="M179.5 380.5L-201 114.454V49.3125L179.5 380.5Z" fill="#F1F1F1"/>
<path d="M179.5 380.5L98.2252 0H139.928L179.5 380.5Z" fill="#F1F1F1"/>
<path d="M466.549 0L179.5 380.5L407.8 0H466.549Z" fill="#F1F1F1"/>
<path d="M560 271.221V313.837L179.5 380.5L560 271.221Z" fill="#F1F1F1"/>
<path d="M560 574.098V627.977L179.5 380.5L560 574.098Z" fill="#F1F1F1"/>
<path d="M318.306 761H274.168L179.5 380.5L318.306 761Z" fill="#F1F1F1"/>
<path d="M179.5 380.5L18.168 761H-31.7536L179.5 380.5Z" fill="#F1F1F1"/>
<path d="M179.5 380.5L-201 550.355V503.782L179.5 380.5Z" fill="#F1F1F1"/>
<path d="M179.5 380.5L-201 249.912V202.73L179.5 380.5Z" fill="#F1F1F1"/>
<path d="M179.5 380.5L-23.2304 0H26.0824L179.5 380.5Z" fill="#F1F1F1"/>
<path d="M325.916 0L179.5 380.5L281.17 0H325.916Z" fill="#F1F1F1"/>
<path d="M560 142.459V195.12L179.5 380.5L560 142.459Z" fill="#F1F1F1"/>
<path d="M560 454.165V497.085L179.5 380.5L560 454.165Z" fill="#F1F1F1"/>
<path d="M456.504 761H398.668L179.5 380.5L456.504 761Z" fill="#F1F1F1"/>
<path d="M179.5 380.5L132.927 761H91.224L179.5 380.5Z" fill="#F1F1F1"/>
<path d="M179.5 380.5L-201 700.12V636.805L179.5 380.5Z" fill="#F1F1F1"/>
<path d="M179.5 380.499L-201 360.713V319.924L179.5 380.499Z" fill="#F1F1F1"/>
<path d="M179.5 380.5L-188.52 0H-117.29L179.5 380.5Z" fill="#F1F1F1"/>
<path d="M212.984 0L179.5 380.5L172.499 0H212.984Z" fill="#F1F1F1"/>
<path d="M560 0V38.3544L179.5 380.5L521.646 0H560Z" fill="#F1F1F1"/>
</g>
</svg>
