<?xml version="1.0" encoding="utf-8"?>
<!-- Generator: Adobe Illustrator 27.3.1, SVG Export Plug-In . SVG Version: 6.00 Build 0)  -->
<svg version="1.1" id="Layer_1" xmlns="http://www.w3.org/2000/svg" xmlns:xlink="http://www.w3.org/1999/xlink" x="0px" y="0px"
	 viewBox="0 0 177 171.9" style="enable-background:new 0 0 177 171.9;" xml:space="preserve">
<style type="text/css">
	.st0{fill:none;stroke:#253D8F;stroke-width:9.9348;stroke-linecap:round;stroke-linejoin:round;}
</style>
<g>
	<path class="st0" d="M117.7,56.7V147c0,8.6-7,15.7-15.7,15.7H42.5c-8.6,0-15.7-7-15.7-15.7V57.1c0-8.6,7-15.7,15.7-15.7h89.7"/>
	<path class="st0" d="M148.7,58.9v61.3c0,5.6-4.6,10.2-10.2,10.2h-20.8"/>
	<path class="st0" d="M117.7,56.8c0-8.5,6.9-15.4,15.4-15.4s15.4,6.9,15.4,15.4"/>
	<line class="st0" x1="49.1" y1="141.6" x2="95.6" y2="141.6"/>
	<line class="st0" x1="49.1" y1="122.4" x2="95.6" y2="122.4"/>
</g>
<path class="st0" d="M26.8,65.8C16.5,64.1,8.7,55.2,8.7,44.4v-13c0-12,9.7-21.7,21.7-21.7h116.2c12,0,21.7,9.7,21.7,21.7v13
	c0,12-9.7,21.7-21.7,21.7h-28.9"/>
</svg>
