<svg width="16" height="16" viewBox="0 0 16 16" fill="none" xmlns="http://www.w3.org/2000/svg">
<path d="M15.6484 4.91546V3.25966C15.6484 2.82052 15.474 2.39936 15.1635 2.08884C14.8529 1.77831 14.4318 1.60386 13.9926 1.60386H11.7849V1.05193C11.7849 0.905551 11.7268 0.765165 11.6233 0.661657C11.5197 0.55815 11.3794 0.5 11.233 0.5C11.0866 0.5 10.9462 0.55815 10.8427 0.661657C10.7392 0.765165 10.681 0.905551 10.681 1.05193V1.60386H5.16173V1.05193C5.16173 0.905551 5.10358 0.765165 5.00007 0.661657C4.89656 0.55815 4.75618 0.5 4.60979 0.5C4.46341 0.5 4.32303 0.55815 4.21952 0.661657C4.11601 0.765165 4.05786 0.905551 4.05786 1.05193V1.60386H1.85013C1.41099 1.60386 0.98983 1.77831 0.679308 2.08884C0.368785 2.39936 0.194336 2.82052 0.194336 3.25966V4.91546H15.6484Z" fill="#253D8F"/>
<path d="M0.194336 6.01929V14.2983C0.194336 14.7374 0.368785 15.1586 0.679308 15.4691C0.98983 15.7796 1.41099 15.9541 1.85013 15.9541H13.9926C14.4318 15.9541 14.8529 15.7796 15.1635 15.4691C15.474 15.1586 15.6484 14.7374 15.6484 14.2983V6.01929H0.194336ZM11.0398 9.19786L7.17628 12.5095C7.07067 12.5997 6.9349 12.6469 6.79607 12.6415C6.65723 12.636 6.52555 12.5785 6.42731 12.4802L4.77151 10.8244C4.67097 10.7203 4.61534 10.5809 4.6166 10.4362C4.61785 10.2915 4.6759 10.153 4.77823 10.0507C4.88057 9.94837 5.019 9.89032 5.16371 9.88906C5.30843 9.88781 5.44785 9.94344 5.55194 10.044L6.84678 11.3388L10.3239 8.35838C10.3787 8.30905 10.4427 8.27118 10.5123 8.247C10.5819 8.22282 10.6556 8.21281 10.7292 8.21757C10.8027 8.22233 10.8745 8.24177 10.9404 8.27473C11.0063 8.30768 11.0649 8.3535 11.1128 8.40948C11.1607 8.46545 11.1969 8.53045 11.2193 8.60064C11.2417 8.67083 11.2498 8.74479 11.2432 8.81816C11.2365 8.89154 11.2152 8.96284 11.1806 9.02786C11.146 9.09288 11.0986 9.15031 11.0415 9.19676L11.0398 9.19786Z" fill="#253D8F"/>
</svg>
