<svg xmlns="http://www.w3.org/2000/svg" width="44.2" height="27.625" viewBox="0 0 44.2 27.625">
  <g id="dinner" transform="translate(0 -96)">
    <g id="Group_3431" data-name="Group 3431" transform="translate(0 118.1)">
      <g id="Group_3430" data-name="Group 3430">
        <path id="Path_3486" data-name="Path 3486" d="M44.064,352.436a.927.927,0,0,0-.785-.436H.921A.92.92,0,0,0,.1,353.332a7.54,7.54,0,0,0,6.783,4.193H37.32a7.55,7.55,0,0,0,6.785-4.192A.93.93,0,0,0,44.064,352.436Z" transform="translate(0 -352)" fill="#253d8f"/>
      </g>
    </g>
    <g id="Group_3433" data-name="Group 3433" transform="translate(3.796 96)">
      <g id="Group_3432" data-name="Group 3432">
        <path id="Path_3487" data-name="Path 3487" d="M64.8,99.875a2.763,2.763,0,1,0-5.05,0,18.375,18.375,0,0,0-15.779,16.384H80.573A18.38,18.38,0,0,0,64.8,99.875Zm-3.385,5.332a12.859,12.859,0,0,0-11.3,8.567.923.923,0,0,1-.869.615.936.936,0,0,1-.306-.052.924.924,0,0,1-.564-1.175,14.694,14.694,0,0,1,12.916-9.794.935.935,0,0,1,.98.858A.92.92,0,0,1,61.41,105.206Z" transform="translate(-43.966 -96)" fill="#253d8f"/>
      </g>
    </g>
  </g>
</svg>
