<svg id="Group_1695" data-name="Group 1695" xmlns="http://www.w3.org/2000/svg" width="33.325" height="25.544" viewBox="0 0 33.325 25.544">
  <path id="Path_2294" data-name="Path 2294" d="M3341.117-56.705c-4.121,0-8.243-.032-12.364.018a1.64,1.64,0,0,1-1.539-2.391,1.411,1.411,0,0,1,1.3-.9c.036,0,.072,0,.108,0q12.527,0,25.054,0a1.493,1.493,0,0,1,1.591,1.643,1.538,1.538,0,0,1-1.678,1.625Q3347.354-56.7,3341.117-56.705Z" transform="translate(-3326.954 82.232)" fill="#253d8f"/>
  <path id="Path_2295" data-name="Path 2295" d="M3359.025-221.641a7.5,7.5,0,0,0-6.754-4.28,2.329,2.329,0,0,0-1.094-.252q-5.689,0-11.379,0c-3.776,0-7.552.029-11.328-.016a1.922,1.922,0,0,0-2.052,1.965c0,1.593-.038,3.188.018,4.779a14.452,14.452,0,0,0,3.388,8.971,12.687,12.687,0,0,0,14.276,3.989,13.4,13.4,0,0,0,6.234-4.693c.717.006,1.41.02,2.1-.007A7.372,7.372,0,0,0,3359.025-221.641ZM3353.29-214a9,9,0,0,1-1.4.066,17.721,17.721,0,0,0,.809-2.308,23.17,23.17,0,0,0,.467-6.886,4.653,4.653,0,0,1,4.028,4.2A4.611,4.611,0,0,1,3353.29-214Z" transform="translate(-3326.405 226.189)" fill="#253d8f"/>
</svg>
