<svg width="20" height="21" viewBox="0 0 20 21" fill="none" xmlns="http://www.w3.org/2000/svg">
<g clip-path="url(#clip0_78_4818)">
<path d="M10.8984 14.7188C10.8984 15.5803 11.5994 16.2812 12.4609 16.2812H14.2969C15.1584 16.2812 15.8594 15.5803 15.8594 14.7188V12.8828C15.8594 12.0213 15.1584 11.3203 14.2969 11.3203H12.4609C11.5994 11.3203 10.8984 12.0213 10.8984 12.8828V14.7188ZM12.4609 12.8828H14.2969L14.2979 14.7187C14.2979 14.7187 14.2976 14.7188 14.2969 14.7188H12.4609V12.8828Z" fill="#253D8F"/>
<path d="M15.0781 9.48438C15.5096 9.48438 15.8594 9.1346 15.8594 8.70312C15.8594 8.27165 15.5096 7.92188 15.0781 7.92188C14.6467 7.92188 14.2969 8.27165 14.2969 8.70312C14.2969 9.1346 14.6467 9.48438 15.0781 9.48438Z" fill="#253D8F"/>
<path d="M11.6797 9.48438C12.1112 9.48438 12.4609 9.1346 12.4609 8.70312C12.4609 8.27165 12.1112 7.92188 11.6797 7.92188C11.2482 7.92188 10.8984 8.27165 10.8984 8.70312C10.8984 9.1346 11.2482 9.48438 11.6797 9.48438Z" fill="#253D8F"/>
<path d="M19.2188 14.25C19.6502 14.25 20 13.9002 20 13.4688V5.1875C20 3.46438 18.5981 2.0625 16.875 2.0625H15.8594V1.28125C15.8594 0.849766 15.5096 0.5 15.0781 0.5C14.6466 0.5 14.2969 0.849766 14.2969 1.28125V2.0625H10.7422V1.28125C10.7422 0.849766 10.3924 0.5 9.96094 0.5C9.52945 0.5 9.17969 0.849766 9.17969 1.28125V2.0625H5.66406V1.28125C5.66406 0.849766 5.3143 0.5 4.88281 0.5C4.45133 0.5 4.10156 0.849766 4.10156 1.28125V2.0625H3.125C1.40188 2.0625 0 3.46438 0 5.1875V17.375C0 19.0981 1.40188 20.5 3.125 20.5H16.875C18.5981 20.5 20 19.0981 20 17.375C20 16.9435 19.6502 16.5938 19.2188 16.5938C18.7873 16.5938 18.4375 16.9435 18.4375 17.375C18.4375 18.2366 17.7366 18.9375 16.875 18.9375H3.125C2.26344 18.9375 1.5625 18.2366 1.5625 17.375V5.1875C1.5625 4.32594 2.26344 3.625 3.125 3.625H4.10156V4.40625C4.10156 4.83773 4.45133 5.1875 4.88281 5.1875C5.3143 5.1875 5.66406 4.83773 5.66406 4.40625V3.625H9.17969V4.40625C9.17969 4.83773 9.52945 5.1875 9.96094 5.1875C10.3924 5.1875 10.7422 4.83773 10.7422 4.40625V3.625H14.2969V4.40625C14.2969 4.83773 14.6466 5.1875 15.0781 5.1875C15.5096 5.1875 15.8594 4.83773 15.8594 4.40625V3.625H16.875C17.7366 3.625 18.4375 4.32594 18.4375 5.1875V13.4688C18.4375 13.9002 18.7873 14.25 19.2188 14.25Z" fill="#253D8F"/>
<path d="M4.88281 16.2812C5.31428 16.2812 5.66406 15.9315 5.66406 15.5C5.66406 15.0685 5.31428 14.7188 4.88281 14.7188C4.45134 14.7188 4.10156 15.0685 4.10156 15.5C4.10156 15.9315 4.45134 16.2812 4.88281 16.2812Z" fill="#253D8F"/>
<path d="M4.88281 9.48438C5.31428 9.48438 5.66406 9.1346 5.66406 8.70312C5.66406 8.27165 5.31428 7.92188 4.88281 7.92188C4.45134 7.92188 4.10156 8.27165 4.10156 8.70312C4.10156 9.1346 4.45134 9.48438 4.88281 9.48438Z" fill="#253D8F"/>
<path d="M4.88281 12.8828C5.31428 12.8828 5.66406 12.533 5.66406 12.1016C5.66406 11.6701 5.31428 11.3203 4.88281 11.3203C4.45134 11.3203 4.10156 11.6701 4.10156 12.1016C4.10156 12.533 4.45134 12.8828 4.88281 12.8828Z" fill="#253D8F"/>
<path d="M8.28125 12.8828C8.71272 12.8828 9.0625 12.533 9.0625 12.1016C9.0625 11.6701 8.71272 11.3203 8.28125 11.3203C7.84978 11.3203 7.5 11.6701 7.5 12.1016C7.5 12.533 7.84978 12.8828 8.28125 12.8828Z" fill="#253D8F"/>
<path d="M8.28125 9.48438C8.71272 9.48438 9.0625 9.1346 9.0625 8.70312C9.0625 8.27165 8.71272 7.92188 8.28125 7.92188C7.84978 7.92188 7.5 8.27165 7.5 8.70312C7.5 9.1346 7.84978 9.48438 8.28125 9.48438Z" fill="#253D8F"/>
<path d="M8.28125 16.2812C8.71272 16.2812 9.0625 15.9315 9.0625 15.5C9.0625 15.0685 8.71272 14.7188 8.28125 14.7188C7.84978 14.7188 7.5 15.0685 7.5 15.5C7.5 15.9315 7.84978 16.2812 8.28125 16.2812Z" fill="#253D8F"/>
</g>
<defs>
<clipPath id="clip0_78_4818">
<rect width="20" height="20" fill="white" transform="translate(0 0.5)"/>
</clipPath>
</defs>
</svg>
