<svg id="Group_1696" data-name="Group 1696" xmlns="http://www.w3.org/2000/svg" width="33.325" height="30.023" viewBox="0 0 33.325 30.023">
  <path id="Path_2296" data-name="Path 2296" d="M2251.647-197.756c.561.537,1.14,1.015,1.627,1.574a2,2,0,0,1-.233,2.813,2.049,2.049,0,0,1-2.807-.1,2.032,2.032,0,0,1-.034-2.829C2250.674-196.8,2251.174-197.282,2251.647-197.756Z" transform="translate(-2231.562 197.758)" fill="#253d8f"/>
  <path id="Path_2297" data-name="Path 2297" d="M2163.859-197.774c.565.543,1.151,1.03,1.644,1.6a2,2,0,0,1-.272,2.808,2.041,2.041,0,0,1-2.8-.141,2.04,2.04,0,0,1-.017-2.806C2162.887-196.815,2163.384-197.3,2163.859-197.774Z" transform="translate(-2150.745 197.774)" fill="#253d8f"/>
  <path id="Path_2298" data-name="Path 2298" d="M2055.165-109.434c-.151.661-.308,1.322-.451,1.985-.146.679-.4.892-1.117.893h-.765c.16.215.3.387.42.567a5.67,5.67,0,0,1-.647,7.223.658.658,0,0,0-.165.414c-.014.915-.005,1.831-.008,2.747a1.274,1.274,0,0,1-1.414,1.385q-1.366.005-2.733,0a1.263,1.263,0,0,1-1.4-1.365c0-.372,0-.744,0-1.146h-16.772c0,.342,0,.688,0,1.034,0,1.015-.473,1.476-1.511,1.477-.879,0-1.757,0-2.635,0a1.267,1.267,0,0,1-1.4-1.368c0-.948.005-1.9-.008-2.843a.591.591,0,0,0-.158-.385,5.7,5.7,0,0,1-.438-7.532c.039-.048.071-.1.144-.208-.311,0-.575,0-.839,0a.869.869,0,0,1-.951-.74q-.251-1.1-.465-2.218a.839.839,0,0,1,.895-1c.954-.01,1.909-.012,2.863,0a.4.4,0,0,0,.45-.294,15.891,15.891,0,0,1,1.806-3.488,4.969,4.969,0,0,1,2.12-1.632,17.482,17.482,0,0,1,4.956-1.235,29.806,29.806,0,0,1,6.427-.073,20.514,20.514,0,0,1,5.279,1.149,5.542,5.542,0,0,1,3.1,2.758c.427.835.808,1.692,1.194,2.547a.371.371,0,0,0,.4.267c.9-.015,1.8.01,2.7-.012a1.045,1.045,0,0,1,1.113.641Zm-6.344.228a18.819,18.819,0,0,0-1.545-3.346,2.544,2.544,0,0,0-1.027-.946,11.221,11.221,0,0,0-3.176-.985,27.033,27.033,0,0,0-7.352-.247,15.552,15.552,0,0,0-4.51,1.012,2.742,2.742,0,0,0-1.554,1.284c-.5,1.037-.959,2.089-1.434,3.135-.01.022.011.058.019.093Zm1.665,6.659a2.5,2.5,0,0,0-2.5-2.465,2.511,2.511,0,0,0-2.522,2.478,2.5,2.5,0,0,0,2.5,2.461A2.5,2.5,0,0,0,2050.485-102.547Zm-21.323,2.464a2.5,2.5,0,0,0,2.41-2.542A2.481,2.481,0,0,0,2028.99-105a2.433,2.433,0,0,0-2.434,2.544A2.463,2.463,0,0,0,2029.162-100.083Z" transform="translate(-2021.84 124.24)" fill="#253d8f"/>
</svg>
