<svg width="27" height="17" viewBox="0 0 27 17" fill="none" xmlns="http://www.w3.org/2000/svg">
<path d="M0.330317 12.688L2.72041 13.8805C2.7385 13.8857 2.75685 13.8899 2.77538 13.8931C3.10617 14.615 3.63678 15.2276 4.30473 15.6587C4.97269 16.0897 5.75017 16.3214 6.54564 16.3264C7.3411 16.3313 8.12142 16.1093 8.79471 15.6866C9.468 15.2638 10.0062 14.6579 10.346 13.9402H16.6538C16.9937 14.658 17.5322 15.2638 18.2057 15.6864C18.8793 16.1091 19.6598 16.3308 20.4554 16.3255C21.251 16.3203 22.0285 16.0882 22.6963 15.6567C23.3642 15.2253 23.8945 14.6123 24.225 13.8901C24.2423 13.8829 24.2632 13.8853 24.2799 13.877L26.0056 13.0124C26.3047 12.865 26.5563 12.637 26.7321 12.3541C26.9078 12.0712 27.0006 11.7448 26.9999 11.412V5.98595C26.9981 5.19552 26.6839 4.4377 26.1257 3.87695L23.9388 1.69461C23.3768 1.13753 22.6174 0.824077 21.8253 0.822266H13.9002C12.7368 0.823252 11.6049 1.19975 10.6736 1.89555L7.32746 4.39988H7.51673C6.84915 4.39882 6.18314 4.46475 5.52877 4.59664L2.40492 5.22213C1.7276 5.35731 1.11803 5.7222 0.67965 6.25487C0.24127 6.78754 0.00109526 7.45516 -0.000113165 8.14444V12.1514C-0.000722058 12.2627 0.0299051 12.3719 0.088302 12.4668C0.146699 12.5616 0.230533 12.6383 0.330317 12.688ZM6.57265 15.1327C5.98175 15.1327 5.40413 14.9579 4.91282 14.6303C4.4215 14.3027 4.03857 13.837 3.81245 13.2923C3.58632 12.7475 3.52716 12.1481 3.64243 11.5697C3.75771 10.9914 4.04225 10.4602 4.46008 10.0432C4.87791 9.62629 5.41025 9.34234 5.98979 9.22731C6.56933 9.11227 7.17004 9.17131 7.71596 9.39696C8.26187 9.62261 8.72848 10.0047 9.05676 10.495C9.38504 10.9853 9.56026 11.5617 9.56026 12.1514C9.55931 12.9418 9.24425 13.6995 8.68416 14.2584C8.12408 14.8173 7.36472 15.1318 6.57265 15.1327ZM20.4271 15.1327C19.8362 15.1327 19.2586 14.9579 18.7673 14.6303C18.276 14.3027 17.893 13.837 17.6669 13.2923C17.4408 12.7475 17.3816 12.1481 17.4969 11.5697C17.6122 10.9914 17.8967 10.4602 18.3145 10.0432C18.7324 9.62629 19.2647 9.34234 19.8443 9.22731C20.4238 9.11227 21.0245 9.17131 21.5704 9.39696C22.1163 9.62261 22.5829 10.0047 22.9112 10.495C23.2395 10.9853 23.4147 11.5617 23.4147 12.1514C23.4138 12.9418 23.0987 13.6995 22.5386 14.2584C21.9785 14.8173 21.2192 15.1318 20.4271 15.1327ZM20.6554 4.39988H16.6377L17.4342 2.0148H19.4603L20.6554 4.39988ZM11.3918 2.84958C12.1162 2.30845 12.9965 2.01562 13.9014 2.0148H16.1764L15.3787 4.39988H9.31721L11.3918 2.84958ZM1.19493 8.14444C1.19589 7.73079 1.34023 7.33021 1.60348 7.01068C1.86672 6.69115 2.23264 6.47235 2.63915 6.39141L5.76539 5.76533C6.34193 5.64954 6.92863 5.59161 7.51673 5.59241H21.6222C21.7243 5.59297 21.8248 5.5674 21.9142 5.51815C22.0036 5.4689 22.0789 5.3976 22.1328 5.31107C22.1868 5.22454 22.2176 5.12566 22.2223 5.02387C22.2271 4.92208 22.2056 4.82077 22.1599 4.72961L20.7964 2.0148H21.8253C22.3006 2.01583 22.7564 2.20371 23.0939 2.53773L25.2808 4.72007C25.6157 5.05668 25.8041 5.51158 25.8048 5.98595V11.412C25.8051 11.5237 25.7739 11.6332 25.7149 11.7281C25.6558 11.823 25.5713 11.8994 25.4708 11.9486L24.5978 12.3857C24.602 12.3088 24.6098 12.2319 24.6098 12.1537C24.6142 11.5777 24.4991 11.007 24.2718 10.4776C24.0444 9.94813 23.7097 9.47136 23.2887 9.07729C22.8676 8.68322 22.3694 8.38038 21.8254 8.18783C21.2814 7.99528 20.7033 7.91718 20.1275 7.95845C19.5518 7.99973 18.9908 8.15948 18.4799 8.42766C17.9691 8.69583 17.5194 9.06663 17.1591 9.51671C16.7989 9.96678 16.5359 10.4864 16.3867 11.0429C16.2375 11.5993 16.2053 12.1806 16.2923 12.75H10.7075C10.7944 12.1806 10.7623 11.5995 10.6132 11.0431C10.4641 10.4867 10.2012 9.96716 9.84106 9.5171C9.48094 9.06704 9.03137 8.69622 8.52065 8.42798C8.00992 8.15973 7.44909 7.99986 6.87344 7.95843C6.29779 7.917 5.71977 7.9949 5.17575 8.18723C4.63174 8.37956 4.1335 8.68216 3.71238 9.07599C3.29126 9.46983 2.95637 9.94637 2.72879 10.4756C2.50121 11.0049 2.38585 11.5754 2.38998 12.1514C2.38998 12.2301 2.39775 12.307 2.40193 12.3851L1.19493 11.7829V8.14444Z" fill="#253D8F"/>
</svg>
