<svg xmlns="http://www.w3.org/2000/svg" width="33.772" height="29" viewBox="0 0 33.772 29">
  <g id="crown" transform="translate(-2.489 -1.5)">
    <path id="Path_3471" data-name="Path 3471" d="M6,28c0,.552.6,1,1.337,1H31.412c.739,0,1.338-.448,1.338-1V25H6Z" transform="translate(0 1)" fill="none" stroke="#253d8f" stroke-width="1"/>
    <path id="Path_3472" data-name="Path 3472" d="M35.255,8.205a1.542,1.542,0,0,0-1.328-.1l-8.852,3.514-4.53-8.99a1.4,1.4,0,0,0-2.34,0l-4.53,8.99L4.823,8.105a1.535,1.535,0,0,0-1.328.1.906.906,0,0,0-.47.991L6.5,23H32.248L35.725,9.2a.906.906,0,0,0-.471-.991ZM19.375,19c-1.555-.153-2.673-1.262-2.519-2.5-.154-1.238.964-2.347,2.519-2.5,1.555.153,2.673,1.262,2.519,2.5.154,1.238-.964,2.347-2.519,2.5Z" fill="none" stroke="#253d8f" stroke-width="1"/>
  </g>
</svg>
