<svg width="16" height="17" viewBox="0 0 16 17" fill="none" xmlns="http://www.w3.org/2000/svg">
<path d="M1 4H2.5M2.5 4H14.5M2.5 4V14.5C2.5 14.8978 2.65804 15.2794 2.93934 15.5607C3.22064 15.842 3.60218 16 4 16H11.5C11.8978 16 12.2794 15.842 12.5607 15.5607C12.842 15.2794 13 14.8978 13 14.5V4M4.75 4V2.5C4.75 2.10218 4.90804 1.72064 5.18934 1.43934C5.47064 1.15804 5.85218 1 6.25 1H9.25C9.64782 1 10.0294 1.15804 10.3107 1.43934C10.592 1.72064 10.75 2.10218 10.75 2.5V4" stroke="#253D8F" stroke-width="2" stroke-linecap="round" stroke-linejoin="round"/>
</svg>
