<svg width="27" height="24" viewBox="0 0 27 24" fill="none" xmlns="http://www.w3.org/2000/svg">
<path d="M3.75 6.24984H5.91667M5.91667 6.24984H23.25M5.91667 6.24984V19.6665C5.91667 20.1748 6.14494 20.6623 6.55127 21.0218C6.9576 21.3812 7.5087 21.5832 8.08333 21.5832H18.9167C19.4913 21.5832 20.0424 21.3812 20.4487 21.0218C20.8551 20.6623 21.0833 20.1748 21.0833 19.6665V6.24984M9.16667 6.24984V4.33317C9.16667 3.82484 9.39494 3.33733 9.80127 2.97788C10.2076 2.61844 10.7587 2.4165 11.3333 2.4165H15.6667C16.2413 2.4165 16.7924 2.61844 17.1987 2.97788C17.6051 3.33733 17.8333 3.82484 17.8333 4.33317V6.24984M11.3333 11.0415V16.7915M15.6667 11.0415V16.7915" stroke="#22313F" stroke-opacity="0.8" stroke-linecap="round" stroke-linejoin="round"/>
</svg>
