<?xml version="1.0" encoding="utf-8"?>
<!-- Generator: Adobe Illustrator 27.3.1, SVG Export Plug-In . SVG Version: 6.00 Build 0)  -->
<svg version="1.1" id="Layer_1" xmlns="http://www.w3.org/2000/svg" xmlns:xlink="http://www.w3.org/1999/xlink" x="0px" y="0px"
	 viewBox="0 0 177 171.9" style="enable-background:new 0 0 177 171.9;" xml:space="preserve">
<style type="text/css">
	.st0{fill:none;stroke:#253D8F;stroke-width:9.9348;stroke-linecap:round;stroke-linejoin:round;}
</style>
<g>
	<g>
		<g id="g1605_00000085940459647474140870000009573111793069883292_" transform="translate(210,497)">
			<path id="path1607_00000108308599996550295370000017294937019322955195_" class="st0" d="M-201.5-428.6h67.9
				c0.6,0,1.3-0.1,1.8-0.4l13.8-6.2c0.6-0.3,1.2-0.4,1.8-0.4h66.3c4.4,0,8,3.6,8,8v7.7c0,4.4-3.6,8-8,8h-138.9
				c-7.1,0-12.8-5.7-12.8-12.8V-445c0-2.5,2-4.5,4.5-4.5h41c2.5,0,4.5,2,4.5,4.5v16.3"/>
		</g>
		<g id="g1609_00000098907118965111196540000005897264827774474895_" transform="translate(15,497)">
			<path id="path1611_00000018201251603629674620000011839975094698564755_" class="st0" d="M-5.5-488.1h33.3
				c16.6,0,16.6,9.9,16.6,22.2H11.1C-5.9-466.1-5.5-476-5.5-488.1z"/>
		</g>
	</g>
	<g id="g1617_00000063632466465937696900000011091301940387823784_" transform="translate(376,437)">
		<path id="path1619_00000110431208660858469300000018123539125734609331_" class="st0" d="M-347.7-290.6v-27.9"/>
	</g>
	<g id="g1621_00000067197502388785631450000001494700226697079685_" transform="translate(497,75)">
		<path id="path1623_00000146500481098530069280000016137397055969461691_" class="st0" d="M-442.7,26.4v62.1"/>
	</g>
	<g id="g1625_00000016053077906376100730000015964832744260232115_" transform="translate(330,377)">
		<path id="path1627_00000149339509289092921140000005337695808012909460_" class="st0" d="M-181.7-215.5v-58.1"/>
	</g>
	<g id="g1629_00000071527128553079092560000008658831256299790003_" transform="translate(376,437)">
		<path id="path1631_00000119104453418316562210000011159156274525935011_" class="st0" d="M-344.8-290.6l17.1,13.9
			c2.5,2.1,5.7,3.2,8.9,3.2h111.3v-62.1h-111.3c-3.3,0-6.4,1.1-8.9,3.2l-17.1,13.9h-17.5c-3,0-5.5,2.5-5.5,5.5v16.9
			c0,3,2.5,5.5,5.5,5.5L-344.8-290.6L-344.8-290.6z"/>
	</g>
</g>
</svg>
