<svg width="33" height="32" viewBox="0 0 33 32" fill="none" xmlns="http://www.w3.org/2000/svg">
<path d="M26.5 1C27.1566 1 27.8068 1.12933 28.4134 1.3806C29.02 1.63188 29.5712 2.00017 30.0355 2.46447C30.4998 2.92876 30.8681 3.47995 31.1194 4.08658C31.3707 4.69321 31.5 5.34339 31.5 6C31.5 12.389 29.908 19.187 27.5 20.693V31H25.5V20.694C23.136 19.216 21.558 12.632 21.502 6.345L21.5 6L21.505 5.783C21.5609 4.49575 22.1116 3.27978 23.0422 2.38866C23.9728 1.49754 25.2115 1.00007 26.5 1ZM17.5 1V19.118C19.817 19.675 21.5 22.128 21.5 25C21.5 28.27 19.317 31 16.5 31C13.683 31 11.5 28.27 11.5 25C11.5 22.128 13.183 19.674 15.5 19.118V1H17.5ZM2.5 1H3.5C7.97 1 10.434 7.365 10.499 19.505L10.5 21H4.499L4.5 31H2.5V1ZM16.5 21C14.898 21 13.5 22.748 13.5 25C13.5 27.252 14.898 29 16.5 29C18.102 29 19.5 27.252 19.5 25C19.5 22.748 18.102 21 16.5 21ZM4.5 3.239V19H8.495L8.478 18.036L8.451 17.087C8.173 9.157 6.735 4.623 4.724 3.364L4.604 3.294L4.5 3.239ZM23.505 5.824L23.5 6L23.502 6.31C23.547 10.631 24.533 15.443 25.501 17.7V3.17C24.9441 3.36693 24.4577 3.72379 24.1026 4.19588C23.7476 4.66797 23.5397 5.23432 23.505 5.824ZM27.501 3.171V17.697C28.49 15.387 29.5 10.4 29.5 6C29.5 5.37955 29.3076 4.77437 28.9495 4.26774C28.5913 3.76111 28.0849 3.37795 27.5 3.171H27.501Z" fill="#253D8F"/>
</svg>
