<svg width="111" height="61" viewBox="0 0 111 61" fill="none" xmlns="http://www.w3.org/2000/svg">
<path d="M54.407 50.15H48.546C48.3529 50.1507 48.1619 50.1893 47.9838 50.2638C47.8057 50.3383 47.644 50.4471 47.508 50.5841C47.3719 50.7211 47.2642 50.8835 47.1909 51.0621C47.1177 51.2407 47.0803 51.432 47.081 51.625V57.525C47.0797 57.9111 47.1544 58.2937 47.3009 58.6509C47.4475 59.0081 47.6629 59.3329 47.935 59.6068C48.2071 59.8808 48.5304 60.0984 48.8866 60.2474C49.2428 60.3963 49.6249 60.4737 50.011 60.475H52.941C53.3271 60.4737 53.7091 60.3963 54.0653 60.2474C54.4215 60.0984 54.7449 59.8808 55.0169 59.6068C55.289 59.3329 55.5045 59.0081 55.651 58.6509C55.7975 58.2937 55.8723 57.9111 55.871 57.525V51.625C55.8723 51.2353 55.7188 50.861 55.4443 50.5844C55.1698 50.3078 54.7967 50.1516 54.407 50.15ZM10.453 50.15H4.59197C4.39893 50.1507 4.2079 50.1893 4.0298 50.2638C3.85171 50.3383 3.69002 50.4471 3.55399 50.5841C3.41795 50.7211 3.31022 50.8835 3.23695 51.0621C3.16368 51.2407 3.12631 51.432 3.12697 51.625V57.525C3.12565 57.9111 3.2004 58.2937 3.34693 58.6509C3.49347 59.0081 3.70892 59.3329 3.981 59.6068C4.25308 59.8808 4.57644 60.0984 4.93264 60.2474C5.28884 60.3963 5.67088 60.4737 6.05697 60.475H8.98697C9.37306 60.4737 9.75511 60.3963 10.1113 60.2474C10.4675 60.0984 10.7909 59.8808 11.0629 59.6068C11.335 59.3329 11.5505 59.0081 11.697 58.6509C11.8435 58.2937 11.9183 57.9111 11.917 57.525V51.625C11.9183 51.2353 11.7648 50.861 11.4903 50.5844C11.2158 50.3078 10.8427 50.1516 10.453 50.15ZM52.942 33.372H6.05697C5.66762 33.3707 5.2947 33.2149 5.02005 32.939C4.74539 32.663 4.59144 32.2894 4.59197 31.9V10.325C4.58532 7.59655 5.66153 4.97693 7.58436 3.04116C9.5072 1.1054 12.1195 0.0116475 14.848 0H44.148C46.8769 0.0108548 49.49 1.10425 51.4135 3.04011C53.337 4.97596 54.4136 7.59603 54.407 10.325V31.9C54.4075 32.2894 54.2535 32.663 53.9789 32.939C53.7042 33.2149 53.3313 33.3707 52.942 33.372Z" fill="#253D8F"/>
<path d="M41.977 30.101H17.023C16.6323 30.076 16.2674 29.8976 16.0078 29.6046C15.7481 29.3116 15.6148 28.9278 15.637 28.537V22.282C15.637 17.964 18.742 14.469 22.569 14.464H36.432C40.258 14.469 43.359 17.964 43.364 22.282V28.537C43.3862 28.928 43.2528 29.3119 42.993 29.6049C42.7331 29.8979 42.3679 30.0763 41.977 30.101Z" fill="#EAEFF0"/>
<path d="M48.675 22.946H10.325C4.62298 22.946 -2.11436e-05 27.846 -2.11436e-05 33.892V49.529C-0.0226355 50.3346 0.275268 51.1163 0.828322 51.7025C1.38138 52.2888 2.1444 52.6317 2.94998 52.656H56.05C56.8556 52.6317 57.6186 52.2888 58.1716 51.7025C58.7247 51.1163 59.0226 50.3346 59 49.529V33.892C59 27.846 54.377 22.946 48.675 22.946Z" fill="#809DFF"/>
<path d="M-2.11436e-05 41.711V49.529C-0.0226355 50.3346 0.275268 51.1163 0.828322 51.7026C1.38138 52.2888 2.1444 52.6317 2.94998 52.656H56.05C56.8556 52.6317 57.6186 52.2888 58.1716 51.7026C58.7247 51.1163 59.0226 50.3346 59 49.529V41.711H-2.11436e-05Z" fill="#4E73F1"/>
<path d="M106.407 50.15H100.546C100.353 50.1507 100.162 50.1893 99.9838 50.2638C99.8057 50.3383 99.644 50.4471 99.508 50.5841C99.3719 50.7211 99.2642 50.8835 99.1909 51.0621C99.1177 51.2407 99.0803 51.432 99.081 51.625V57.525C99.0797 57.9111 99.1544 58.2937 99.3009 58.6509C99.4475 59.0081 99.6629 59.3329 99.935 59.6068C100.207 59.8808 100.53 60.0984 100.887 60.2474C101.243 60.3963 101.625 60.4737 102.011 60.475H104.941C105.327 60.4737 105.709 60.3963 106.065 60.2474C106.421 60.0984 106.745 59.8808 107.017 59.6068C107.289 59.3329 107.504 59.0081 107.651 58.6509C107.798 58.2937 107.872 57.9111 107.871 57.525V51.625C107.872 51.2353 107.719 50.861 107.444 50.5844C107.17 50.3078 106.797 50.1516 106.407 50.15ZM62.453 50.15H56.592C56.3989 50.1507 56.2079 50.1893 56.0298 50.2638C55.8517 50.3383 55.69 50.4471 55.554 50.5841C55.4179 50.7211 55.3102 50.8835 55.237 51.0621C55.1637 51.2407 55.1263 51.432 55.127 51.625V57.525C55.1257 57.9111 55.2004 58.2937 55.3469 58.6509C55.4935 59.0081 55.7089 59.3329 55.981 59.6068C56.2531 59.8808 56.5764 60.0984 56.9326 60.2474C57.2888 60.3963 57.6709 60.4737 58.057 60.475H60.987C61.3731 60.4737 61.7551 60.3963 62.1113 60.2474C62.4675 60.0984 62.7909 59.8808 63.0629 59.6068C63.335 59.3329 63.5505 59.0081 63.697 58.6509C63.8435 58.2937 63.9183 57.9111 63.917 57.525V51.625C63.9183 51.2353 63.7648 50.861 63.4903 50.5844C63.2158 50.3078 62.8427 50.1516 62.453 50.15ZM104.942 33.372H58.057C57.6676 33.3707 57.2947 33.2149 57.02 32.939C56.7454 32.663 56.5914 32.2894 56.592 31.9V10.325C56.5853 7.59655 57.6615 4.97693 59.5844 3.04116C61.5072 1.1054 64.1195 0.0116475 66.848 0H96.148C98.8769 0.0108548 101.49 1.10425 103.414 3.04011C105.337 4.97596 106.414 7.59603 106.407 10.325V31.9C106.407 32.2894 106.254 32.663 105.979 32.939C105.704 33.2149 105.331 33.3707 104.942 33.372Z" fill="#253D8F"/>
<path d="M93.977 30.101H69.023C68.6323 30.076 68.2674 29.8976 68.0078 29.6046C67.7481 29.3116 67.6148 28.9278 67.637 28.537V22.282C67.637 17.964 70.742 14.469 74.569 14.464H88.432C92.258 14.469 95.359 17.964 95.364 22.282V28.537C95.3862 28.928 95.2528 29.3119 94.993 29.6049C94.7331 29.8979 94.3679 30.0763 93.977 30.101Z" fill="#EAEFF0"/>
<path d="M100.675 22.946H62.325C56.623 22.946 52 27.846 52 33.892V49.529C51.9774 50.3346 52.2753 51.1163 52.8283 51.7025C53.3814 52.2888 54.1444 52.6317 54.95 52.656H108.05C108.856 52.6317 109.619 52.2888 110.172 51.7025C110.725 51.1163 111.023 50.3346 111 49.529V33.892C111 27.846 106.377 22.946 100.675 22.946Z" fill="#809DFF"/>
<path d="M52 41.711V49.529C51.9774 50.3346 52.2753 51.1163 52.8283 51.7026C53.3814 52.2888 54.1444 52.6317 54.95 52.656H108.05C108.856 52.6317 109.619 52.2888 110.172 51.7026C110.725 51.1163 111.023 50.3346 111 49.529V41.711H52Z" fill="#4E73F1"/>
</svg>
