<svg width="16" height="21" viewBox="0 0 16 21" fill="none" xmlns="http://www.w3.org/2000/svg">
<path d="M14.6154 20.5H0.769231C0.344615 20.5 0 20.1554 0 19.7308C0 19.3062 0.344615 18.9615 0.769231 18.9615H14.6154C15.04 18.9615 15.3846 19.3062 15.3846 19.7308C15.3846 20.1554 15.04 20.5 14.6154 20.5Z" fill="#253D8F"/>
<path d="M13.0769 16.6539C12.6523 16.6539 12.3081 16.31 12.3077 15.8858C12.3046 13.7785 10.1738 12.5639 8.17653 11.5912C7.91114 11.4619 7.62922 11.3304 7.33768 11.195C4.8923 10.0554 1.54345 8.49462 1.53845 5.11655C1.53807 4.69193 1.88191 4.34693 2.30653 4.34616H2.30768C2.73191 4.34616 3.07653 4.69001 3.07691 5.11424C3.08038 7.51347 5.68768 8.72808 7.98768 9.80039C8.2873 9.94001 8.5773 10.0754 8.85038 10.2085C10.595 11.0581 13.8419 12.6392 13.8465 15.8839C13.8469 16.3085 13.5031 16.6535 13.0785 16.6542C13.0777 16.6539 13.0773 16.6539 13.0769 16.6539Z" fill="#253D8F"/>
<path d="M2.30768 16.6539C2.3073 16.6539 2.30691 16.6539 2.30653 16.6539C1.88191 16.6531 1.53768 16.3085 1.53845 15.8835C1.54345 12.5054 4.8923 10.9446 7.33768 9.80501C7.62922 9.66924 7.91115 9.53808 8.17653 9.40885C10.1738 8.43616 12.3046 7.22193 12.3077 5.11424C12.3081 4.69001 12.6527 4.34616 13.0769 4.34616H13.0781C13.5027 4.34693 13.8469 4.69155 13.8461 5.11655C13.8415 8.36116 10.5946 9.94231 8.84999 10.7919C8.57691 10.925 8.2873 11.06 7.9873 11.2C5.68768 12.2715 3.08038 13.4865 3.07691 15.8858C3.07653 16.31 2.73191 16.6539 2.30768 16.6539Z" fill="#253D8F"/>
<path d="M13.0769 20.5C12.6523 20.5 12.3077 20.1554 12.3077 19.7308V15.8846C12.3077 15.46 12.6523 15.1154 13.0769 15.1154C13.5015 15.1154 13.8461 15.46 13.8461 15.8846V19.7308C13.8461 20.1554 13.5015 20.5 13.0769 20.5Z" fill="#253D8F"/>
<path d="M2.30768 20.5C1.88307 20.5 1.53845 20.1554 1.53845 19.7308V15.8846C1.53845 15.46 1.88307 15.1154 2.30768 15.1154C2.7323 15.1154 3.07691 15.46 3.07691 15.8846V19.7308C3.07691 20.1554 2.7323 20.5 2.30768 20.5Z" fill="#253D8F"/>
<path d="M13.0769 5.88462C12.6523 5.88462 12.3077 5.54 12.3077 5.11538V1.26923C12.3077 0.844615 12.6523 0.5 13.0769 0.5C13.5015 0.5 13.8461 0.844615 13.8461 1.26923V5.11538C13.8461 5.54 13.5015 5.88462 13.0769 5.88462Z" fill="#253D8F"/>
<path d="M2.30768 5.88462C1.88307 5.88462 1.53845 5.54 1.53845 5.11538V1.26923C1.53845 0.844615 1.88307 0.5 2.30768 0.5C2.7323 0.5 3.07691 0.844615 3.07691 1.26923V5.11538C3.07691 5.54 2.7323 5.88462 2.30768 5.88462Z" fill="#253D8F"/>
<path d="M14.6154 2.03846H0.769231C0.344615 2.03846 0 1.69385 0 1.26923C0 0.844615 0.344615 0.5 0.769231 0.5H14.6154C15.04 0.5 15.3846 0.844615 15.3846 1.26923C15.3846 1.69385 15.04 2.03846 14.6154 2.03846Z" fill="#253D8F"/>
</svg>
