<svg width="340" height="381" viewBox="0 0 340 381" fill="none" xmlns="http://www.w3.org/2000/svg">
<path d="M170.738 290.356C240.594 290.356 297.224 233.771 297.224 163.97C297.224 94.1689 240.594 37.584 170.738 37.584C100.882 37.584 44.252 94.1689 44.252 163.97C44.252 233.771 100.882 290.356 170.738 290.356Z" fill="#DCEEFD"/>
<path d="M227.291 64.8364H261.092C261.092 64.8364 277.679 67.4305 277.679 85.1171V111.492C277.679 111.492 279.154 117.543 271.041 117.543H221.472L177.294 73.3997L227.284 64.8364H227.291Z" fill="#7E9DC5"/>
<path d="M258.267 78.1604C263.525 68.6906 276.993 79.9511 277.177 80.1059C274.419 66.9293 261.092 64.8364 261.092 64.8364H227.291L200.784 69.376C197.45 74.144 193.991 78.7352 190.643 82.5231C189.905 83.3558 189.36 84.2033 188.969 85.0582L218.072 114.138C222.534 116.275 225.683 117.535 225.683 117.535H254.446V106.85C254.446 106.85 252.971 87.6891 258.267 78.153V78.1604Z" fill="#7E9DC5"/>
<path d="M227.291 64.8364H261.092C261.092 64.8364 277.679 67.4305 277.679 85.1171V111.492C277.679 111.492 279.154 117.543 271.041 117.543H221.472L177.294 73.3997L227.284 64.8364H227.291Z" stroke="#1A2451" stroke-width="2" stroke-miterlimit="10"/>
<path d="M87.0283 253.509V159.268L123.167 154.758L101.779 151.81L105.098 146.003L87.0283 135.34L97.3537 122.333L87.0283 106.466V86.1781C87.0283 86.1781 87.0283 64.8509 114.317 64.8509H258.267C258.267 64.8509 241.909 63.3771 239.696 90.644C237.484 117.911 239.261 256.456 239.261 256.456C239.261 256.456 236.009 280.776 208.72 280.776C181.432 280.776 89.9784 265.3 89.9784 265.3L87.0283 253.509Z" fill="#F0F6FE" stroke="#1A2451" stroke-width="2" stroke-miterlimit="10"/>
<path d="M67.115 232.137C67.115 232.137 47.2018 276.354 80.3905 280.776H208.72C208.72 280.776 174.034 279.67 192.672 232.137H67.115Z" fill="#DCEEFD" stroke="#1A2451" stroke-width="2" stroke-miterlimit="10"/>
<path d="M102.147 210.397L120.527 185.886C121.456 184.648 124.074 184.671 124.959 185.923L131.649 195.378" stroke="#1A2451" stroke-linecap="round" stroke-linejoin="round"/>
<path d="M127.969 200.964L135.41 190.397C136.288 189.151 138.892 189.114 139.836 190.345L155.25 210.397" stroke="#1A2451" stroke-linecap="round" stroke-linejoin="round"/>
<path d="M112.045 210.147L121.589 196.602C122.186 195.754 123.949 195.732 124.583 196.565L135.026 210.147" stroke="#1A2451" stroke-linecap="round" stroke-linejoin="round"/>
<path d="M165.943 115.028L181.343 98.615C182.125 97.7854 184.315 97.797 185.06 98.6382L190.665 104.968" stroke="#1A2451" stroke-linecap="round" stroke-linejoin="round"/>
<path d="M187.582 108.71L193.822 101.638C194.559 100.802 196.735 100.779 197.531 101.603L210.445 115.028" stroke="#1A2451" stroke-linecap="round" stroke-linejoin="round"/>
<path d="M174.233 114.86L182.236 105.786C182.737 105.217 184.212 105.206 184.743 105.763L193.49 114.86" stroke="#1A2451" stroke-linecap="round" stroke-linejoin="round"/>
<path d="M118.373 103.541C118.373 103.541 118.012 104.285 117.547 105.589" stroke="#1A2451" stroke-width="2" stroke-miterlimit="10" stroke-linecap="round"/>
<path d="M116.33 109.967C114.501 118.619 114.574 134.161 133.861 144.81C158.162 158.229 183.275 149.968 198.026 174.287C200.01 177.559 201.072 180.824 201.581 183.934" stroke="#1A2451" stroke-width="2" stroke-miterlimit="10" stroke-linecap="round" stroke-dasharray="4 4"/>
<path d="M201.868 186.189C201.935 186.933 201.971 187.67 201.986 188.392" stroke="#1A2451" stroke-width="2" stroke-miterlimit="10" stroke-linecap="round"/>
<path d="M191.89 197.67L210.933 178.643" stroke="#D80909" stroke-width="8" stroke-miterlimit="10" stroke-linecap="round"/>
<path d="M210.933 197.67L191.89 178.643" stroke="#D80909" stroke-width="8" stroke-miterlimit="10" stroke-linecap="round"/>
<path d="M198.926 217.067C215.345 217.067 228.656 203.767 228.656 187.361C228.656 170.954 215.345 157.654 198.926 157.654C182.507 157.654 169.196 170.954 169.196 187.361C169.196 203.767 182.507 217.067 198.926 217.067Z" stroke="#1A2451" stroke-width="2" stroke-miterlimit="10"/>
<path d="M228.198 203.89L221.669 212.1L270.046 250.51L276.575 242.299L228.198 203.89Z" fill="#C3D2E1" stroke="#1A2451" stroke-width="2" stroke-miterlimit="10"/>
<path d="M241.68 228.135L248.351 219.746C248.911 219.042 249.937 218.925 250.641 219.484L294.272 254.125C296.183 255.642 296.502 258.428 294.984 260.337L291.786 264.359C290.267 266.269 287.48 266.588 285.568 265.07L241.937 230.429C241.233 229.87 241.115 228.845 241.675 228.141L241.68 228.135Z" fill="#40454C" stroke="#1A2451" stroke-width="2" stroke-miterlimit="10"/>
<path opacity="0.15" d="M202.316 216.857C218.629 214.991 230.339 200.265 228.472 183.965C226.605 167.666 211.867 155.964 195.554 157.83C179.242 159.696 167.531 174.422 169.399 190.722C171.266 207.022 186.004 218.723 202.316 216.857Z" fill="white"/>
<path opacity="0.2" d="M202.371 157.861L169.204 187.611C169.234 191.09 169.875 194.553 171.107 197.833L212.342 160.853C209.171 159.246 205.793 158.259 202.378 157.868L202.371 157.861Z" fill="white"/>
<path opacity="0.2" d="M219.687 166.1L175.539 205.696C176.948 207.486 178.57 209.144 180.429 210.618C184.839 214.119 189.936 216.168 195.143 216.831L228.648 186.778C228.494 179.18 225.44 171.693 219.687 166.1Z" fill="white"/>
<path d="M223.589 156.357C206.449 142.746 181.513 145.598 167.898 162.724C154.276 179.851 157.13 204.767 174.271 218.371C191.411 231.982 216.346 229.131 229.961 212.004C243.583 194.877 240.729 169.961 223.589 156.357ZM222.202 205.843C211.988 218.688 193.284 220.825 180.436 210.618C167.581 200.412 165.442 181.723 175.657 168.885C185.872 156.04 204.576 153.903 217.423 164.11C230.278 174.317 232.417 193.006 222.202 205.843Z" fill="#41464C" stroke="#1A2451" stroke-width="2" stroke-miterlimit="10"/>
<path d="M67.115 232.137C67.115 232.137 47.2018 276.354 80.3905 280.776H208.72C208.72 280.776 195.762 280.363 189.943 269.176C189.943 269.176 91.7189 272.536 78.1779 268.247C61.6868 263.015 75.7072 232.137 75.7072 232.137H67.115Z" fill="#7E9DC5"/>
<path d="M67.115 232.137C67.115 232.137 47.2018 276.354 80.3905 280.776H208.72C208.72 280.776 174.034 279.67 192.672 232.137H67.115Z" stroke="#1A2451" stroke-width="2" stroke-miterlimit="10"/>
<path d="M129.067 96.5399C129.067 90.8418 124.444 86.2227 118.741 86.2227C113.039 86.2227 108.416 90.8418 108.416 96.5399C108.416 102.238 113.039 106.857 118.741 106.857C124.444 106.857 129.067 102.238 129.067 96.5399Z" fill="#D80909"/>
<path d="M169.631 351.522C231.137 351.522 280.998 346.573 280.998 340.468C280.998 334.363 231.137 329.414 169.631 329.414C108.125 329.414 58.2646 334.363 58.2646 340.468C58.2646 346.573 108.125 351.522 169.631 351.522Z" fill="#DCEEFD"/>
</svg>
