<svg width="340" height="381" viewBox="0 0 340 381" fill="none" xmlns="http://www.w3.org/2000/svg">
<path d="M170.738 290.356C240.594 290.356 297.224 233.771 297.224 163.97C297.224 94.1689 240.594 37.584 170.738 37.584C100.882 37.584 44.252 94.1689 44.252 163.97C44.252 233.771 100.882 290.356 170.738 290.356Z" fill="#DCEEFD"/>
<path d="M278.497 223.721L277.664 257.488C277.664 257.488 274.662 273.996 256.962 273.553L230.573 272.905C230.573 272.905 224.488 274.231 224.687 266.125C224.887 258.019 225.912 216.61 225.912 216.61L271.166 173.572L278.497 223.721Z" fill="#7E9DC5"/>
<path d="M264.404 254.334C273.748 259.817 262.147 272.993 261.984 273.178C275.238 270.746 277.657 257.488 277.657 257.488L278.49 223.721L274.603 197.125C269.913 193.676 265.407 190.109 261.697 186.675C260.878 185.916 260.045 185.356 259.204 184.943L229.386 213.301C227.136 217.708 225.794 220.818 225.794 220.818L225.086 249.551L235.78 249.817C235.78 249.817 254.985 248.814 264.396 254.341L264.404 254.334Z" fill="#7E9DC5"/>
<path d="M278.497 223.721L277.664 257.488C277.664 257.488 274.662 273.996 256.962 273.553L230.573 272.905C230.573 272.905 224.488 274.231 224.687 266.125C224.887 258.019 225.912 216.61 225.912 216.61L271.166 173.572L278.497 223.721Z" stroke="#1A2451" stroke-width="2" stroke-miterlimit="10"/>
<path d="M260.613 83.0905L240.316 82.5893L224.186 92.5086L211.427 81.8745L200.313 99.657L194.582 96.2007L192.819 107.004C192.915 111.478 206.862 118.346 206.862 118.346C206.862 118.346 192.922 125.185 192.804 129.665C192.679 134.573 187.826 142.201 187.826 142.201C187.826 142.201 192.045 156.763 191.919 161.546C191.831 165.046 195.924 172.622 195.924 172.622C195.924 172.622 191.573 175.945 191.514 178.716C191.447 181.708 193.254 190.986 193.254 190.986C192.48 192.446 191.16 194.524 191.086 197.612C190.975 202.063 194.973 210.936 194.973 210.936C194.973 210.936 192.576 218.246 191.735 222.653C191.706 224.053 190.385 226.279 190.356 227.679C190.319 229.396 190.282 231.12 190.238 232.837C217.681 233.538 242.433 234.429 252.367 235.483C275.629 237.944 277.642 250.207 277.738 253.722L281.271 110.881C281.942 83.6211 260.605 83.0978 260.605 83.0978L260.613 83.0905Z" fill="#F0F6FE" stroke="#1A2451" stroke-width="2" stroke-miterlimit="10"/>
<path d="M215.255 194.158L231.171 178.56C231.975 177.774 234.165 177.824 234.88 178.656L240.279 184.893" stroke="#1A2451" stroke-linecap="round" stroke-linejoin="round"/>
<path d="M237.078 188.45L243.539 181.718C244.299 180.92 246.482 180.943 247.249 181.752L259.735 194.996" stroke="#1A2451" stroke-linecap="round" stroke-linejoin="round"/>
<path d="M223.545 194.153L231.827 185.522C232.344 184.983 233.819 184.999 234.335 185.545L242.794 194.518" stroke="#1A2451" stroke-linecap="round" stroke-linejoin="round"/>
<path d="M242.462 113.968C242.462 113.968 241.953 113.534 241.054 112.996" stroke="#1A2451" stroke-width="1.55" stroke-miterlimit="10" stroke-linecap="round"/>
<path d="M237.868 111.558C232.594 109.908 223.833 110.652 217.298 128.832C208.64 152.908 215.204 178.34 200.239 192.718C198.454 194.435 196.588 195.401 194.818 195.909" stroke="#1A2451" stroke-width="1.55" stroke-miterlimit="10" stroke-linecap="round" stroke-dasharray="3.1 3.1"/>
<path d="M193.1 196.27C192.51 196.351 191.934 196.388 191.389 196.395" stroke="#1A2451" stroke-width="1.55" stroke-miterlimit="10" stroke-linecap="round"/>
<path d="M249.188 124.817C254.888 124.958 259.624 120.455 259.766 114.759C259.907 109.063 255.4 104.33 249.699 104.189C243.998 104.048 239.263 108.551 239.121 114.248C238.98 119.944 243.487 124.676 249.188 124.817Z" fill="#D80909"/>
<path d="M169.631 351.522C231.137 351.522 280.998 346.573 280.998 340.468C280.998 334.363 231.137 329.414 169.631 329.414C108.125 329.414 58.2646 334.363 58.2646 340.468C58.2646 346.573 108.125 351.522 169.631 351.522Z" fill="#DCEEFD"/>
<path d="M187.487 232.705C187.303 230.995 187.118 229.285 186.926 227.576C186.771 226.183 187.789 223.803 187.634 222.41C187.893 217.937 189.309 210.368 189.309 210.368C189.309 210.368 184.175 202.1 183.696 197.671C183.364 194.605 184.404 192.365 184.979 190.817C184.979 190.817 181.97 181.863 181.638 178.886C181.336 176.13 185.208 172.268 185.208 172.268C185.208 172.268 180.156 165.297 179.78 161.811C179.271 157.05 173.171 143.174 173.171 143.174C173.171 143.174 176.977 134.971 176.453 130.093C175.974 125.634 188.896 117.027 188.896 117.027C188.896 117.027 174.167 112.052 173.481 107.631L173.806 96.6872L179.942 99.3623L188.623 80.2681L76.6956 92.3024L62.8301 96.7609C62.8301 96.7609 54.0019 189.616 56.9225 216.728C59.8431 243.84 89.44 243.929 89.44 243.929C89.44 243.929 189.825 232.462 187.494 232.705H187.487Z" fill="#F0F6FE" stroke="#1A2451" stroke-width="2.2" stroke-miterlimit="10"/>
<path d="M89.1557 70.5C89.1557 70.5 44.0381 55.7945 43.1826 89.237L56.9154 216.728C56.9154 216.728 54.3045 182.151 103.593 195.578L90.1557 70.8429L89.1557 70.5Z" fill="#DCEEFD" stroke="#1A2451" stroke-width="2" stroke-miterlimit="10"/>
<path d="M105.998 136.445L121.648 113.998C122.438 112.861 125.048 112.641 126.059 113.621L133.722 121.028" stroke="#1A2451" stroke-linecap="round" stroke-linejoin="round"/>
<path d="M130.661 126.098L136.93 116.467C137.668 115.33 140.256 115.066 141.326 116.021L158.798 131.608" stroke="#1A2451" stroke-linecap="round" stroke-linejoin="round"/>
<path d="M115.807 135.333L123.846 122.982C124.347 122.209 126.095 122.033 126.818 122.68L138.655 133.241" stroke="#1A2451" stroke-linecap="round" stroke-linejoin="round"/>
<path d="M90.1631 70.8426C90.1631 70.8426 44.0381 55.7942 43.1826 89.2368L56.9154 216.728C56.9154 216.728 55.9418 203.809 66.4442 196.831C66.4442 196.831 52.5935 99.6056 55.4108 85.6994C58.8477 68.7571 91.0776 79.3765 91.0776 79.3765L90.1557 70.8426H90.1631Z" fill="#7E9DC5"/>
<path d="M90.1631 70.8426C90.1631 70.8426 44.0381 55.7942 43.1826 89.2368L56.9154 216.728C56.9154 216.728 54.3045 182.151 103.593 195.578L91.0005 78L90.1631 70.8426Z" stroke="#1A2451" stroke-width="2" stroke-miterlimit="10"/>
<path d="M183.659 195.659C183.659 195.659 153.037 208.187 151.562 158.812C150.935 137.86 116.161 152.179 119.848 166.918C125.749 190.5 140.499 192.711 135.336 207.45C129.672 223.626 115.807 220.538 115.807 220.538" stroke="#1A2451" stroke-width="1.55" stroke-miterlimit="10" stroke-linecap="round" stroke-dasharray="3.1 3.1"/>
<path d="M110.93 227.959C116.631 228.1 121.366 223.597 121.508 217.9C121.649 212.204 117.142 207.472 111.441 207.331C105.741 207.19 101.005 211.693 100.863 217.389C100.722 223.085 105.229 227.818 110.93 227.959Z" fill="#D80909"/>
<path d="M206.367 46.8869C206.506 45.0607 205.137 43.4676 203.309 43.3287C201.482 43.1898 199.887 44.5576 199.748 46.3838L198.601 61.4477C198.462 63.2739 199.831 64.867 201.659 65.0059C203.487 65.1448 205.081 63.777 205.22 61.9507L206.367 46.8869Z" fill="#F0F6FE" stroke="#1A2451" stroke-width="2.02" stroke-miterlimit="10"/>
<path d="M179.419 47.6423C178.626 45.9913 176.643 45.2956 174.991 46.0884C173.339 46.8812 172.642 48.8623 173.436 50.5134L181.107 66.477C181.901 68.1281 183.884 68.8238 185.536 68.031C187.188 67.2382 187.884 65.257 187.091 63.606L179.419 47.6423Z" fill="#F0F6FE" stroke="#1A2451" stroke-width="2.14" stroke-miterlimit="10"/>
<path d="M214.444 65.6618C213.41 67.1739 213.798 69.2375 215.312 70.2709C216.825 71.3043 218.89 70.9163 219.924 69.4042L229.924 54.7837C230.959 53.2716 230.57 51.208 229.057 50.1746C227.544 49.1412 225.479 49.5292 224.444 51.0413L214.444 65.6618Z" fill="#F0F6FE" stroke="#1A2451" stroke-width="2.14" stroke-miterlimit="10"/>
</svg>
