<svg xmlns="http://www.w3.org/2000/svg" width="36.513" height="37.387" viewBox="0 0 36.513 37.387">
  <g id="icon_2" data-name="icon 2" transform="translate(-184.512 -176)">
    <path id="Path_3519" data-name="Path 3519" d="M207.981,329.135l-1.374,7.8a1.189,1.189,0,0,1-1.171.983H192.976a1.189,1.189,0,0,1-1.171-1.4l1.374-7.794a1.189,1.189,0,0,1,1.171-.986H206.81a1.19,1.19,0,0,1,1.171,1.4Zm-20.748-4.372-2.671,14.983a3.3,3.3,0,0,0,3.249,3.879h21.453a3.3,3.3,0,0,0,3.249-2.722l2.671-14.983a3.3,3.3,0,0,0-3.249-3.879H190.481a3.3,3.3,0,0,0-3.249,2.722Z" transform="translate(0 -138.54)" fill="#253d8f"/>
    <path id="Path_3520" data-name="Path 3520" d="M184.991,779.918a3.831,3.831,0,0,1,3.524-3.512,2.838,2.838,0,0,1,3.4,3,3.831,3.831,0,0,1-3.524,3.513A2.838,2.838,0,0,1,184.991,779.918Z" transform="translate(-0.45 -569.551)" fill="#253d8f"/>
    <path id="Path_3521" data-name="Path 3521" d="M529.191,779.918a3.831,3.831,0,0,1,3.524-3.512,2.838,2.838,0,0,1,3.4,3,3.831,3.831,0,0,1-3.524,3.513A2.838,2.838,0,0,1,529.191,779.918Z" transform="translate(-326.973 -569.551)" fill="#253d8f"/>
    <path id="Path_3522" data-name="Path 3522" d="M681.022,181.7H672.6l.639-3.627A2.511,2.511,0,0,1,675.712,176h5.675a2.66,2.66,0,0,1,2.619,3.122l-.015.089A3.015,3.015,0,0,1,681.022,181.7Z" transform="translate(-463.022)" fill="#253d8f"/>
  </g>
</svg>
