<svg xmlns="http://www.w3.org/2000/svg" width="40.341" height="63.5" viewBox="0 0 40.341 63.5">
  <path id="Path_3510" data-name="Path 3510" d="M61.186,113.024a15.285,15.285,0,0,0-15.268,15.267c0,.382.02.76.048,1.135a27.372,27.372,0,0,0-13.65,23.668v23.429a5.125,5.125,0,0,0,5.126-5.126v-6.582H59.8a5.126,5.126,0,0,0,5.126-5.126H53.478a27.338,27.338,0,0,0,11.443-21.984c0-.086.007-.17.007-.258q0-.782-.046-1.551c-.027-.451-.068-.9-.116-1.342-.006-.058-.009-.117-.015-.175a27.971,27.971,0,0,0-.524-3.057c-.085-.37-.183-.734-.283-1.1a10.136,10.136,0,0,1,8.712-11.993A15.232,15.232,0,0,0,61.186,113.024ZM38.424,159.668l0-.012h-.981v-6.2h.007c0-.121-.007-.241-.007-.363a22.3,22.3,0,0,1,14.424-20.811c.479-.18.968-.343,1.462-.491v0l.041-.011a21.984,21.984,0,0,1,2.25-.53,20.428,20.428,0,0,1,3.3-.459s.162.779.372,1.963a22.722,22.722,0,0,1,.375,2.291v.007s0,.008,0,.013a21.789,21.789,0,0,1,.132,2.385A22.265,22.265,0,0,1,38.424,159.668Zm20.42-33.914c-.766.025-1.526.071-2.276.157a27.18,27.18,0,0,0-5.451,1.2,10.059,10.059,0,0,1,11.3-8.88A15.231,15.231,0,0,0,58.844,125.754Z" transform="translate(-32.315 -113.024)" fill="#ffcc02"/>
</svg>
