<svg width="24" height="24" viewBox="0 0 24 24" fill="none" xmlns="http://www.w3.org/2000/svg">
<path d="M21 13.0997C21 18.5988 17.0625 21.3483 12.3825 22.943C12.1374 23.0242 11.8712 23.0203 11.6288 22.932C6.9375 21.3483 3 18.5988 3 13.0997V5.40098C3 5.10929 3.11853 4.82955 3.32951 4.62329C3.54048 4.41704 3.82663 4.30116 4.125 4.30116C6.375 4.30116 9.1875 2.98138 11.145 1.30966C11.3833 1.1106 11.6865 1.00122 12 1.00122C12.3135 1.00122 12.6167 1.1106 12.855 1.30966C14.8238 2.99238 17.625 4.30116 19.875 4.30116C20.1734 4.30116 20.4595 4.41704 20.6705 4.62329C20.8815 4.82955 21 5.10929 21 5.40098V13.0997Z" fill="#253D8F"/>
<path d="M7.5 12L10.5 15L16.5 9" stroke="white" stroke-width="2" stroke-linecap="round" stroke-linejoin="round"/>
</svg>
