<svg xmlns="http://www.w3.org/2000/svg" width="23.5" height="34.578" viewBox="0 0 23.5 34.578">
  <g id="location" transform="translate(-23.141 -2.372)">
    <path id="Path_3529" data-name="Path 3529" d="M37.359,34.009a.5.5,0,0,0,.4.2h.007a.5.5,0,0,0,.4-.193c.416-.531,10.194-13.1,10.194-21.058a10.59,10.59,0,0,0-21.18,0c0,3.048,1.72,7.524,5.113,13.3C34.792,30.534,37.334,33.975,37.359,34.009Zm.4-30.631a9.594,9.594,0,0,1,9.584,9.584c0,6.72-7.7,17.4-9.573,19.9-1.851-2.6-9.594-13.81-9.594-19.9a9.594,9.594,0,0,1,9.584-9.584Z" transform="translate(-2.873)" fill="#0c0c0c"/>
    <path id="Path_3530" data-name="Path 3530" d="M55.006,24.117A6.088,6.088,0,1,0,48.918,30.2,6.088,6.088,0,0,0,55.006,24.117ZM48.918,29.2A5.081,5.081,0,1,1,54,24.117,5.081,5.081,0,0,1,48.918,29.2Z" transform="translate(-14.027 -11.155)" fill="#0c0c0c"/>
    <path id="Path_3531" data-name="Path 3531" d="M40.022,101.16a.5.5,0,0,0-.123,1c4.333.532,5.735,1.535,5.735,1.937,0,.755-3.792,2.226-10.744,2.226s-10.744-1.471-10.744-2.226c0-.431,1.375-1.314,5.065-1.848a.5.5,0,0,0-.144-1c-2.7.391-5.927,1.2-5.927,2.844,0,2.372,7.027,3.232,11.75,3.232s11.75-.861,11.75-3.232C46.641,102.248,42.494,101.464,40.022,101.16Z" transform="translate(0 -70.378)" fill="#0c0c0c"/>
  </g>
</svg>
