<?xml version="1.0" encoding="utf-8"?>
<!-- Generator: Adobe Illustrator 27.3.1, SVG Export Plug-In . SVG Version: 6.00 Build 0)  -->
<svg version="1.1" id="Layer_1" xmlns="http://www.w3.org/2000/svg" xmlns:xlink="http://www.w3.org/1999/xlink" x="0px" y="0px"
	 viewBox="0 0 177 171.9" style="enable-background:new 0 0 177 171.9;" xml:space="preserve">
<style type="text/css">
	.st0{fill:none;stroke:#253D8F;stroke-width:9.9348;stroke-linecap:round;stroke-linejoin:round;}
</style>
<polygon class="st0" points="135.1,164.8 41.1,164.8 23.9,7.6 152.2,7.6 "/>
<path class="st0" d="M28.1,36.4c0,0,12-10.4,34.2-10.4s27.9,17.7,53.6,17.7s34-13.5,34-13.5"/>
<g>
	<path class="st0" d="M64.5,87l23.6-29.6L111.7,87c9.6,12.1,8.7,29.4-2.3,40.4c-5.8,5.8-13.3,8.9-21.3,8.9s-15.7-3.1-21.3-8.9l0,0
		C55.7,116.4,54.9,99.1,64.5,87z"/>
	<polyline class="st0" points="77,111.1 84.6,118.7 102.4,101.3 	"/>
</g>
</svg>
