<svg width="35" height="34" viewBox="0 0 35 34" fill="none" xmlns="http://www.w3.org/2000/svg">
<path d="M1.5 27.6667V17C1.5 12.7565 3.18571 8.68687 6.18629 5.68629C9.18687 2.68571 13.2565 1 17.5 1C21.7435 1 25.8131 2.68571 28.8137 5.68629C31.8143 8.68687 33.5 12.7565 33.5 17V27.6667M33.5 29.4444C33.5 30.3874 33.1254 31.2918 32.4586 31.9586C31.7918 32.6254 30.8874 33 29.9444 33H28.1667C27.2237 33 26.3193 32.6254 25.6525 31.9586C24.9857 31.2918 24.6111 30.3874 24.6111 29.4444V24.1111C24.6111 23.1681 24.9857 22.2638 25.6525 21.597C26.3193 20.9302 27.2237 20.5556 28.1667 20.5556H33.5V29.4444ZM1.5 29.4444C1.5 30.3874 1.8746 31.2918 2.5414 31.9586C3.20819 32.6254 4.11256 33 5.05556 33H6.83333C7.77633 33 8.6807 32.6254 9.34749 31.9586C10.0143 31.2918 10.3889 30.3874 10.3889 29.4444V24.1111C10.3889 23.1681 10.0143 22.2638 9.34749 21.597C8.6807 20.9302 7.77633 20.5556 6.83333 20.5556H1.5V29.4444Z" stroke="#253D8F" stroke-width="2" stroke-linecap="round" stroke-linejoin="round"/>
</svg>
