<svg xmlns="http://www.w3.org/2000/svg" width="25.609" height="25.71" viewBox="0 0 25.609 25.71">
  <g id="Solid" transform="translate(0 0.001)">
    <path id="Path_3478" data-name="Path 3478" d="M28.821,21.6a2.943,2.943,0,0,1-1.285-2.39V14.776A8.738,8.738,0,0,0,19.08,6.05h-.244c-4.819,0-8.738,4.241-8.738,9.5V19.08a2.917,2.917,0,0,1-1.491,2.57,5.037,5.037,0,0,0-1.067.822,7.787,7.787,0,0,0-1.478,3.855A1.041,1.041,0,0,0,7.09,27.51h6.425a5.487,5.487,0,0,0,10.692,0h6.425a1.015,1.015,0,0,0,1.015-1.182A7.71,7.71,0,0,0,28.821,21.6Z" transform="translate(-6.053 -6.051)" fill="#00205b"/>
  </g>
</svg>
