<svg width="20" height="19" viewBox="0 0 20 19" fill="none" xmlns="http://www.w3.org/2000/svg">
<path d="M17.7256 8.47276V2.91183C17.7256 1.78105 16.8057 0.861084 15.6749 0.861084H4.32504C3.19426 0.861084 2.27437 1.78105 2.27437 2.91183V8.47276C0.971406 8.7862 0 9.96069 0 11.3585V15.5062C0 15.8353 0.266758 16.1021 0.59582 16.1021H2.27434V17.5431C2.27434 17.8722 2.54109 18.1389 2.87016 18.1389C3.19922 18.1389 3.46598 17.8722 3.46598 17.5431V16.1021H16.5339V17.5431C16.5339 17.8722 16.8007 18.1389 17.1298 18.1389C17.4588 18.1389 17.7256 17.8722 17.7256 17.5431V16.1021H19.4041C19.7332 16.1021 19.9999 15.8353 19.9999 15.5062V11.3585C20 9.96069 19.0286 8.7862 17.7256 8.47276ZM3.46602 2.91183C3.46602 2.43815 3.85141 2.05276 4.32504 2.05276H15.6749C16.1486 2.05276 16.534 2.43815 16.534 2.91183V8.39003H14.565V7.45003C14.565 5.89261 13.298 4.62558 11.7406 4.62558H8.25949C6.70207 4.62558 5.43504 5.89265 5.43504 7.45003V8.38999H3.46602V2.91183ZM13.3734 7.45003V8.38999H6.6266V7.45003C6.6266 6.54968 7.35906 5.81722 8.25941 5.81722H11.7405C12.6409 5.81718 13.3734 6.54972 13.3734 7.45003ZM1.19164 14.9104V11.3585C1.19164 10.3787 1.98871 9.58167 2.96844 9.58167H17.0315C18.0112 9.58167 18.8083 10.3787 18.8083 11.3585V14.9104H1.19164Z" fill="#253D8F"/>
</svg>
