<svg width="36" height="36" viewBox="0 0 36 36" fill="none" xmlns="http://www.w3.org/2000/svg">
<path d="M33.75 6C32.5093 6 31.5 7.00927 31.5 8.25V18H26.25C25.0092 18 24 19.0093 24 20.25C24 21.4908 25.0092 22.5 26.25 22.5H30V28.5H27.75C27.3354 28.5 26.9999 28.8355 26.9999 29.25C26.9999 29.6646 27.3354 30 27.75 30H33.75C34.1646 30 34.5 29.6646 34.5 29.25C34.5 28.8355 34.1646 28.5 33.75 28.5H31.5V22.5H33.75C34.9907 22.5 36 21.4908 36 20.25V8.25C36 7.00934 34.9907 6 33.75 6Z" fill="#253D8F"/>
<path d="M9.75002 18H4.5V8.25C4.5 7.00927 3.49073 6 2.25 6C1.00927 6 0 7.00927 0 8.25V20.25C0 21.4908 1.00927 22.5 2.25 22.5H4.5V28.5H2.25C1.83544 28.5 1.49998 28.8355 1.49998 29.25C1.49998 29.6646 1.83544 30 2.25 30H8.24998C8.66454 30 9 29.6646 9 29.25C9 28.8355 8.66454 28.5 8.24998 28.5H5.99998V22.5H9.74995C10.9907 22.5 12 21.4908 12 20.25C12 19.0093 10.9908 18 9.75002 18Z" fill="#253D8F"/>
<path d="M20.0384 17.1387C20.6946 17.5423 21.4388 18 22.8706 18C24.3025 18 25.0466 17.5423 25.7029 17.1387C26.2837 16.782 26.7422 16.5 27.75 16.5C28.1646 16.5 28.5 16.1646 28.5 15.75V13.5C28.5 11.8455 27.1546 10.5 25.5 10.5H10.5C8.84545 10.5 7.49995 11.8454 7.49995 13.5V15.75C7.49995 16.1646 7.83542 16.5 8.24998 16.5C9.25488 16.5 9.71192 16.782 10.2912 17.1387C10.9467 17.5423 11.6894 18 13.1198 18C14.5495 18 15.2929 17.5423 15.9484 17.1387C16.3608 16.8848 16.7193 16.6739 17.2499 16.5704V28.5H14.2499C13.8353 28.5 13.4999 28.8355 13.4999 29.25C13.4999 29.6646 13.8353 30 14.2499 30H21.7499C22.1645 30 22.4999 29.6646 22.4999 29.25C22.4999 28.8355 22.1645 28.5 21.7499 28.5H18.7499V16.5746C19.2722 16.6793 19.6294 16.8875 20.0384 17.1387Z" fill="#253D8F"/>
</svg>
