<svg width="18" height="18" viewBox="0 0 18 18" fill="none" xmlns="http://www.w3.org/2000/svg">
<path d="M17.116 16.4L12.83 11.94C13.8918 10.6723 14.4894 9.0803 14.524 7.42702C14.5586 5.77374 14.0282 4.15812 13.0203 2.84712C12.0124 1.53611 10.5875 0.608164 8.98086 0.216604C7.37425 -0.174955 5.68212 -0.00669754 4.18408 0.693577C2.68603 1.39385 1.4717 2.58423 0.741744 4.06804C0.0117844 5.55185 -0.190128 7.24029 0.169368 8.85439C0.528864 10.4685 1.42826 11.9116 2.71894 12.9454C4.00962 13.9792 5.61436 14.5417 7.268 14.54C8.75876 14.5439 10.2139 14.0844 11.432 13.225L15.749 17.714C15.9232 17.8953 16.1624 17.9999 16.4138 18.0049C16.5382 18.0073 16.662 17.9853 16.7779 17.9399C16.8939 17.8945 16.9997 17.8268 17.0895 17.7405C17.1793 17.6542 17.2511 17.5511 17.3011 17.437C17.351 17.323 17.3779 17.2002 17.3804 17.0757C17.3828 16.9513 17.3608 16.8275 17.3154 16.7116C17.27 16.5956 17.2023 16.4898 17.116 16.4ZM7.267 1.9C8.32973 1.8998 9.36865 2.21482 10.2523 2.8052C11.136 3.39559 11.8247 4.23481 12.2313 5.21668C12.6379 6.19856 12.7441 7.27898 12.5365 8.32125C12.329 9.36352 11.8169 10.3208 11.0652 11.072C10.3134 11.8232 9.35574 12.3345 8.31332 12.5413C7.2709 12.7481 6.19056 12.6411 5.20899 12.2337C4.22741 11.8264 3.38871 11.1371 2.79898 10.253C2.20925 9.36889 1.89501 8.32973 1.896 7.267C1.89891 5.84378 2.46584 4.47975 3.47258 3.47376C4.47933 2.46776 5.84378 1.90185 7.267 1.9Z" fill="#253D8F"/>
</svg>
