<?xml version="1.0" encoding="UTF-8"?>
<svg id="Layer_1" data-name="Layer 1" xmlns="http://www.w3.org/2000/svg" viewBox="0 0 466 423.45">
  <defs>
    <style>
      .cls-1 {
        fill: #253d8f;
        stroke-width: 0px;
      }
    </style>
  </defs>
  <path class="cls-1" d="M459.13,253.6c-2.22-11.5-8.41-20.07-18.73-25.67-2.13-1.15-4.18-2.44-6.3-3.62-5.45-3.04-5.62-3.75-2.18-8.73,3.39-4.91,4.05-10.13,1.47-15.56-2.65-5.58-7.25-8.56-13.35-9.05-3.05-.25-6.2-.44-9.2,0-7.34,1.07-12.4-.98-14.38-8.72-.59-2.29-2.16-4.31-3.22-6.49-13.49-27.72-34.98-45.09-65.33-52.05-24.05-5.51-48.33-8.53-72.91-9.66-13.91-.64-27.77-.76-41.58-.25l.24,4.19,1.56,26.81c13.14-.52,26.33-.44,39.57.21,22.48,1.1,44.69,3.84,66.64,9.01,19.34,4.55,33.65,15.04,42.51,32.84,2.73,5.48,5.6,10.9,8.23,16.43,4.15,8.7.81,13.92-8.77,13.63-34.75-1.05-69.49-2.22-104.24-3.22-8.88-.26-17.78-.04-26.67-.04,0-.27,0-.54-.01-.81-42.18,1.35-84.37,2.41-126.52,4.23-13.59.59-17.4-5.57-10.76-16.82,2.04-3.46,3.77-7.13,5.44-10.79,3.46-7.55,7.87-13.82,13.12-18.98-.26-.22-.52-.43-.78-.66-7.7-6.83-15.22-13.51-22.59-20.06-.04.05-.09.09-.13.14-9.76,11.01-16.72,23.7-22.9,36.87-1.41,3.01-2.92,4.52-6.49,4.22-4.33-.37-8.72-.09-13.09-.09-6.73,0-11.94,2.73-14.98,8.81-2.97,5.94-2.14,11.6,2.06,16.7,2.44,2.97,2,5.21-1.31,7.04-2.4,1.33-4.73,2.78-7.16,4.06-10.89,5.71-17.82,14.52-19.48,26.69-2.48,18.19-4.97,36.42-6.34,54.72-2.12,28.23,1.55,56.02,8.47,83.42,1.96,7.76,5.55,13.77,13.9,15.41,2.19,10.12,7.22,15.48,15.37,15.57,18.43.2,36.87.16,55.3.02,7.05-.05,12.53-4.63,14.54-11.43.39-1.32.73-2.65,1.03-3.77,82.71-16.07,165.03-16.08,247.68-.21,2.56,11.46,7.6,15.48,19.06,15.48,16.49,0,32.99.03,49.48,0,9.42-.02,14.6-4.12,17.17-13.19.32-1.13,1.38-2.55,2.41-2.89,6.35-2.07,9.61-6.58,11.32-12.77,12.88-46.75,11.91-93.76,2.79-140.94ZM108.34,277.68c-.17,1.32-3.13,3.05-5,3.26-11.4,1.24-22.85,2.09-36.06,3.23-6.16-.36-14.16-.15-21.91-1.43-11.97-1.98-18.25-14.57-13.13-25.67.87-1.89,3.83-3.87,5.9-3.96,6.39-.27,13.01-.55,19.19.8,14.97,3.28,29.82,7.25,43.36,14.83,1.69.94,3.65,1.73,4.85,3.13,1.4,1.64,3.03,4.01,2.79,5.82ZM328.88,357.64c-7.31,2.14-15.15,3.29-22.78,3.42-24.24.41-48.49.15-72.74.15,0-.24,0-.49,0-.73-28.28,0-56.56.1-84.84-.07-7.53-.05-14.17-3.1-19.64-8.29-6.41-6.08-6.55-13.3.97-17.85,7.46-4.51,15.81-8.43,24.27-10.3,46.05-10.14,92.46-12.64,139.03-3.66,12.15,2.34,24.14,5.7,35.98,9.33,6.46,1.98,12.49,5.97,12.41,13.77-.08,7.86-6.08,12.29-12.67,14.22ZM434.84,266.33c-.56,9.77-4.75,14.61-14.42,16.58-1.74.36-3.5.78-5.26.81-6.3.1-12.61.04-20.92.04-9.13-.76-20.26-1.56-31.34-2.74-2-.21-5.38-2.05-5.39-3.14,0-2.1,1.43-5.24,3.19-6.12,8.76-4.38,17.55-9.02,26.84-11.95,10.72-3.37,21.87-5.71,33.01-7.27,12.45-1.75,15.01,1.26,14.29,13.79Z"/>
  <path class="cls-1" d="M200.56,87.97c1.19,20.45,2.38,40.91,3.57,61.36-.06.15-.16.3-.18.45-1.06,7.64-6.14,12.35-13.89,12.81-18.76,1.1-37.52,2.21-56.28,3.27-4.99.28-9.53-1.2-13.26-4.51-27.74-24.62-55.45-49.28-83.09-74.01-1.65-1.48-3.11-3.44-3.98-5.46-2.49-5.76-1-10.92,3.08-15.5,17.5-19.64,35-39.28,52.45-58.97,2.86-3.23,5.85-6.13,10.19-7.19l3.59-.21c4.44.52,7.75,3.02,10.98,5.9,26.71,23.85,53.5,47.62,80.19,71.49,1.9,1.7,3.36,3.95,4.77,6.11.87,1.32,1.26,2.96,1.86,4.46ZM161.46,136.3c7.59-.45,13.55-7.15,13.1-14.73-.45-7.59-7.15-13.56-14.73-13.11-7.57.45-13.55,7.16-13.1,14.74.44,7.58,7.16,13.55,14.73,13.1Z"/>
</svg>