<svg id="Group_3578" data-name="Group 3578" xmlns="http://www.w3.org/2000/svg" width="14.399" height="14.401" viewBox="0 0 14.399 14.401">
  <path id="arrows_2_" data-name="arrows (2)" d="M23.092,9.659A.626.626,0,0,0,22.3,8.9L9.14,13.285a.621.621,0,0,0-.048,1.159l5.915,2.535,2.535,5.915a.621.621,0,0,0,.57.377h.026a.621.621,0,0,0,.564-.424L23.088,9.682C23.091,9.675,23.09,9.667,23.092,9.659ZM11.081,13.947,20.2,10.906l-4.865,4.865Zm6.959,6.959-1.824-4.257,4.865-4.865Z" transform="translate(-8.715 -8.869)" fill=""/>
</svg>
