<svg xmlns="http://www.w3.org/2000/svg" width="27.152" height="25.709" viewBox="0 0 27.152 25.709">
  <g id="Layer_2" data-name="Layer 2" transform="translate(0 0.001)">
    <path id="Path_3479" data-name="Path 3479" d="M26.532,10.887a3.548,3.548,0,0,1-2.8-4.8,1.665,1.665,0,0,0-.5-1.873,13.35,13.35,0,0,0-3.982-2.308,1.674,1.674,0,0,0-1.892.525,3.539,3.539,0,0,1-5.575,0A1.674,1.674,0,0,0,9.9,1.909,13.413,13.413,0,0,0,6.186,3.991a1.683,1.683,0,0,0-.525,1.928A3.53,3.53,0,0,1,2.72,10.769a1.674,1.674,0,0,0-1.466,1.349A12.8,12.8,0,0,0,1,14.652a12.96,12.96,0,0,0,.172,2.127,1.674,1.674,0,0,0,1.475,1.4,3.53,3.53,0,0,1,2.878,4.987,1.647,1.647,0,0,0,.462,1.973,13.449,13.449,0,0,0,3.946,2.272,1.81,1.81,0,0,0,.57.1,1.665,1.665,0,0,0,1.358-.706,3.5,3.5,0,0,1,2.9-1.52,3.548,3.548,0,0,1,2.842,1.43,1.665,1.665,0,0,0,1.955.552,13.576,13.576,0,0,0,3.62-2.163,1.674,1.674,0,0,0,.489-1.91A3.53,3.53,0,0,1,26.5,18.317a1.674,1.674,0,0,0,1.421-1.376,13.123,13.123,0,0,0,.235-2.29,12.994,12.994,0,0,0-.227-2.419,1.656,1.656,0,0,0-1.393-1.346ZM19.1,14.652a4.525,4.525,0,1,1-4.525-4.525A4.525,4.525,0,0,1,19.1,14.652Z" transform="translate(-1 -1.805)" fill="#00205b"/>
  </g>
</svg>
