<?xml version="1.0" encoding="utf-8"?>
<!-- Generator: Adobe Illustrator 27.3.1, SVG Export Plug-In . SVG Version: 6.00 Build 0)  -->
<svg version="1.1" id="Layer_1" xmlns="http://www.w3.org/2000/svg" xmlns:xlink="http://www.w3.org/1999/xlink" x="0px" y="0px"
	 viewBox="0 0 177 171.9" style="enable-background:new 0 0 177 171.9;" xml:space="preserve">
<style type="text/css">
	.st0{fill:none;stroke:#253D8F;stroke-width:9.9348;stroke-linecap:round;stroke-linejoin:round;}
</style>
<line class="st0" x1="83.4" y1="95.2" x2="169.6" y2="95.2"/>
<line class="st0" x1="7.4" y1="95.2" x2="52.7" y2="95.2"/>
<line class="st0" x1="51.5" y1="165.5" x2="51.5" y2="154.9"/>
<line class="st0" x1="136.3" y1="165.5" x2="136.3" y2="154.9"/>
<path class="st0" d="M108.6,32.5C108.6,18.4,120,7,134.1,7s25.5,11.4,25.5,25.5l0.1,1.1v97.4c0,13.2-10.7,23.8-23.8,23.8H41.2
	c-13.2,0-23.8-10.7-23.8-23.8V95.2"/>
<line class="st0" x1="97.1" y1="32.8" x2="121.1" y2="32.8"/>
<path class="st0" d="M79.7,136H56.4c-2.1,0-3.7-1.7-3.7-3.7V88.5c0-0.5,0.4-0.9,0.9-0.9h28.6c0.7,0,1.2,0.5,1.2,1.2v43.4
	C83.4,134.3,81.7,136,79.7,136z"/>
<line class="st0" x1="36.7" y1="93.4" x2="36.7" y2="70.4"/>
<line class="st0" x1="21.7" y1="93.4" x2="21.7" y2="81.9"/>
</svg>
