<svg width="59" height="61" viewBox="0 0 59 61" fill="none" xmlns="http://www.w3.org/2000/svg">
<path d="M54.4082 50.15H48.5472C48.3541 50.1507 48.1631 50.1893 47.985 50.2638C47.8069 50.3383 47.6452 50.4471 47.5092 50.5841C47.3732 50.7211 47.2654 50.8835 47.1922 51.0621C47.1189 51.2407 47.0815 51.432 47.0822 51.625V57.525C47.0809 57.9111 47.1556 58.2937 47.3022 58.6509C47.4487 59.0081 47.6641 59.3329 47.9362 59.6068C48.2083 59.8808 48.5317 60.0984 48.8879 60.2474C49.2441 60.3963 49.6261 60.4737 50.0122 60.475H52.9422C53.3283 60.4737 53.7103 60.3963 54.0665 60.2474C54.4227 60.0984 54.7461 59.8808 55.0182 59.6068C55.2902 59.3329 55.5057 59.0081 55.6522 58.6509C55.7988 58.2937 55.8735 57.9111 55.8722 57.525V51.625C55.8735 51.2353 55.7201 50.861 55.4455 50.5844C55.171 50.3078 54.7979 50.1516 54.4082 50.15ZM10.4542 50.15H4.59319C4.40015 50.1507 4.20912 50.1893 4.03103 50.2638C3.85293 50.3383 3.69124 50.4471 3.55521 50.5841C3.41917 50.7211 3.31144 50.8835 3.23817 51.0621C3.16491 51.2407 3.12753 51.432 3.12819 51.625V57.525C3.12688 57.9111 3.20162 58.2937 3.34815 58.6509C3.49469 59.0081 3.71014 59.3329 3.98222 59.6068C4.2543 59.8808 4.57766 60.0984 4.93386 60.2474C5.29006 60.3963 5.6721 60.4737 6.05819 60.475H8.98819C9.37428 60.4737 9.75633 60.3963 10.1125 60.2474C10.4687 60.0984 10.7921 59.8808 11.0642 59.6068C11.3362 59.3329 11.5517 59.0081 11.6982 58.6509C11.8448 58.2937 11.9195 57.9111 11.9182 57.525V51.625C11.9195 51.2353 11.7661 50.861 11.4915 50.5844C11.217 50.3078 10.8439 50.1516 10.4542 50.15ZM52.9432 33.372H6.05819C5.66884 33.3707 5.29592 33.2149 5.02127 32.939C4.74661 32.663 4.59266 32.2894 4.59319 31.9V10.325C4.58654 7.59655 5.66275 4.97693 7.58558 3.04116C9.50842 1.1054 12.1208 0.0116475 14.8492 0H44.1492C46.8781 0.0108548 49.4913 1.10425 51.4147 3.04011C53.3382 4.97596 54.4148 7.59603 54.4082 10.325V31.9C54.4087 32.2894 54.2548 32.663 53.9801 32.939C53.7055 33.2149 53.3325 33.3707 52.9432 33.372Z" fill="#253D8F"/>
<path d="M41.9782 30.101H17.0242C16.6336 30.076 16.2686 29.8976 16.009 29.6046C15.7493 29.3116 15.6161 28.9278 15.6382 28.537V22.282C15.6382 17.964 18.7432 14.469 22.5702 14.464H36.4332C40.2592 14.469 43.3603 17.964 43.3652 22.282V28.537C43.3874 28.928 43.254 29.3119 42.9942 29.6049C42.7343 29.8979 42.3691 30.0763 41.9782 30.101Z" fill="#EAEFF0"/>
<path d="M48.6762 22.946H10.3262C4.6242 22.946 0.00119956 27.846 0.00119956 33.892V49.529C-0.0214148 50.3346 0.276489 51.1163 0.829542 51.7025C1.3826 52.2888 2.14562 52.6317 2.9512 52.656H56.0512C56.8568 52.6317 57.6198 52.2888 58.1729 51.7025C58.7259 51.1163 59.0238 50.3346 59.0012 49.529V33.892C59.0012 27.846 54.3782 22.946 48.6762 22.946Z" fill="#809DFF"/>
<path d="M0.00119956 41.711V49.529C-0.0214148 50.3346 0.276489 51.1163 0.829542 51.7026C1.3826 52.2888 2.14562 52.6317 2.9512 52.656H56.0512C56.8568 52.6317 57.6198 52.2888 58.1729 51.7026C58.7259 51.1163 59.0238 50.3346 59.0012 49.529V41.711H0.00119956Z" fill="#4E73F1"/>
</svg>
