<svg width="23" height="21" viewBox="0 0 23 21" fill="none" xmlns="http://www.w3.org/2000/svg">
<path d="M22.064 11.7652C22.0116 11.6604 21.8806 11.6081 21.7758 11.5819C21.1732 11.5819 15.9858 11.3723 15.9858 5.34645C15.9858 5.16305 15.8286 5.00586 15.6452 5.00586C15.4618 5.00586 15.3046 5.16305 15.3046 5.34645C15.3046 11.3723 10.1172 11.5819 9.54082 11.5819C9.46222 11.5819 9.38363 11.6081 9.33123 11.6604C9.27883 11.6866 9.25263 11.739 9.22643 11.7652C9.17403 11.87 9.17403 12.001 9.22643 12.1058C9.27883 12.2106 9.40983 12.2892 9.54082 12.2892C9.54082 12.2892 9.54082 12.2892 9.56702 12.2892C10.1696 12.2892 15.3308 12.4988 15.3308 18.5246C15.3308 18.708 15.488 18.8652 15.6714 18.8652C15.8548 18.8652 16.012 18.708 16.012 18.5246C16.012 12.525 21.1732 12.2892 21.7758 12.2892C21.9068 12.2892 22.0116 12.2106 22.0901 12.1058C22.1425 12.001 22.1425 11.87 22.064 11.7652ZM15.6452 15.9571C14.8854 13.4682 13.0253 12.394 11.5581 11.9224C13.0253 11.4509 14.8854 10.3767 15.6452 7.88777C16.405 10.3767 18.2651 11.4509 19.7322 11.9224C18.2651 12.394 16.405 13.4682 15.6452 15.9571Z" fill="#253D8F" stroke="#253D8F" stroke-width="0.75"/>
<path d="M11.3225 4.95386C11.5059 4.95386 11.6631 4.79666 11.6631 4.58707C11.6631 4.40368 11.5059 4.24648 11.3225 4.24648C11.0081 4.24648 8.17858 4.14169 8.17858 0.840589C8.17858 0.657195 8.02139 0.5 7.838 0.5C7.6546 0.5 7.49741 0.657195 7.49741 0.840589C7.49741 4.14169 4.66791 4.24648 4.35353 4.24648C4.32733 4.24648 4.32733 4.24648 4.32733 4.24648C4.14393 4.27268 4.01294 4.40368 4.01294 4.58707C4.01294 4.77047 4.17013 4.92766 4.35353 4.92766C4.69411 4.92766 7.49741 5.03246 7.49741 8.33355C7.49741 8.51695 7.6546 8.67414 7.838 8.67414C7.99519 8.70034 8.15238 8.54315 8.15238 8.35975C8.15238 5.05866 10.9819 4.95386 11.2963 4.95386H11.3225ZM7.8118 6.44721C7.39261 5.45164 6.63284 4.90146 5.92547 4.58707C6.68524 4.27268 7.39261 3.6701 7.8118 2.72693C8.23098 3.7225 8.99075 4.27268 9.69813 4.58707C8.93835 4.90146 8.23098 5.50404 7.8118 6.44721Z" fill="#253D8F" stroke="#253D8F" stroke-width="0.75"/>
<path d="M8.30952 16.0619C7.99514 16.0619 5.16564 15.9571 5.16564 12.656C5.16564 12.4726 5.00845 12.3154 4.82506 12.3154C4.64166 12.3154 4.48447 12.4726 4.48447 12.656C4.48447 15.9571 1.65498 16.0619 1.34059 16.0619C1.31439 16.0619 1.31439 16.0619 1.31439 16.0619C1.131 16.0881 1 16.2191 1 16.4025C1 16.5859 1.15719 16.7431 1.34059 16.7431C1.68117 16.7431 4.48447 16.8479 4.48447 20.149C4.48447 20.3324 4.64166 20.4896 4.82506 20.4896C4.98225 20.542 5.13944 20.3848 5.13944 20.1752C5.13944 16.8741 7.96894 16.7693 8.28333 16.7693H8.30952C8.49292 16.7693 8.65011 16.6121 8.65011 16.4025C8.65011 16.2191 8.49292 16.0619 8.30952 16.0619ZM4.79886 18.2888C4.35347 17.2933 3.6199 16.7431 2.91253 16.4287C3.6723 16.1143 4.37967 15.5117 4.79886 14.5686C5.21804 15.5641 5.97781 16.1143 6.68519 16.4287C5.92541 16.7431 5.21804 17.3457 4.79886 18.2888Z" fill="#253D8F" stroke="#253D8F" stroke-width="0.75"/>
</svg>
