<svg width="53" height="54" viewBox="0 0 53 54" fill="none" xmlns="http://www.w3.org/2000/svg">
<path d="M2.35135 31.7297V26.3243M2.35135 26.3243C2.35135 19.8731 4.91408 13.6861 9.47578 9.12443C14.0375 4.56273 20.2245 2 26.6757 2C33.1269 2 39.3139 4.56273 43.8756 9.12443C48.4373 13.6861 51 19.8731 51 26.3243M2.35135 26.3243H10.4595C11.8931 26.3243 13.2679 26.8938 14.2817 27.9075C15.2954 28.9212 15.8649 30.2961 15.8649 31.7297V34.4324C15.8649 35.866 15.2954 37.2409 14.2817 38.2546C13.2679 39.2683 11.8931 39.8378 10.4595 39.8378H7.75675C6.32315 39.8378 4.94827 39.2683 3.93456 38.2546C2.92085 37.2409 2.35135 35.866 2.35135 34.4324V26.3243ZM51 26.3243V31.7297M51 26.3243H42.8919C41.4583 26.3243 40.0834 26.8938 39.0697 27.9075C38.056 28.9212 37.4865 30.2961 37.4865 31.7297V34.4324C37.4865 35.866 38.056 37.2409 39.0697 38.2546C40.0834 39.2683 41.4583 39.8378 42.8919 39.8378H45.5946C47.0282 39.8378 48.4031 39.2683 49.4168 38.2546C50.4305 37.2409 51 35.866 51 34.4324V26.3243Z" stroke="#253D8F" stroke-width="4" stroke-linecap="round" stroke-linejoin="round"/>
<path d="M50.9748 31.7295V42.5403C51.2577 45.6935 49.2774 51.9998 39.093 51.9998C37.9035 51.9998 34.0692 51.9998 32.9955 51.9998M32.9955 51.9998C31.5834 51.9998 30.5167 51.9998 29.71 51.9998C28.0307 51.9998 26.6757 50.6385 26.6757 48.9592V48.9592C26.6757 47.28 28.037 45.9187 29.7162 45.9187H29.8356C31.5807 45.9187 32.9955 47.3334 32.9955 49.0786V51.9998Z" stroke="#253D8F" stroke-width="4"/>
</svg>
