<svg xmlns="http://www.w3.org/2000/svg" width="33.855" height="35" viewBox="0 0 33.855 35">
  <g id="surprise-box" transform="translate(-2 -1)">
    <path id="Path_3473" data-name="Path 3473" d="M25.936,6.8l-.42,2.577a.564.564,0,0,0,.83.585l2.168-1.2,2.168,1.2a.564.564,0,0,0,.83-.585L31.092,6.8l1.776-1.82a.564.564,0,0,0-.318-.952l-2.432-.372L29.025,1.325a.564.564,0,0,0-1.022,0L26.91,3.652l-2.432.372a.564.564,0,0,0-.318.952Zm1.443-2.074A.564.564,0,0,0,27.8,4.4l.71-1.512.71,1.512a.564.564,0,0,0,.425.318l1.644.251L30.085,6.212a.565.565,0,0,0-.153.485l.279,1.711-1.424-.787a.563.563,0,0,0-.546,0l-1.424.787L27.1,6.7a.565.565,0,0,0-.153-.485L25.735,4.973Z" transform="translate(-9.586)" fill="#253d8f"/>
    <path id="Path_3474" data-name="Path 3474" d="M53.09,15.635l-.22,1.352a.564.564,0,0,0,.83.584l1.121-.62,1.121.62a.564.564,0,0,0,.83-.584l-.22-1.352.93-.953a.564.564,0,0,0-.318-.952L55.9,13.538l-.57-1.213a.564.564,0,0,0-1.022,0l-.57,1.213-1.262.193a.564.564,0,0,0-.318.952Zm1.119-1.028a.564.564,0,0,0,.425-.318l.187-.4.187.4a.564.564,0,0,0,.425.318l.474.072-.361.371a.564.564,0,0,0-.153.485l.079.487-.377-.209a.565.565,0,0,0-.547,0l-.377.209.079-.487a.564.564,0,0,0-.153-.485l-.361-.371Z" transform="translate(-21.787 -4.793)" fill="#253d8f"/>
    <path id="Path_3475" data-name="Path 3475" d="M3.09,17.635l-.22,1.352a.564.564,0,0,0,.83.584l1.121-.62,1.121.62a.564.564,0,0,0,.83-.584l-.22-1.352.93-.953a.564.564,0,0,0-.318-.952L5.9,15.538l-.57-1.213a.564.564,0,0,0-1.022,0l-.57,1.213-1.262.193a.564.564,0,0,0-.318.952Zm1.119-1.028a.564.564,0,0,0,.425-.318l.187-.4.187.4a.564.564,0,0,0,.425.318l.474.072-.361.371a.564.564,0,0,0-.153.485l.079.487-.377-.209a.565.565,0,0,0-.547,0l-.377.209.079-.487a.564.564,0,0,0-.153-.485l-.361-.371Z" transform="translate(0 -5.665)" fill="#253d8f"/>
    <path id="Path_3476" data-name="Path 3476" d="M6.36,34.489a.564.564,0,0,0,.262.946l2.394.6V44.48a.565.565,0,0,0,.4.541L20.7,48.406a.539.539,0,0,0,.323,0v0L32.312,45.02a.565.565,0,0,0,.4-.541V36.033l2.394-.6a.564.564,0,0,0,.262-.946L31.984,31.1a.56.56,0,0,0-.283-.149v0l-6.771-1.426-.233,1.1,4.148.873-7.982,1.68L12.883,31.5l4.148-.873-.233-1.1L10.028,30.95v0a.563.563,0,0,0-.283.149ZM31.4,32.117l2.465,2.464-9.945,2.486-2.1-2.935Zm-9.974,3.4,1.8,2.517a.564.564,0,0,0,.6.22l7.763-1.941V44.06L21.429,47.107ZM20.3,47.107,10.144,44.06V36.316l7.763,1.941a.564.564,0,0,0,.6-.22l1.8-2.517Zm-9.974-14.99L19.9,34.133l-2.1,2.935L7.862,34.582Z" transform="translate(-1.828 -12.429)" fill="#253d8f"/>
    <path id="Path_3477" data-name="Path 3477" d="M31,17h1.129v6.771H31Z" transform="translate(-12.637 -6.972)" fill="#253d8f"/>
    <path id="Path_3478" data-name="Path 3478" d="M31,31h1.129v1.129H31Z" transform="translate(-12.637 -13.072)" fill="#253d8f"/>
    <path id="Path_3479" data-name="Path 3479" d="M36,23.97l1.128.014a5.819,5.819,0,0,1,2.555-4.606,5.66,5.66,0,0,1,4.6-.509l.358-1.07a6.826,6.826,0,0,0-5.555.62A7.014,7.014,0,0,0,36,23.97Z" transform="translate(-14.815 -7.178)" fill="#253d8f"/>
    <path id="Path_3480" data-name="Path 3480" d="M17.584,17.8a5.529,5.529,0,0,1,3.039,5.647l1.126.077a6.649,6.649,0,0,0-3.732-6.766,6.082,6.082,0,0,0-4.359-.009l.386,1.061A4.951,4.951,0,0,1,17.584,17.8Z" transform="translate(-5.08 -6.69)" fill="#253d8f"/>
  </g>
</svg>
