<svg width="25" height="30" viewBox="0 0 25 30" fill="none" xmlns="http://www.w3.org/2000/svg">
<g clip-path="url(#clip0_80412_87)" filter="url(#filter0_d_80412_87)">
<path d="M13.026 18.885C15.707 16.554 20.069 12.62 20.069 8.03801C20.0454 5.92265 19.1885 3.90195 17.6843 2.41444C16.1801 0.926935 14.15 0.0926514 12.0345 0.0926514C9.91898 0.0926514 7.88889 0.926935 6.38469 2.41444C4.88049 3.90195 4.02358 5.92265 3.99998 8.03801C3.99998 12.62 8.55101 16.721 11.043 18.885C11.3377 19.1604 11.6721 19.39 12.035 19.566C12.276 19.563 13.026 18.885 13.026 18.885Z" fill="#253D8F"/>
<path d="M12.201 21.156C13.3056 21.156 14.201 20.9321 14.201 20.656C14.201 20.3799 13.3056 20.156 12.201 20.156C11.0964 20.156 10.201 20.3799 10.201 20.656C10.201 20.9321 11.0964 21.156 12.201 21.156Z" fill="#253D8F"/>
<g clip-path="url(#clip1_80412_87)">
<path d="M11.8628 12.7651C10.4478 12.7651 9.03195 12.7541 7.61695 12.7711C7.51808 12.776 7.41959 12.7547 7.33155 12.7095C7.2435 12.6642 7.16903 12.5965 7.11548 12.5133C7.06194 12.43 7.03127 12.3341 7.02662 12.2352C7.02196 12.1363 7.04339 12.038 7.08887 11.9501C7.12406 11.8599 7.18546 11.7824 7.26514 11.7275C7.34482 11.6726 7.43913 11.6428 7.53589 11.642H7.573C10.4397 11.642 13.3062 11.642 16.1729 11.642C16.2475 11.6369 16.3223 11.648 16.3921 11.6748C16.4619 11.7016 16.5251 11.7433 16.5772 11.797C16.6292 11.8507 16.6689 11.9152 16.6934 11.9858C16.7179 12.0565 16.7266 12.1317 16.719 12.206C16.7237 12.2822 16.7117 12.3584 16.6841 12.4295C16.6565 12.5007 16.6137 12.5649 16.5588 12.618C16.504 12.671 16.4385 12.7115 16.3665 12.7367C16.2945 12.762 16.2178 12.7713 16.1419 12.7641C14.7172 12.7654 13.2908 12.7657 11.8628 12.7651Z" fill="#FFCC02"/>
<path d="M18.2008 5.56102C17.9921 5.12218 17.6636 4.7513 17.2531 4.4912C16.8426 4.2311 16.3667 4.09237 15.8808 4.09102C15.7643 4.03212 15.6353 4.0026 15.5048 4.00502H11.5949C10.2949 4.00502 9.00199 4.01503 7.70499 3.99903C7.61373 3.99346 7.52222 4.00691 7.43643 4.03853C7.35065 4.07015 7.27226 4.11925 7.20645 4.18271C7.14064 4.24617 7.08883 4.32261 7.05411 4.40719C7.01939 4.49176 7.00255 4.58263 7.00479 4.67403C7.00479 5.22103 6.9919 5.76904 7.0109 6.31504C7.03675 7.44414 7.44709 8.53063 8.17398 9.39502C8.74424 10.1079 9.52402 10.6237 10.4032 10.8696C11.2824 11.1154 12.2166 11.0788 13.0739 10.765C13.9317 10.4521 14.6771 9.89096 15.215 9.15303C15.461 9.15303 15.699 9.16003 15.935 9.15303C16.3569 9.14748 16.7707 9.03654 17.1388 8.83031C17.507 8.62409 17.818 8.32912 18.0431 7.9722C18.2683 7.61529 18.4006 7.20775 18.4281 6.78666C18.4557 6.36556 18.3775 5.94425 18.2008 5.56102ZM16.2318 8.18903C16.0723 8.20916 15.9116 8.21684 15.7509 8.21203C15.8616 7.95472 15.9546 7.6901 16.029 7.42003C16.2003 6.64449 16.2545 5.84765 16.1899 5.05603C16.5501 5.10389 16.8833 5.27295 17.1347 5.5354C17.386 5.79786 17.5406 6.13806 17.5729 6.50004C17.6042 6.89892 17.4833 7.29486 17.2345 7.60822C16.9857 7.92158 16.6274 8.12909 16.2318 8.18903Z" fill="#FFCC02"/>
</g>
</g>
<defs>
<filter id="filter0_d_80412_87" x="0" y="0" width="24.069" height="29.156" filterUnits="userSpaceOnUse" color-interpolation-filters="sRGB">
<feFlood flood-opacity="0" result="BackgroundImageFix"/>
<feColorMatrix in="SourceAlpha" type="matrix" values="0 0 0 0 0 0 0 0 0 0 0 0 0 0 0 0 0 0 127 0" result="hardAlpha"/>
<feOffset dy="4"/>
<feGaussianBlur stdDeviation="2"/>
<feComposite in2="hardAlpha" operator="out"/>
<feColorMatrix type="matrix" values="0 0 0 0 0 0 0 0 0 0 0 0 0 0 0 0 0 0 0.25 0"/>
<feBlend mode="normal" in2="BackgroundImageFix" result="effect1_dropShadow_80412_87"/>
<feBlend mode="normal" in="SourceGraphic" in2="effect1_dropShadow_80412_87" result="shape"/>
</filter>
<clipPath id="clip0_80412_87">
<rect width="16.069" height="21.156" fill="white" transform="translate(4)"/>
</clipPath>
<clipPath id="clip1_80412_87">
<rect width="11.443" height="8.771" fill="white" transform="translate(7 4)"/>
</clipPath>
</defs>
</svg>
