<svg id="Group_3593" data-name="Group 3593" xmlns="http://www.w3.org/2000/svg" width="16.069" height="20.901" viewBox="0 0 16.069 20.901">
  <g id="Group_3586" data-name="Group 3586" transform="translate(0 0)">
    <g id="Group_3583" data-name="Group 3583" transform="translate(0 0)">
      <path id="Path_3486" data-name="Path 3486" d="M760.261,263.4c2.681-2.331,7.043-6.265,7.043-10.847a8.035,8.035,0,0,0-16.069,0c0,4.582,4.551,8.683,7.043,10.847a4.026,4.026,0,0,0,.992.681C759.511,264.078,760.261,263.4,760.261,263.4Z" transform="translate(-751.235 -244.515)" fill="#253d8f"/>
    </g>
    <g id="Group_1696" data-name="Group 1696" transform="translate(1.98 1.681)">
      <path id="Path_2296" data-name="Path 2296" d="M2250.347-197.756c.2.189.4.357.572.553a.7.7,0,0,1-.082.989.72.72,0,0,1-.987-.036.714.714,0,0,1-.012-.994C2250.005-197.421,2250.181-197.589,2250.347-197.756Z" transform="translate(-2243.288 197.757)" fill="#ffcc02"/>
      <path id="Path_2297" data-name="Path 2297" d="M2162.561-197.774c.2.191.4.362.578.562a.7.7,0,0,1-.1.987.718.718,0,0,1-.986-.049.717.717,0,0,1-.006-.986C2162.22-197.437,2162.395-197.606,2162.561-197.774Z" transform="translate(-2157.952 197.774)" fill="#ffcc02"/>
      <path id="Path_2298" data-name="Path 2298" d="M2033.554-114.58c-.053.232-.108.464-.159.7s-.142.313-.393.314h-.269c.056.076.1.136.147.2a1.993,1.993,0,0,1-.228,2.539.231.231,0,0,0-.058.146c0,.322,0,.644,0,.965a.448.448,0,0,1-.5.487q-.48,0-.961,0a.444.444,0,0,1-.491-.48c0-.131,0-.262,0-.4h-5.9c0,.12,0,.242,0,.363,0,.357-.166.519-.531.519-.309,0-.618,0-.926,0a.445.445,0,0,1-.491-.481c0-.333,0-.666,0-1a.208.208,0,0,0-.055-.135,2,2,0,0,1-.154-2.648c.014-.017.025-.036.051-.073-.11,0-.2,0-.295,0a.306.306,0,0,1-.334-.26c-.059-.259-.114-.519-.163-.78a.3.3,0,0,1,.314-.351c.335,0,.671,0,1.006,0a.141.141,0,0,0,.158-.1,5.579,5.579,0,0,1,.635-1.226,1.744,1.744,0,0,1,.745-.574,6.14,6.14,0,0,1,1.742-.434,10.476,10.476,0,0,1,2.259-.026,7.214,7.214,0,0,1,1.856.4,1.949,1.949,0,0,1,1.09.969c.15.293.284.595.419.9a.13.13,0,0,0,.142.094c.316-.005.633,0,.949,0a.367.367,0,0,1,.392.225Zm-2.23.08a6.593,6.593,0,0,0-.543-1.176.894.894,0,0,0-.361-.332,3.943,3.943,0,0,0-1.116-.346,9.5,9.5,0,0,0-2.584-.087,5.469,5.469,0,0,0-1.585.356.963.963,0,0,0-.546.451c-.174.365-.337.734-.5,1.1,0,.008,0,.02.007.033Zm.585,2.341a.879.879,0,0,0-.878-.866.883.883,0,0,0-.886.871.879.879,0,0,0,.879.865A.877.877,0,0,0,2031.908-112.16Zm-7.495.866a.878.878,0,0,0,.847-.894.872.872,0,0,0-.907-.835.855.855,0,0,0-.855.894A.866.866,0,0,0,2024.414-111.294Z" transform="translate(-2021.84 119.785)" fill="#ffcc02"/>
    </g>
  </g>
  <ellipse id="Ellipse_123" data-name="Ellipse 123" cx="2" cy="0.5" rx="2" ry="0.5" transform="translate(6.298 19.901)" fill="#253d8f"/>
</svg>
