<svg xmlns="http://www.w3.org/2000/svg" width="16.069" height="21.156" viewBox="0 0 16.069 21.156">
  <g id="Group_3654" data-name="Group 3654" transform="translate(0 0)">
    <g id="Group_3584" data-name="Group 3584" transform="translate(0 0)">
      <g id="Group_3583" data-name="Group 3583" transform="translate(0 0)">
        <path id="Path_3486" data-name="Path 3486" d="M760.261,263.4c2.681-2.331,7.043-6.265,7.043-10.847a8.035,8.035,0,0,0-16.069,0c0,4.582,4.551,8.683,7.043,10.847a4.026,4.026,0,0,0,.992.681C759.511,264.078,760.261,263.4,760.261,263.4Z" transform="translate(-751.235 -244.515)" fill="#253d8f"/>
      </g>
      <g id="icon_2" data-name="icon 2" transform="translate(-180.138 -173.047)">
        <path id="Path_3519" data-name="Path 3519" d="M190.218,323.765l-.334,1.9a.289.289,0,0,1-.285.239H186.57a.289.289,0,0,1-.285-.339l.334-1.895a.289.289,0,0,1,.285-.24h3.029a.289.289,0,0,1,.285.34Zm-5.044-1.063-.649,3.643a.8.8,0,0,0,.79.943h5.216a.8.8,0,0,0,.79-.662l.649-3.643a.8.8,0,0,0-.79-.943h-5.216a.8.8,0,0,0-.79.662Z" transform="translate(0 -144.217)" fill="#ffcc02"/>
        <path id="Path_3520" data-name="Path 3520" d="M184.987,777.243a.931.931,0,0,1,.857-.854.69.69,0,0,1,.828.729.931.931,0,0,1-.857.854A.69.69,0,0,1,184.987,777.243Z" transform="translate(-0.468 -592.888)" fill="#ffcc02"/>
        <path id="Path_3521" data-name="Path 3521" d="M529.187,777.243a.931.931,0,0,1,.857-.854.69.69,0,0,1,.828.729.931.931,0,0,1-.857.854A.69.69,0,0,1,529.187,777.243Z" transform="translate(-340.371 -592.888)" fill="#ffcc02"/>
        <path id="Path_3522" data-name="Path 3522" d="M674.648,177.386H672.6l.155-.882a.61.61,0,0,1,.6-.5h1.38a.647.647,0,0,1,.637.759l0,.022A.733.733,0,0,1,674.648,177.386Z" transform="translate(-481.994)" fill="#ffcc02"/>
      </g>
    </g>
    <ellipse id="Ellipse_122" data-name="Ellipse 122" cx="2" cy="0.5" rx="2" ry="0.5" transform="translate(6.201 20.156)" fill="#253d8f"/>
  </g>
</svg>
