<svg width="17" height="22" viewBox="0 0 17 22" fill="none" xmlns="http://www.w3.org/2000/svg">
<g clip-path="url(#clip0_80412_87)">
<path d="M9.02599 18.885C11.707 16.554 16.069 12.62 16.069 8.03801C16.0454 5.92265 15.1885 3.90195 13.6843 2.41444C12.1801 0.926935 10.15 0.0926514 8.03447 0.0926514C5.91898 0.0926514 3.88889 0.926935 2.38469 2.41444C0.880493 3.90195 0.0235847 5.92265 -1.52588e-05 8.03801C-1.52588e-05 12.62 4.55101 16.721 7.04301 18.885C7.3377 19.1604 7.67211 19.39 8.03502 19.566C8.27602 19.563 9.02599 18.885 9.02599 18.885Z" fill="#253D8F"/>
<path d="M8.201 21.156C9.30557 21.156 10.201 20.9321 10.201 20.656C10.201 20.3799 9.30557 20.156 8.201 20.156C7.09643 20.156 6.201 20.3799 6.201 20.656C6.201 20.9321 7.09643 21.156 8.201 21.156Z" fill="#253D8F"/>
<path d="M13 6.95058V8.05039C13 8.19636 12.9473 8.33635 12.8535 8.43957C12.7596 8.54278 12.6324 8.60077 12.4997 8.60077H11.7873C11.6979 8.97488 11.5626 9.33386 11.3852 9.66781L11.8899 10.224C11.9828 10.3272 12.0349 10.4666 12.0349 10.6119C12.0349 10.7572 11.9828 10.8967 11.8899 10.9999L11.1819 11.7787C11.0869 11.8785 10.9606 11.9342 10.8292 11.9342C10.6979 11.9342 10.5716 11.8785 10.4766 11.7787L9.971 11.2235C9.66743 11.4188 9.34112 11.5676 9.00105 11.666V12.4496C9.00105 12.5956 8.94834 12.7356 8.85452 12.8388C8.76069 12.942 8.63343 13 8.50074 13H7.50013C7.36744 13 7.24019 12.942 7.14636 12.8388C7.05254 12.7356 6.99982 12.5956 6.99982 12.4496V11.666C6.7934 11.6057 6.5918 11.5271 6.397 11.4308C6.37247 11.4185 6.35099 11.3999 6.3344 11.3766C6.3178 11.3532 6.30657 11.3258 6.30167 11.2967C6.29676 11.2675 6.29833 11.2375 6.30623 11.2092C6.31414 11.1808 6.32814 11.155 6.34706 11.1339L7.05502 10.3531C7.07625 10.3297 7.10286 10.313 7.13202 10.3049C7.16118 10.2967 7.1918 10.2974 7.22063 10.3069C7.47332 10.3904 7.73572 10.4329 7.99956 10.4331C8.5269 10.4331 9.04239 10.2611 9.48086 9.93882C9.91932 9.61652 10.2611 9.15843 10.4629 8.62246C10.6647 8.0865 10.7175 7.49675 10.6146 6.92777C10.5117 6.3588 10.2578 5.83616 9.88489 5.42596C9.51201 5.01575 9.03693 4.7364 8.51972 4.62322C8.00252 4.51004 7.46642 4.56813 6.97923 4.79013C6.49203 5.01213 6.07562 5.38808 5.78265 5.87044C5.48968 6.35279 5.3333 6.91988 5.3333 7.5C5.33359 7.78962 5.37226 8.07764 5.44809 8.35498C5.45669 8.38669 5.45733 8.42038 5.44992 8.45245C5.44252 8.48453 5.42735 8.5138 5.40603 8.53715L4.69631 9.31791C4.67713 9.33872 4.65365 9.35413 4.6279 9.36283C4.60214 9.37152 4.57485 9.37324 4.54836 9.36785C4.52186 9.36245 4.49694 9.3501 4.47572 9.33184C4.45449 9.31358 4.43759 9.28996 4.42644 9.26297C4.33897 9.04865 4.26747 8.82687 4.21265 8.59981H3.50031C3.36777 8.59981 3.24065 8.54195 3.14685 8.43894C3.05305 8.33594 3.00023 8.19619 3 8.05039V6.95058C3 6.80461 3.05271 6.66461 3.14654 6.5614C3.24036 6.45818 3.36762 6.40019 3.50031 6.40019H4.21265C4.30209 6.02609 4.43739 5.66712 4.61483 5.33316L4.11014 4.77699C4.0172 4.67375 3.96506 4.53432 3.96506 4.38902C3.96506 4.24372 4.0172 4.10429 4.11014 4.00105L4.8181 3.22222C4.91312 3.12246 5.03942 3.06681 5.17077 3.06681C5.30212 3.06681 5.42842 3.12246 5.52344 3.22222L6.029 3.77743C6.33257 3.58221 6.65888 3.43336 6.99895 3.335V2.55039C6.99895 2.47803 7.01192 2.40638 7.03712 2.33954C7.06231 2.2727 7.09924 2.21198 7.14579 2.16086C7.19235 2.10974 7.2476 2.06922 7.3084 2.04162C7.3692 2.01402 7.43436 1.99987 7.50013 2H8.49987C8.63256 2 8.75981 2.05799 8.85364 2.16121C8.94746 2.26442 9.00017 2.40442 9.00017 2.55039V3.33404C9.34025 3.4324 9.66656 3.58124 9.97012 3.77646L10.4757 3.22126C10.5707 3.1215 10.697 3.06584 10.8284 3.06584C10.9597 3.06584 11.086 3.1215 11.181 3.22126L11.889 4.00009C11.9819 4.10333 12.0341 4.24276 12.0341 4.38806C12.0341 4.53336 11.9819 4.67279 11.889 4.77603L11.3843 5.33219C11.5617 5.66615 11.697 6.02513 11.7865 6.39923H12.4988C12.6315 6.39923 12.7588 6.45722 12.8526 6.56043C12.9464 6.66365 12.9991 6.80364 12.9991 6.94962L13 6.95058ZM9.89827 6.56502C9.88891 6.5357 9.87299 6.50945 9.85197 6.48869C9.83096 6.46792 9.80553 6.45331 9.77803 6.4462C9.75053 6.4391 9.72185 6.43972 9.69463 6.44802C9.66741 6.45632 9.64252 6.47203 9.62227 6.49369L8.86349 7.32843L8.33339 7.13565L8.15815 6.55249L8.91694 5.71775C8.93663 5.69548 8.95091 5.6681 8.95845 5.63816C8.96599 5.60821 8.96656 5.57666 8.9601 5.54641C8.95364 5.51616 8.94036 5.48818 8.92149 5.46506C8.90261 5.44194 8.87875 5.42443 8.8521 5.41413C8.56686 5.3083 8.26087 5.28954 7.9667 5.35984C7.67254 5.43013 7.4012 5.58686 7.18158 5.81334C6.96195 6.03981 6.80226 6.32756 6.71949 6.64596C6.63673 6.96435 6.63398 7.30148 6.71156 7.62145L4.06983 10.4823C3.91356 10.6542 3.82576 10.8874 3.82576 11.1305C3.82576 11.3737 3.91356 11.6068 4.06983 11.7787C4.22611 11.9507 4.43807 12.0472 4.65907 12.0472C4.88008 12.0472 5.09204 11.9507 5.24831 11.7787L7.89004 8.91789C8.18082 9.00348 8.48726 9.00074 8.77674 8.90995C9.06622 8.81917 9.3279 8.64373 9.53395 8.40233C9.73999 8.16092 9.88269 7.86258 9.94684 7.53904C10.011 7.21551 9.99421 6.87889 9.89827 6.56502Z" fill="#FFCC02"/>
</g>
<defs>
<clipPath id="clip0_80412_87">
<rect width="16.069" height="21.156" fill="white"/>
</clipPath>
</defs>
</svg>
