<svg xmlns="http://www.w3.org/2000/svg" width="16.069" height="21.156" viewBox="0 0 16.069 21.156">
  <g id="Group_3594" data-name="Group 3594" transform="translate(0)">
    <g id="Group_3584" data-name="Group 3584" transform="translate(0 0)">
      <g id="Group_3583" data-name="Group 3583" transform="translate(0 0)">
        <path id="Path_3486" data-name="Path 3486" d="M760.261,263.4c2.681-2.331,7.043-6.265,7.043-10.847a8.035,8.035,0,0,0-16.069,0c0,4.582,4.551,8.683,7.043,10.847a4.026,4.026,0,0,0,.992.681C759.511,264.078,760.261,263.4,760.261,263.4Z" transform="translate(-751.235 -244.515)" fill="#253d8f"/>
      </g>
      <path id="Path_3537" data-name="Path 3537" d="M2864.6-23h4.3a.066.066,0,0,0,.017.009.826.826,0,0,1,.69.894v5.317c0,.035,0,.07,0,.1a.2.2,0,0,0,.192.188c.063,0,.127,0,.191,0a1.225,1.225,0,0,1,1.243,1.238c0,.127,0,.255,0,.382a.4.4,0,0,0,.283.4.405.405,0,0,0,.532-.411q0-1.895,0-3.79a.256.256,0,0,0-.209-.288.827.827,0,0,1-.607-.847c0-.309,0-.617,0-.926a.439.439,0,0,0-.193-.383c-.147-.107-.293-.214-.435-.327a.565.565,0,0,1-.138-.154.4.4,0,0,1,.085-.489.406.406,0,0,1,.519-.023c.419.31.833.627,1.253.936a1.273,1.273,0,0,1,.541,1.089q0,2.577,0,5.155a1.887,1.887,0,0,1-.011.2,1.229,1.229,0,0,1-1.182,1.09,1.218,1.218,0,0,1-1.225-.995,4.645,4.645,0,0,1-.025-.618.406.406,0,0,0-.428-.424h-.134c-.183,0-.254.072-.254.254q0,.864,0,1.728a.414.414,0,0,1-.458.462h-4.811a.4.4,0,0,1-.407-.27.726.726,0,0,1-.027-.216q0-4.2,0-8.391c0-.032,0-.064,0-.1a.812.812,0,0,1,.495-.734A1.818,1.818,0,0,1,2864.6-23Zm1.623,5.292h0c.1,0,.2,0,.3,0a.171.171,0,0,1,.185.231c-.093.47-.188.94-.28,1.411a.332.332,0,0,0,.322.4.537.537,0,0,0,.528-.4q.292-1.016.58-2.033a.3.3,0,0,0-.307-.413c-.175,0-.349,0-.524,0-.2,0-.257-.075-.218-.27q.136-.672.271-1.345a.339.339,0,0,0-.4-.418.51.51,0,0,0-.431.371q-.3,1.042-.6,2.087a.3.3,0,0,0,.286.384C2866.027-17.7,2866.126-17.708,2866.225-17.708Z" transform="translate(-2859.603 26.287)" fill="#ffcc02"/>
    </g>
    <ellipse id="Ellipse_122" data-name="Ellipse 122" cx="2" cy="0.5" rx="2" ry="0.5" transform="translate(6.201 20.156)" fill="#253d8f"/>
  </g>
</svg>
