<svg xmlns="http://www.w3.org/2000/svg" width="16.069" height="21.156" viewBox="0 0 16.069 21.156">
  <g id="Group_3651" data-name="Group 3651" transform="translate(0 0)">
    <g id="Group_3584" data-name="Group 3584" transform="translate(0 0)">
      <g id="Group_3583" data-name="Group 3583" transform="translate(0 0)">
        <path id="Path_3486" data-name="Path 3486" d="M760.261,263.4c2.681-2.331,7.043-6.265,7.043-10.847a8.035,8.035,0,0,0-16.069,0c0,4.582,4.551,8.683,7.043,10.847a4.026,4.026,0,0,0,.992.681C759.511,264.078,760.261,263.4,760.261,263.4Z" transform="translate(-751.235 -244.515)" fill="#253d8f"/>
      </g>
      <g id="Layer_x0020_1" transform="translate(2.895 3.177)">
        <g id="_623095544" transform="translate(0 -0.89)">
          <path id="Path_3488" data-name="Path 3488" d="M25.079,10243.713H18.714a.189.189,0,0,1-.067-.017l-2.278-1.314a.749.749,0,0,1-.343-.452.735.735,0,0,1,.075-.562.706.706,0,0,1,.444-.343.73.73,0,0,1,.562.074l1.968,1.14h6.006a.744.744,0,0,1,.737.737A.754.754,0,0,1,25.079,10243.713Z" transform="translate(-15.991 -10235.166)" fill="#ffcc02" fill-rule="evenodd"/>
          <path id="Path_3489" data-name="Path 3489" d="M3600.806,15480.471h-.679a.131.131,0,0,1-.109-.066.114.114,0,0,1,0-.125l.736-1.279h.975l-.815,1.4A.129.129,0,0,1,3600.806,15480.471Z" transform="translate(-3597.949 -15470.182)" fill="#ffcc02" fill-rule="evenodd"/>
          <path id="Path_3490" data-name="Path 3490" d="M14988.607,15338.553h-.679a.144.144,0,0,1-.109-.059l-.819-1.414.686-.01a.958.958,0,0,0,.254-.07l.784,1.352a.109.109,0,0,1,0,.125A.14.14,0,0,1,14988.607,15338.553Z" transform="translate(-14978.463 -15328.263)" fill="#ffcc02" fill-rule="evenodd"/>
          <path id="Path_3491" data-name="Path 3491" d="M10549.055,4337.262l-2.113-4.152a.126.126,0,0,1,.227-.109l2.17,4.261Z" transform="translate(-10542.146 -4330.458)" fill="#ffcc02" fill-rule="evenodd"/>
          <path id="Path_3492" data-name="Path 3492" transform="translate(0 0.001)" fill="#ffcc02" fill-rule="evenodd"/>
          <path id="Path_3493" data-name="Path 3493" d="M5917.536,3.436a.12.12,0,0,1-.109-.067,2.942,2.942,0,0,1,.743-3.583,5.032,5.032,0,0,0,.621,2.7,1.815,1.815,0,0,0-.5.18c-.469.235-.645.52-.611.586a.121.121,0,0,1-.059.168A.523.523,0,0,1,5917.536,3.436Zm1.8-4.241a2.9,2.9,0,0,1,1.61.062,2.934,2.934,0,0,1,1.7,1.449V.714a.125.125,0,1,1-.226.109.071.071,0,0,0-.042-.025,1.229,1.229,0,0,0-.787.176,1.844,1.844,0,0,0-.447.31A5.251,5.251,0,0,0,5919.334-.805Z" transform="translate(-5914.968 0.89)" fill="#ffcc02" fill-rule="evenodd"/>
          <path id="Path_3494" data-name="Path 3494" transform="translate(0 0.001)" fill="#ffcc02" fill-rule="evenodd"/>
          <path id="Path_3495" data-name="Path 3495" d="M8184.559,466.591a.12.12,0,0,1-.109-.067v-.008a4.471,4.471,0,0,1-.646-2.747.568.568,0,0,1,.26-.335.549.549,0,0,1,.419-.017,4.49,4.49,0,0,1,1.851,2.153.121.121,0,0,1-.059.167.125.125,0,0,1-.167-.05c-.042-.075-.385-.084-.83.142a1.2,1.2,0,0,0-.6.527c-.009.026-.009.042,0,.051a.127.127,0,0,1-.117.184Z" transform="translate(-8180.315 -463.12)" fill="#ffcc02" fill-rule="evenodd"/>
        </g>
      </g>
    </g>
    <ellipse id="Ellipse_122" data-name="Ellipse 122" cx="2" cy="0.5" rx="2" ry="0.5" transform="translate(6.201 20.156)" fill="#253d8f"/>
  </g>
</svg>
