<svg xmlns="http://www.w3.org/2000/svg" width="16.069" height="21.437" viewBox="0 0 16.069 21.437">
  <g id="Group_3606" data-name="Group 3606" transform="translate(-159.551 -304.563)">
    <g id="Group_3582" data-name="Group 3582" transform="translate(159.551 304.563)">
      <path id="Path_3486" data-name="Path 3486" d="M760.261,263.4c2.681-2.331,7.043-6.265,7.043-10.847a8.035,8.035,0,0,0-16.069,0c0,4.582,4.551,8.683,7.043,10.847a4.026,4.026,0,0,0,.992.681C759.511,264.078,760.261,263.4,760.261,263.4Z" transform="translate(-751.235 -244.515)" fill="#253d8f"/>
      <g id="dinner" transform="translate(1.46 1.563)">
        <g id="Group_3431" data-name="Group 3431" transform="translate(0 6.575)">
          <g id="Group_3430" data-name="Group 3430">
            <path id="Path_3486-2" data-name="Path 3486" d="M13.109,352.13a.276.276,0,0,0-.233-.13H.274a.274.274,0,0,0-.245.4,2.243,2.243,0,0,0,2.018,1.248H11.1a2.246,2.246,0,0,0,2.018-1.247A.277.277,0,0,0,13.109,352.13Z" transform="translate(0 -352)" fill="#ffcc02"/>
          </g>
        </g>
        <g id="Group_3433" data-name="Group 3433" transform="translate(1.129 0)">
          <g id="Group_3432" data-name="Group 3432">
            <path id="Path_3487" data-name="Path 3487" d="M50.162,97.153a.815.815,0,0,0,.071-.331.822.822,0,0,0-1.644,0,.814.814,0,0,0,.071.331,5.466,5.466,0,0,0-4.694,4.874h10.89A5.468,5.468,0,0,0,50.162,97.153Zm-1.007,1.586a3.825,3.825,0,0,0-3.361,2.549.275.275,0,0,1-.259.183.278.278,0,0,1-.091-.015.275.275,0,0,1-.168-.35,4.371,4.371,0,0,1,3.842-2.914.278.278,0,0,1,.291.255A.274.274,0,0,1,49.155,98.739Z" transform="translate(-43.966 -96)" fill="#ffcc02"/>
          </g>
        </g>
      </g>
    </g>
    <ellipse id="Ellipse_115" data-name="Ellipse 115" cx="2" cy="0.5" rx="2" ry="0.5" transform="translate(166 325)" fill="#253d8f"/>
  </g>
</svg>
