<svg xmlns="http://www.w3.org/2000/svg" width="16.069" height="21.156" viewBox="0 0 16.069 21.156">
  <g id="Group_3652" data-name="Group 3652" transform="translate(0 0)">
    <g id="Group_3584" data-name="Group 3584" transform="translate(0 0)">
      <g id="Group_3583" data-name="Group 3583" transform="translate(0 0)">
        <path id="Path_3486" data-name="Path 3486" d="M760.261,263.4c2.681-2.331,7.043-6.265,7.043-10.847a8.035,8.035,0,0,0-16.069,0c0,4.582,4.551,8.683,7.043,10.847a4.026,4.026,0,0,0,.992.681C759.511,264.078,760.261,263.4,760.261,263.4Z" transform="translate(-751.235 -244.515)" fill="#253d8f"/>
      </g>
      <g id="Group_3653" data-name="Group 3653" transform="translate(-239.924 -168.166)">
        <path id="Path_2606" data-name="Path 2606" d="M243.4,412.117a2.112,2.112,0,0,1,.174-.394.82.82,0,0,1,.713-.337h4.84a1.051,1.051,0,0,1,.136.009.829.829,0,0,1,.746.782c0,.027,0,.055,0,.082,0,.441,0,.882,0,1.337H243.4Z" transform="translate(0 -234.719)" fill="#ffcc02"/>
        <path id="Path_2607" data-name="Path 2607" d="M243.4,531.957H250a.871.871,0,0,1-.692,1.082.309.309,0,0,0-.042.014h-5.114a.159.159,0,0,0-.033-.013.846.846,0,0,1-.519-.288.973.973,0,0,1-.2-.429Z" transform="translate(0 -352.532)" fill="#ffcc02"/>
        <path id="Path_2609" data-name="Path 2609" d="M296.089,198.765l-.59-.267a1.372,1.372,0,1,0-2.662,0l-.589.267a.759.759,0,0,1-.268-.562c-.006-.563-.01-1.126,0-1.689a.808.808,0,0,1,.824-.813q1.365-.01,2.73,0a.811.811,0,0,1,.825.822c.008.554,0,1.108,0,1.662A.783.783,0,0,1,296.089,198.765Z" transform="translate(-47.462 -23.963)" fill="#ffcc02"/>
        <path id="Path_2610" data-name="Path 2610" d="M509.438,174.475c-.234,0-.469,0-.7,0a.278.278,0,0,1-.271-.427c.048-.1.1-.2.151-.3a.142.142,0,0,0,0-.152,1.525,1.525,0,0,1-.193-.77,1.65,1.65,0,0,1,1.724-1.65,1.651,1.651,0,0,1-.084,3.3C509.852,174.478,509.645,174.475,509.438,174.475Zm.764-1.37-.01-.025c.028-.024.057-.046.082-.072q.259-.258.516-.517a.269.269,0,0,0,.074-.308.257.257,0,0,0-.247-.172c-.371,0-.742,0-1.113,0a.268.268,0,0,0-.261.274.272.272,0,0,0,.267.27c.118,0,.237,0,.356,0,.021,0,.043,0,.08.009l-.6.591a.278.278,0,0,0-.083.33.283.283,0,0,0,.289.166c.341,0,.681,0,1.022,0a.275.275,0,1,0,0-.548Z" transform="translate(-258.956 0)" fill="#ffcc02"/>
        <path id="Path_2611" data-name="Path 2611" d="M295.082,269.346c.249,0,.5-.006.748,0a1.368,1.368,0,0,1,1.265,1.022c0,.02.007.041.011.067h-4.334a3.215,3.215,0,0,1,.156-.376,1.333,1.333,0,0,1,1.164-.713c.242-.01.485,0,.727-.006a.827.827,0,0,1-.685-.9.818.818,0,0,1,1.632.024A.847.847,0,0,1,295.082,269.346Z" transform="translate(-48.243 -94.321)" fill="#ffcc02"/>
      </g>
    </g>
    <ellipse id="Ellipse_122" data-name="Ellipse 122" cx="2" cy="0.5" rx="2" ry="0.5" transform="translate(6.201 20.156)" fill="#253d8f"/>
  </g>
</svg>
