<svg xmlns="http://www.w3.org/2000/svg" width="16.069" height="21.156" viewBox="0 0 16.069 21.156">
  <g id="Group_3655" data-name="Group 3655" transform="translate(0 0)">
    <g id="Group_3584" data-name="Group 3584" transform="translate(0 0)">
      <g id="Group_3583" data-name="Group 3583" transform="translate(0 0)">
        <path id="Path_3486" data-name="Path 3486" d="M760.261,263.4c2.681-2.331,7.043-6.265,7.043-10.847a8.035,8.035,0,0,0-16.069,0c0,4.582,4.551,8.683,7.043,10.847a4.026,4.026,0,0,0,.992.681C759.511,264.078,760.261,263.4,760.261,263.4Z" transform="translate(-751.235 -244.515)" fill="#253d8f"/>
      </g>
      <g id="icon_1" data-name="icon 1" transform="translate(-69.812 -302.989)">
        <path id="Path_3498" data-name="Path 3498" d="M78.02,309.642H77.2v3.228a1.638,1.638,0,0,0,1.623,1.654.746.746,0,0,1,.739.753v.819h-.739a3.2,3.2,0,0,1-3.164-3.225V306a1.557,1.557,0,0,1,1.543,1.572v.5h2.362a1.557,1.557,0,0,1-1.543,1.572" transform="translate(0.625)" fill="#ffcc02"/>
      </g>
    </g>
    <ellipse id="Ellipse_122" data-name="Ellipse 122" cx="2" cy="0.5" rx="2" ry="0.5" transform="translate(6.201 20.156)" fill="#253d8f"/>
  </g>
</svg>
