<svg id="Group_3599" data-name="Group 3599" xmlns="http://www.w3.org/2000/svg" width="16.069" height="20.678" viewBox="0 0 16.069 20.678">
  <g id="Group_3587" data-name="Group 3587" transform="translate(0 0)">
    <g id="Group_3583" data-name="Group 3583" transform="translate(0 0)">
      <path id="Path_3486" data-name="Path 3486" d="M760.261,263.4c2.681-2.331,7.043-6.265,7.043-10.847a8.035,8.035,0,0,0-16.069,0c0,4.582,4.551,8.683,7.043,10.847a4.026,4.026,0,0,0,.992.681C759.511,264.078,760.261,263.4,760.261,263.4Z" transform="translate(-751.235 -244.515)" fill="#253d8f"/>
    </g>
    <path id="Path_3538" data-name="Path 3538" d="M37.649,113.024a2.824,2.824,0,0,0-2.821,2.82c0,.071,0,.14.009.21a5.057,5.057,0,0,0-2.522,4.372v4.328a.947.947,0,0,0,.947-.947v-1.216h4.131a.947.947,0,0,0,.947-.947H36.224a5.05,5.05,0,0,0,2.114-4.061c0-.016,0-.031,0-.048q0-.144-.008-.287c0-.083-.013-.166-.021-.248,0-.011,0-.022,0-.032a5.167,5.167,0,0,0-.1-.565c-.016-.068-.034-.136-.052-.2a1.873,1.873,0,0,1,1.609-2.216A2.814,2.814,0,0,0,37.649,113.024Zm-4.2,8.617v0h-.181v-1.145h0c0-.022,0-.044,0-.067a4.12,4.12,0,0,1,2.665-3.845c.089-.033.179-.063.27-.091h0l.008,0a4.065,4.065,0,0,1,.416-.1,3.773,3.773,0,0,1,.61-.085s.03.144.069.363a4.2,4.2,0,0,1,.069.423h0s0,0,0,0a4.026,4.026,0,0,1,.024.44A4.113,4.113,0,0,1,33.444,121.641Zm3.772-6.265c-.141,0-.282.013-.42.029a5.021,5.021,0,0,0-1.007.222,1.858,1.858,0,0,1,2.088-1.641A2.814,2.814,0,0,0,37.216,115.376Z" transform="translate(-28.186 -110.597)" fill="#ffcc02"/>
  </g>
  <ellipse id="Ellipse_117" data-name="Ellipse 117" cx="2" cy="0.5" rx="2" ry="0.5" transform="translate(6.204 19.677)" fill="#253d8f"/>
</svg>
