<svg xmlns="http://www.w3.org/2000/svg" width="14.078" height="16.354" viewBox="0 0 14.078 16.354">
  <g id="Group_3602" data-name="Group 3602" transform="translate(-7.25 -3.25)">
    <path id="Path_3539" data-name="Path 3539" d="M27.272,45.605c0,1.158-2.16,2.451-5.261,2.451s-5.261-1.293-5.261-2.451c0-.742,1.321-1.628,2.777-2.109l.086,1.264c.034,1.065.2,1.9.986,1.9h2.822c.787,0,.93-.831.965-1.9l.126-1.209c1.456.481,2.76,1.312,2.76,2.054Z" transform="translate(-7.722 -30.025)" fill="#efb603"/>
    <path id="Path_3540" data-name="Path 3540" d="M21.328,41.107c0,1.874-3.092,3.342-7.039,3.342S7.25,42.981,7.25,41.107c0-1.459,1.871-2.671,4.562-3.137l.054,1.183c-1.422.324-2.341.936-2.341,1.669,0,1.095,2.048,1.92,4.764,1.92s4.764-.825,4.764-1.92c0-.734-.919-1.345-2.341-1.669l.054-1.183C19.457,38.436,21.328,39.648,21.328,41.107Z" transform="translate(0 -24.845)" fill="#253d8f"/>
    <g id="Group_3601" data-name="Group 3601" transform="translate(10.663 3.25)">
      <circle id="Ellipse_124" data-name="Ellipse 124" cx="2.204" cy="2.204" r="2.204" transform="translate(1.422)" fill="#253d8f"/>
      <path id="Path_3541" data-name="Path 3541" d="M24.713,17.608a2.622,2.622,0,0,1-3.675,0,2.492,2.492,0,0,0-1.789,2.387V21.7a.783.783,0,0,0,.782.782h.326l-.112-2.459a.213.213,0,0,1,.2-.223.209.209,0,0,1,.223.2l.113,2.479.147,3.235a.781.781,0,0,0,.781.747h.95v-4.2a.213.213,0,1,1,.427,0v4.2h.95a.781.781,0,0,0,.781-.747l.147-3.235L25.08,20a.21.21,0,0,1,.223-.2.213.213,0,0,1,.2.223l-.112,2.46h.326A.783.783,0,0,0,26.5,21.7V19.995A2.492,2.492,0,0,0,24.713,17.608Z" transform="translate(-19.25 -13.524)" fill="#253d8f"/>
    </g>
  </g>
</svg>
